<?xml version="1.0" encoding="us-ascii" standalone="no"?><svg xmlns="http://www.w3.org/2000/svg" xmlns:xlink="http://www.w3.org/1999/xlink" contentStyleType="text/css" height="170px" preserveAspectRatio="none" style="width:501px;height:170px;background:#FFFFFF;" version="1.1" viewBox="0 0 501 170" width="501px" zoomAndPan="magnify"><defs/><g><!--class RootBeanDefinition--><g id="elem_RootBeanDefinition"><rect codeLine="2" fill="#F1F1F1" height="48" id="RootBeanDefinition" rx="2.5" ry="2.5" style="stroke:#181818;stroke-width:0.5;" width="154" x="61" y="115"/><ellipse cx="76" cy="131" fill="#ADD1B2" rx="11" ry="11" style="stroke:#181818;stroke-width:1.0;"/><path d="M75.3438,136.8594 Q73.3594,136.8594 72.1875,135.3906 Q71.0313,133.9063 71.0313,130.8281 Q71.0313,128.2188 72.25,126.4688 Q73.4844,124.7188 75.6094,124.7188 Q76.1094,124.7188 76.6406,124.8594 Q77.0781,125.0469 77.3438,125.0469 Q77.5625,125.0469 77.6563,125 Q77.7656,124.9531 78.2188,124.3594 L78.9844,128.0938 L78.0938,128.3594 Q77.6406,126.9063 77.0313,126.3125 Q76.4375,125.7031 75.4844,125.7031 Q74.2656,125.7031 73.5469,127.1406 Q72.8281,128.5625 72.8281,130.75 Q72.8281,133.1563 73.4375,134.4531 Q74.0625,135.7344 75.4219,135.7344 Q76.375,135.7344 77.0625,135.0469 Q77.75,134.3438 78.0781,132.8438 L78.9844,133.25 Q78.5781,134.9531 77.6094,135.9063 Q76.6563,136.8594 75.3438,136.8594 Z " fill="#000000"/><text fill="#000000" font-family="sans-serif" font-size="14" lengthAdjust="spacing" textLength="122" x="90" y="136.7969">RootBeanDefinition</text><line style="stroke:#181818;stroke-width:0.5;" x1="62" x2="214" y1="147" y2="147"/><line style="stroke:#181818;stroke-width:0.5;" x1="62" x2="214" y1="155" y2="155"/></g><!--class AnnotatedBeanDefinition--><g id="elem_AnnotatedBeanDefinition"><rect codeLine="3" fill="#F1F1F1" height="48" id="AnnotatedBeanDefinition" rx="2.5" ry="2.5" style="stroke:#181818;stroke-width:0.5;" width="189" x="277.5" y="115"/><ellipse cx="292.5" cy="131" fill="#B4A7E5" rx="11" ry="11" style="stroke:#181818;stroke-width:1.0;"/><path d="M289.0938,125.7813 L289.0938,124.8438 L294.9375,124.8438 L294.9375,125.7813 L293.1406,125.7813 Q292.9688,125.7813 292.8906,125.8438 Q292.8125,125.9063 292.8125,126.0469 L292.8125,135.5313 Q292.8125,135.6719 292.8906,135.7344 Q292.9688,135.7969 293.1406,135.7969 L294.9375,135.7969 L294.9375,136.7344 L289.0938,136.7344 L289.0938,135.7969 L290.8906,135.7969 Q291.1094,135.7969 291.1563,135.75 Q291.2188,135.6875 291.2188,135.5313 L291.2188,126.0469 Q291.2188,125.8906 291.1563,125.8438 Q291.1094,125.7813 290.8906,125.7813 L289.0938,125.7813 Z " fill="#000000"/><text fill="#000000" font-family="sans-serif" font-size="14" font-style="italic" lengthAdjust="spacing" textLength="157" x="306.5" y="136.7969">AnnotatedBeanDefinition</text><line style="stroke:#181818;stroke-width:0.5;" x1="278.5" x2="465.5" y1="147" y2="147"/><line style="stroke:#181818;stroke-width:0.5;" x1="278.5" x2="465.5" y1="155" y2="155"/></g><!--class ConfigurationClassBeanDefinition--><g id="elem_ConfigurationClassBeanDefinition"><rect codeLine="5" fill="#F1F1F1" height="48" id="ConfigurationClassBeanDefinition" rx="2.5" ry="2.5" style="stroke:#181818;stroke-width:0.5;" width="244" x="250" y="7"/><ellipse cx="265" cy="23" fill="#ADD1B2" rx="11" ry="11" style="stroke:#181818;stroke-width:1.0;"/><path d="M264.3438,28.8594 Q262.3594,28.8594 261.1875,27.3906 Q260.0313,25.9063 260.0313,22.8281 Q260.0313,20.2188 261.25,18.4688 Q262.4844,16.7188 264.6094,16.7188 Q265.1094,16.7188 265.6406,16.8594 Q266.0781,17.0469 266.3438,17.0469 Q266.5625,17.0469 266.6563,17 Q266.7656,16.9531 267.2188,16.3594 L267.9844,20.0938 L267.0938,20.3594 Q266.6406,18.9063 266.0313,18.3125 Q265.4375,17.7031 264.4844,17.7031 Q263.2656,17.7031 262.5469,19.1406 Q261.8281,20.5625 261.8281,22.75 Q261.8281,25.1563 262.4375,26.4531 Q263.0625,27.7344 264.4219,27.7344 Q265.375,27.7344 266.0625,27.0469 Q266.75,26.3438 267.0781,24.8438 L267.9844,25.25 Q267.5781,26.9531 266.6094,27.9063 Q265.6563,28.8594 264.3438,28.8594 Z " fill="#000000"/><text fill="#000000" font-family="sans-serif" font-size="14" lengthAdjust="spacing" textLength="212" x="279" y="28.7969">ConfigurationClassBeanDefinition</text><line style="stroke:#181818;stroke-width:0.5;" x1="251" x2="493" y1="39" y2="39"/><line style="stroke:#181818;stroke-width:0.5;" x1="251" x2="493" y1="47" y2="47"/></g><!--class ClassDerivedBeanDefinition--><g id="elem_ClassDerivedBeanDefinition"><rect codeLine="9" fill="#F1F1F1" height="48" id="ClassDerivedBeanDefinition" rx="2.5" ry="2.5" style="stroke:#181818;stroke-width:0.5;" width="208" x="7" y="7"/><ellipse cx="22" cy="23" fill="#ADD1B2" rx="11" ry="11" style="stroke:#181818;stroke-width:1.0;"/><path d="M21.3438,28.8594 Q19.3594,28.8594 18.1875,27.3906 Q17.0313,25.9063 17.0313,22.8281 Q17.0313,20.2188 18.25,18.4688 Q19.4844,16.7188 21.6094,16.7188 Q22.1094,16.7188 22.6406,16.8594 Q23.0781,17.0469 23.3438,17.0469 Q23.5625,17.0469 23.6563,17 Q23.7656,16.9531 24.2188,16.3594 L24.9844,20.0938 L24.0938,20.3594 Q23.6406,18.9063 23.0313,18.3125 Q22.4375,17.7031 21.4844,17.7031 Q20.2656,17.7031 19.5469,19.1406 Q18.8281,20.5625 18.8281,22.75 Q18.8281,25.1563 19.4375,26.4531 Q20.0625,27.7344 21.4219,27.7344 Q22.375,27.7344 23.0625,27.0469 Q23.75,26.3438 24.0781,24.8438 L24.9844,25.25 Q24.5781,26.9531 23.6094,27.9063 Q22.6563,28.8594 21.3438,28.8594 Z " fill="#000000"/><text fill="#000000" font-family="sans-serif" font-size="14" lengthAdjust="spacing" textLength="176" x="36" y="28.7969">ClassDerivedBeanDefinition</text><line style="stroke:#181818;stroke-width:0.5;" x1="8" x2="214" y1="39" y2="39"/><line style="stroke:#181818;stroke-width:0.5;" x1="8" x2="214" y1="47" y2="47"/></g><!--link ConfigurationClassBeanDefinition to AnnotatedBeanDefinition--><g id="link_ConfigurationClassBeanDefinition_AnnotatedBeanDefinition"><path codeLine="6" d="M372,55 C372,66.59 372,81.03 372,94.6 " fill="none" id="ConfigurationClassBeanDefinition-to-AnnotatedBeanDefinition" style="stroke:#181818;stroke-width:1.0;"/><polygon fill="none" points="379,94.68,372,114.68,365,94.68,379,94.68" style="stroke:#181818;stroke-width:1.0;"/></g><!--link ConfigurationClassBeanDefinition to RootBeanDefinition--><g id="link_ConfigurationClassBeanDefinition_RootBeanDefinition"><path codeLine="7" d="M321.23,55 C287.92,70.09 243.93,90.01 207.4,106.56 " fill="none" id="ConfigurationClassBeanDefinition-to-RootBeanDefinition" style="stroke:#181818;stroke-width:1.0;"/><polygon fill="none" points="210.19,112.99,189.08,114.86,204.41,100.23,210.19,112.99" style="stroke:#181818;stroke-width:1.0;"/></g><!--link ClassDerivedBeanDefinition to RootBeanDefinition--><g id="link_ClassDerivedBeanDefinition_RootBeanDefinition"><path codeLine="10" d="M116.86,55 C119.85,66.73 123.58,81.37 127.07,95.09 " fill="none" id="ClassDerivedBeanDefinition-to-RootBeanDefinition" style="stroke:#181818;stroke-width:1.0;"/><polygon fill="none" points="133.91,93.57,132.06,114.68,120.34,97.03,133.91,93.57" style="stroke:#181818;stroke-width:1.0;"/></g><!--SRC=[Iyv9B2vM2ChFBt5AJSnpIKtBpCiioSpFuyhCAqajIajCJbLmpClBBqaiIKr1Ky6L3DRhd9-NbfbUMfG84dG62Q6f8wH0GLUtnWwdBSJfnk81cFD0f4jgKMOPfj4ufN0Q2W00]--></g></svg>