<?xml version="1.0" encoding="us-ascii" standalone="no"?><svg xmlns="http://www.w3.org/2000/svg" xmlns:xlink="http://www.w3.org/1999/xlink" contentStyleType="text/css" height="170px" preserveAspectRatio="none" style="width:1500px;height:170px;background:#FFFFFF;" version="1.1" viewBox="0 0 1500 170" width="1500px" zoomAndPan="magnify"><defs/><g><!--class GenericBeanDefinition--><g id="elem_GenericBeanDefinition"><rect codeLine="2" fill="#F1F1F1" height="48" id="GenericBeanDefinition" rx="2.5" ry="2.5" style="stroke:#181818;stroke-width:0.5;" width="174" x="664" y="115"/><ellipse cx="679" cy="131" fill="#ADD1B2" rx="11" ry="11" style="stroke:#181818;stroke-width:1.0;"/><path d="M678.3438,136.8594 Q676.3594,136.8594 675.1875,135.3906 Q674.0313,133.9063 674.0313,130.8281 Q674.0313,128.2188 675.25,126.4688 Q676.4844,124.7188 678.6094,124.7188 Q679.1094,124.7188 679.6406,124.8594 Q680.0781,125.0469 680.3438,125.0469 Q680.5625,125.0469 680.6563,125 Q680.7656,124.9531 681.2188,124.3594 L681.9844,128.0938 L681.0938,128.3594 Q680.6406,126.9063 680.0313,126.3125 Q679.4375,125.7031 678.4844,125.7031 Q677.2656,125.7031 676.5469,127.1406 Q675.8281,128.5625 675.8281,130.75 Q675.8281,133.1563 676.4375,134.4531 Q677.0625,135.7344 678.4219,135.7344 Q679.375,135.7344 680.0625,135.0469 Q680.75,134.3438 681.0781,132.8438 L681.9844,133.25 Q681.5781,134.9531 680.6094,135.9063 Q679.6563,136.8594 678.3438,136.8594 Z " fill="#000000"/><text fill="#000000" font-family="sans-serif" font-size="14" lengthAdjust="spacing" textLength="142" x="693" y="136.7969">GenericBeanDefinition</text><line style="stroke:#181818;stroke-width:0.5;" x1="665" x2="837" y1="147" y2="147"/><line style="stroke:#181818;stroke-width:0.5;" x1="665" x2="837" y1="155" y2="155"/></g><!--class AnnotatedBeanDefinition--><g id="elem_AnnotatedBeanDefinition"><rect codeLine="3" fill="#F1F1F1" height="48" id="AnnotatedBeanDefinition" rx="2.5" ry="2.5" style="stroke:#181818;stroke-width:0.5;" width="189" x="1144.5" y="115"/><ellipse cx="1159.5" cy="131" fill="#B4A7E5" rx="11" ry="11" style="stroke:#181818;stroke-width:1.0;"/><path d="M1156.0938,125.7813 L1156.0938,124.8438 L1161.9375,124.8438 L1161.9375,125.7813 L1160.1406,125.7813 Q1159.9688,125.7813 1159.8906,125.8438 Q1159.8125,125.9063 1159.8125,126.0469 L1159.8125,135.5313 Q1159.8125,135.6719 1159.8906,135.7344 Q1159.9688,135.7969 1160.1406,135.7969 L1161.9375,135.7969 L1161.9375,136.7344 L1156.0938,136.7344 L1156.0938,135.7969 L1157.8906,135.7969 Q1158.1094,135.7969 1158.1563,135.75 Q1158.2188,135.6875 1158.2188,135.5313 L1158.2188,126.0469 Q1158.2188,125.8906 1158.1563,125.8438 Q1158.1094,125.7813 1157.8906,125.7813 L1156.0938,125.7813 Z " fill="#000000"/><text fill="#000000" font-family="sans-serif" font-size="14" font-style="italic" lengthAdjust="spacing" textLength="157" x="1173.5" y="136.7969">AnnotatedBeanDefinition</text><line style="stroke:#181818;stroke-width:0.5;" x1="1145.5" x2="1332.5" y1="147" y2="147"/><line style="stroke:#181818;stroke-width:0.5;" x1="1145.5" x2="1332.5" y1="155" y2="155"/></g><!--class AnnotatedGenericBeanDefinition--><g id="elem_AnnotatedGenericBeanDefinition"><rect codeLine="5" fill="#F1F1F1" height="48" id="AnnotatedGenericBeanDefinition" rx="2.5" ry="2.5" style="stroke:#181818;stroke-width:0.5;" width="239" x="1254.5" y="7"/><ellipse cx="1269.5" cy="23" fill="#ADD1B2" rx="11" ry="11" style="stroke:#181818;stroke-width:1.0;"/><path d="M1268.8438,28.8594 Q1266.8594,28.8594 1265.6875,27.3906 Q1264.5313,25.9063 1264.5313,22.8281 Q1264.5313,20.2188 1265.75,18.4688 Q1266.9844,16.7188 1269.1094,16.7188 Q1269.6094,16.7188 1270.1406,16.8594 Q1270.5781,17.0469 1270.8438,17.0469 Q1271.0625,17.0469 1271.1563,17 Q1271.2656,16.9531 1271.7188,16.3594 L1272.4844,20.0938 L1271.5938,20.3594 Q1271.1406,18.9063 1270.5313,18.3125 Q1269.9375,17.7031 1268.9844,17.7031 Q1267.7656,17.7031 1267.0469,19.1406 Q1266.3281,20.5625 1266.3281,22.75 Q1266.3281,25.1563 1266.9375,26.4531 Q1267.5625,27.7344 1268.9219,27.7344 Q1269.875,27.7344 1270.5625,27.0469 Q1271.25,26.3438 1271.5781,24.8438 L1272.4844,25.25 Q1272.0781,26.9531 1271.1094,27.9063 Q1270.1563,28.8594 1268.8438,28.8594 Z " fill="#000000"/><text fill="#000000" font-family="sans-serif" font-size="14" lengthAdjust="spacing" textLength="207" x="1283.5" y="28.7969">AnnotatedGenericBeanDefinition</text><line style="stroke:#181818;stroke-width:0.5;" x1="1255.5" x2="1492.5" y1="39" y2="39"/><line style="stroke:#181818;stroke-width:0.5;" x1="1255.5" x2="1492.5" y1="47" y2="47"/></g><!--class BasePackagesBeanDefinition--><g id="elem_BasePackagesBeanDefinition"><rect codeLine="9" fill="#F1F1F1" height="48" id="BasePackagesBeanDefinition" rx="2.5" ry="2.5" style="stroke:#181818;stroke-width:0.5;" width="218" x="7" y="7"/><ellipse cx="22" cy="23" fill="#ADD1B2" rx="11" ry="11" style="stroke:#181818;stroke-width:1.0;"/><path d="M21.3438,28.8594 Q19.3594,28.8594 18.1875,27.3906 Q17.0313,25.9063 17.0313,22.8281 Q17.0313,20.2188 18.25,18.4688 Q19.4844,16.7188 21.6094,16.7188 Q22.1094,16.7188 22.6406,16.8594 Q23.0781,17.0469 23.3438,17.0469 Q23.5625,17.0469 23.6563,17 Q23.7656,16.9531 24.2188,16.3594 L24.9844,20.0938 L24.0938,20.3594 Q23.6406,18.9063 23.0313,18.3125 Q22.4375,17.7031 21.4844,17.7031 Q20.2656,17.7031 19.5469,19.1406 Q18.8281,20.5625 18.8281,22.75 Q18.8281,25.1563 19.4375,26.4531 Q20.0625,27.7344 21.4219,27.7344 Q22.375,27.7344 23.0625,27.0469 Q23.75,26.3438 24.0781,24.8438 L24.9844,25.25 Q24.5781,26.9531 23.6094,27.9063 Q22.6563,28.8594 21.3438,28.8594 Z " fill="#000000"/><text fill="#000000" font-family="sans-serif" font-size="14" lengthAdjust="spacing" textLength="186" x="36" y="28.7969">BasePackagesBeanDefinition</text><line style="stroke:#181818;stroke-width:0.5;" x1="8" x2="224" y1="39" y2="39"/><line style="stroke:#181818;stroke-width:0.5;" x1="8" x2="224" y1="47" y2="47"/></g><!--class EntityScanPackagesBeanDefinition--><g id="elem_EntityScanPackagesBeanDefinition"><rect codeLine="12" fill="#F1F1F1" height="48" id="EntityScanPackagesBeanDefinition" rx="2.5" ry="2.5" style="stroke:#181818;stroke-width:0.5;" width="253" x="260.5" y="7"/><ellipse cx="275.5" cy="23" fill="#ADD1B2" rx="11" ry="11" style="stroke:#181818;stroke-width:1.0;"/><path d="M274.8438,28.8594 Q272.8594,28.8594 271.6875,27.3906 Q270.5313,25.9063 270.5313,22.8281 Q270.5313,20.2188 271.75,18.4688 Q272.9844,16.7188 275.1094,16.7188 Q275.6094,16.7188 276.1406,16.8594 Q276.5781,17.0469 276.8438,17.0469 Q277.0625,17.0469 277.1563,17 Q277.2656,16.9531 277.7188,16.3594 L278.4844,20.0938 L277.5938,20.3594 Q277.1406,18.9063 276.5313,18.3125 Q275.9375,17.7031 274.9844,17.7031 Q273.7656,17.7031 273.0469,19.1406 Q272.3281,20.5625 272.3281,22.75 Q272.3281,25.1563 272.9375,26.4531 Q273.5625,27.7344 274.9219,27.7344 Q275.875,27.7344 276.5625,27.0469 Q277.25,26.3438 277.5781,24.8438 L278.4844,25.25 Q278.0781,26.9531 277.1094,27.9063 Q276.1563,28.8594 274.8438,28.8594 Z " fill="#000000"/><text fill="#000000" font-family="sans-serif" font-size="14" lengthAdjust="spacing" textLength="221" x="289.5" y="28.7969">EntityScanPackagesBeanDefinition</text><line style="stroke:#181818;stroke-width:0.5;" x1="261.5" x2="512.5" y1="39" y2="39"/><line style="stroke:#181818;stroke-width:0.5;" x1="261.5" x2="512.5" y1="47" y2="47"/></g><!--class ServletComponentRegisteringPostProcessorBeanDefinition--><g id="elem_ServletComponentRegisteringPostProcessorBeanDefinition"><rect codeLine="15" fill="#F1F1F1" height="48" id="ServletComponentRegisteringPostProcessorBeanDefinition" rx="2.5" ry="2.5" style="stroke:#181818;stroke-width:0.5;" width="405" x="548.5" y="7"/><ellipse cx="563.5" cy="23" fill="#ADD1B2" rx="11" ry="11" style="stroke:#181818;stroke-width:1.0;"/><path d="M562.8438,28.8594 Q560.8594,28.8594 559.6875,27.3906 Q558.5313,25.9063 558.5313,22.8281 Q558.5313,20.2188 559.75,18.4688 Q560.9844,16.7188 563.1094,16.7188 Q563.6094,16.7188 564.1406,16.8594 Q564.5781,17.0469 564.8438,17.0469 Q565.0625,17.0469 565.1563,17 Q565.2656,16.9531 565.7188,16.3594 L566.4844,20.0938 L565.5938,20.3594 Q565.1406,18.9063 564.5313,18.3125 Q563.9375,17.7031 562.9844,17.7031 Q561.7656,17.7031 561.0469,19.1406 Q560.3281,20.5625 560.3281,22.75 Q560.3281,25.1563 560.9375,26.4531 Q561.5625,27.7344 562.9219,27.7344 Q563.875,27.7344 564.5625,27.0469 Q565.25,26.3438 565.5781,24.8438 L566.4844,25.25 Q566.0781,26.9531 565.1094,27.9063 Q564.1563,28.8594 562.8438,28.8594 Z " fill="#000000"/><text fill="#000000" font-family="sans-serif" font-size="14" lengthAdjust="spacing" textLength="373" x="577.5" y="28.7969">ServletComponentRegisteringPostProcessorBeanDefinition</text><line style="stroke:#181818;stroke-width:0.5;" x1="549.5" x2="952.5" y1="39" y2="39"/><line style="stroke:#181818;stroke-width:0.5;" x1="549.5" x2="952.5" y1="47" y2="47"/></g><!--class ScannedGenericBeanDefinition--><g id="elem_ScannedGenericBeanDefinition"><rect codeLine="18" fill="#F1F1F1" height="48" id="ScannedGenericBeanDefinition" rx="2.5" ry="2.5" style="stroke:#181818;stroke-width:0.5;" width="230" x="989" y="7"/><ellipse cx="1004" cy="23" fill="#ADD1B2" rx="11" ry="11" style="stroke:#181818;stroke-width:1.0;"/><path d="M1003.3438,28.8594 Q1001.3594,28.8594 1000.1875,27.3906 Q999.0313,25.9063 999.0313,22.8281 Q999.0313,20.2188 1000.25,18.4688 Q1001.4844,16.7188 1003.6094,16.7188 Q1004.1094,16.7188 1004.6406,16.8594 Q1005.0781,17.0469 1005.3438,17.0469 Q1005.5625,17.0469 1005.6563,17 Q1005.7656,16.9531 1006.2188,16.3594 L1006.9844,20.0938 L1006.0938,20.3594 Q1005.6406,18.9063 1005.0313,18.3125 Q1004.4375,17.7031 1003.4844,17.7031 Q1002.2656,17.7031 1001.5469,19.1406 Q1000.8281,20.5625 1000.8281,22.75 Q1000.8281,25.1563 1001.4375,26.4531 Q1002.0625,27.7344 1003.4219,27.7344 Q1004.375,27.7344 1005.0625,27.0469 Q1005.75,26.3438 1006.0781,24.8438 L1006.9844,25.25 Q1006.5781,26.9531 1005.6094,27.9063 Q1004.6563,28.8594 1003.3438,28.8594 Z " fill="#000000"/><text fill="#000000" font-family="sans-serif" font-size="14" lengthAdjust="spacing" textLength="198" x="1018" y="28.7969">ScannedGenericBeanDefinition</text><line style="stroke:#181818;stroke-width:0.5;" x1="990" x2="1218" y1="39" y2="39"/><line style="stroke:#181818;stroke-width:0.5;" x1="990" x2="1218" y1="47" y2="47"/></g><!--link AnnotatedGenericBeanDefinition to GenericBeanDefinition--><g id="link_AnnotatedGenericBeanDefinition_GenericBeanDefinition"><path codeLine="6" d="M1254.25,52.38 C1139.62,71.88 968.29,101.03 858.08,119.78 " fill="none" id="AnnotatedGenericBeanDefinition-to-GenericBeanDefinition" style="stroke:#181818;stroke-width:1.0;"/><polygon fill="none" points="859.14,126.7,838.25,123.16,856.79,112.9,859.14,126.7" style="stroke:#181818;stroke-width:1.0;"/></g><!--link AnnotatedGenericBeanDefinition to AnnotatedBeanDefinition--><g id="link_AnnotatedGenericBeanDefinition_AnnotatedBeanDefinition"><path codeLine="7" d="M1344.71,55 C1327.14,68.8 1304.42,86.63 1284.55,102.24 " fill="none" id="AnnotatedGenericBeanDefinition-to-AnnotatedBeanDefinition" style="stroke:#181818;stroke-width:1.0;"/><polygon fill="none" points="1288.76,107.83,1268.7,114.68,1280.11,96.82,1288.76,107.83" style="stroke:#181818;stroke-width:1.0;"/></g><!--link BasePackagesBeanDefinition to GenericBeanDefinition--><g id="link_BasePackagesBeanDefinition_GenericBeanDefinition"><path codeLine="10" d="M225.09,51.88 C231.15,52.95 237.15,53.99 243,55 C381.29,78.82 541.07,104.65 643.94,121.06 " fill="none" id="BasePackagesBeanDefinition-to-GenericBeanDefinition" style="stroke:#181818;stroke-width:1.0;"/><polygon fill="none" points="645.08,114.15,663.73,124.21,642.88,127.98,645.08,114.15" style="stroke:#181818;stroke-width:1.0;"/></g><!--link EntityScanPackagesBeanDefinition to GenericBeanDefinition--><g id="link_EntityScanPackagesBeanDefinition_GenericBeanDefinition"><path codeLine="13" d="M465.98,55 C520.74,70.95 594.06,92.3 652.61,109.35 " fill="none" id="EntityScanPackagesBeanDefinition-to-GenericBeanDefinition" style="stroke:#181818;stroke-width:1.0;"/><polygon fill="none" points="654.61,102.64,671.86,114.95,650.7,116.08,654.61,102.64" style="stroke:#181818;stroke-width:1.0;"/></g><!--link ServletComponentRegisteringPostProcessorBeanDefinition to GenericBeanDefinition--><g id="link_ServletComponentRegisteringPostProcessorBeanDefinition_GenericBeanDefinition"><path codeLine="16" d="M751,55 C751,66.59 751,81.03 751,94.6 " fill="none" id="ServletComponentRegisteringPostProcessorBeanDefinition-to-GenericBeanDefinition" style="stroke:#181818;stroke-width:1.0;"/><polygon fill="none" points="758,94.68,751,114.68,744,94.68,758,94.68" style="stroke:#181818;stroke-width:1.0;"/></g><!--link ScannedGenericBeanDefinition to AnnotatedBeanDefinition--><g id="link_ScannedGenericBeanDefinition_AnnotatedBeanDefinition"><path codeLine="19" d="M1133.29,55 C1150.86,68.8 1173.58,86.63 1193.45,102.24 " fill="none" id="ScannedGenericBeanDefinition-to-AnnotatedBeanDefinition" style="stroke:#181818;stroke-width:1.0;"/><polygon fill="none" points="1197.89,96.82,1209.3,114.68,1189.24,107.83,1197.89,96.82" style="stroke:#181818;stroke-width:1.0;"/></g><!--link ScannedGenericBeanDefinition to GenericBeanDefinition--><g id="link_ScannedGenericBeanDefinition_GenericBeanDefinition"><path codeLine="20" d="M1027.4,55 C974.53,70.88 903.82,92.11 847.16,109.13 " fill="none" id="ScannedGenericBeanDefinition-to-GenericBeanDefinition" style="stroke:#181818;stroke-width:1.0;"/><polygon fill="none" points="848.92,115.91,827.75,114.95,844.89,102.5,848.92,115.91" style="stroke:#181818;stroke-width:1.0;"/></g><!--SRC=[dP512i9G34JtFSM_GAyWM1MtnPuWn6a9rdpv2OBWuIqYBahxMxf-CvC9mpsPXJCKIRW2wH6jgBX4BKGTgIL6sAj69yTrf2ZuQ__ZwPmy3cNvteNjpeLk5HbguXjri95Y7kKw_N9FwkAlXabdqfS4AsuqICyUVeZtHrIeNz293Pk8TdKqhrDacCKqSc-phUapFADpA-TWVgbbvoJw0000]--></g></svg>