<?xml version="1.0" encoding="us-ascii" standalone="no"?><svg xmlns="http://www.w3.org/2000/svg" xmlns:xlink="http://www.w3.org/1999/xlink" contentStyleType="text/css" height="494px" preserveAspectRatio="none" style="width:888px;height:494px;background:#FFFFFF;" version="1.1" viewBox="0 0 888 494" width="888px" zoomAndPan="magnify"><defs/><g><!--class BeanFactory--><g id="elem_BeanFactory"><rect codeLine="3" fill="#F1F1F1" height="48" id="BeanFactory" rx="2.5" ry="2.5" style="stroke:#181818;stroke-width:0.5;" width="113" x="494.5" y="439"/><ellipse cx="509.5" cy="455" fill="#B4A7E5" rx="11" ry="11" style="stroke:#181818;stroke-width:1.0;"/><path d="M506.0938,449.7813 L506.0938,448.8438 L511.9375,448.8438 L511.9375,449.7813 L510.1406,449.7813 Q509.9688,449.7813 509.8906,449.8438 Q509.8125,449.9063 509.8125,450.0469 L509.8125,459.5313 Q509.8125,459.6719 509.8906,459.7344 Q509.9688,459.7969 510.1406,459.7969 L511.9375,459.7969 L511.9375,460.7344 L506.0938,460.7344 L506.0938,459.7969 L507.8906,459.7969 Q508.1094,459.7969 508.1563,459.75 Q508.2188,459.6875 508.2188,459.5313 L508.2188,450.0469 Q508.2188,449.8906 508.1563,449.8438 Q508.1094,449.7813 507.8906,449.7813 L506.0938,449.7813 Z " fill="#000000"/><text fill="#000000" font-family="sans-serif" font-size="14" font-style="italic" lengthAdjust="spacing" textLength="81" x="523.5" y="460.7969">BeanFactory</text><line style="stroke:#181818;stroke-width:0.5;" x1="495.5" x2="606.5" y1="471" y2="471"/><line style="stroke:#181818;stroke-width:0.5;" x1="495.5" x2="606.5" y1="479" y2="479"/></g><!--class HierarchicalBeanFactory--><g id="elem_HierarchicalBeanFactory"><rect codeLine="5" fill="#F1F1F1" height="48" id="HierarchicalBeanFactory" rx="2.5" ry="2.5" style="stroke:#181818;stroke-width:0.5;" width="188" x="218" y="331"/><ellipse cx="233" cy="347" fill="#B4A7E5" rx="11" ry="11" style="stroke:#181818;stroke-width:1.0;"/><path d="M229.5938,341.7813 L229.5938,340.8438 L235.4375,340.8438 L235.4375,341.7813 L233.6406,341.7813 Q233.4688,341.7813 233.3906,341.8438 Q233.3125,341.9063 233.3125,342.0469 L233.3125,351.5313 Q233.3125,351.6719 233.3906,351.7344 Q233.4688,351.7969 233.6406,351.7969 L235.4375,351.7969 L235.4375,352.7344 L229.5938,352.7344 L229.5938,351.7969 L231.3906,351.7969 Q231.6094,351.7969 231.6563,351.75 Q231.7188,351.6875 231.7188,351.5313 L231.7188,342.0469 Q231.7188,341.8906 231.6563,341.8438 Q231.6094,341.7813 231.3906,341.7813 L229.5938,341.7813 Z " fill="#000000"/><text fill="#000000" font-family="sans-serif" font-size="14" font-style="italic" lengthAdjust="spacing" textLength="156" x="247" y="352.7969">HierarchicalBeanFactory</text><line style="stroke:#181818;stroke-width:0.5;" x1="219" x2="405" y1="363" y2="363"/><line style="stroke:#181818;stroke-width:0.5;" x1="219" x2="405" y1="371" y2="371"/></g><!--class AutowireCapableBeanFactory--><g id="elem_AutowireCapableBeanFactory"><rect codeLine="6" fill="#F1F1F1" height="48" id="AutowireCapableBeanFactory" rx="2.5" ry="2.5" style="stroke:#181818;stroke-width:0.5;" width="220" x="441" y="331"/><ellipse cx="456" cy="347" fill="#B4A7E5" rx="11" ry="11" style="stroke:#181818;stroke-width:1.0;"/><path d="M452.5938,341.7813 L452.5938,340.8438 L458.4375,340.8438 L458.4375,341.7813 L456.6406,341.7813 Q456.4688,341.7813 456.3906,341.8438 Q456.3125,341.9063 456.3125,342.0469 L456.3125,351.5313 Q456.3125,351.6719 456.3906,351.7344 Q456.4688,351.7969 456.6406,351.7969 L458.4375,351.7969 L458.4375,352.7344 L452.5938,352.7344 L452.5938,351.7969 L454.3906,351.7969 Q454.6094,351.7969 454.6563,351.75 Q454.7188,351.6875 454.7188,351.5313 L454.7188,342.0469 Q454.7188,341.8906 454.6563,341.8438 Q454.6094,341.7813 454.3906,341.7813 L452.5938,341.7813 Z " fill="#000000"/><text fill="#000000" font-family="sans-serif" font-size="14" font-style="italic" lengthAdjust="spacing" textLength="188" x="470" y="352.7969">AutowireCapableBeanFactory</text><line style="stroke:#181818;stroke-width:0.5;" x1="442" x2="660" y1="363" y2="363"/><line style="stroke:#181818;stroke-width:0.5;" x1="442" x2="660" y1="371" y2="371"/></g><!--class ListableBeanFactory--><g id="elem_ListableBeanFactory"><rect codeLine="7" fill="#F1F1F1" height="48" id="ListableBeanFactory" rx="2.5" ry="2.5" style="stroke:#181818;stroke-width:0.5;" width="162" x="696" y="331"/><ellipse cx="711" cy="347" fill="#B4A7E5" rx="11" ry="11" style="stroke:#181818;stroke-width:1.0;"/><path d="M707.5938,341.7813 L707.5938,340.8438 L713.4375,340.8438 L713.4375,341.7813 L711.6406,341.7813 Q711.4688,341.7813 711.3906,341.8438 Q711.3125,341.9063 711.3125,342.0469 L711.3125,351.5313 Q711.3125,351.6719 711.3906,351.7344 Q711.4688,351.7969 711.6406,351.7969 L713.4375,351.7969 L713.4375,352.7344 L707.5938,352.7344 L707.5938,351.7969 L709.3906,351.7969 Q709.6094,351.7969 709.6563,351.75 Q709.7188,351.6875 709.7188,351.5313 L709.7188,342.0469 Q709.7188,341.8906 709.6563,341.8438 Q709.6094,341.7813 709.3906,341.7813 L707.5938,341.7813 Z " fill="#000000"/><text fill="#000000" font-family="sans-serif" font-size="14" font-style="italic" lengthAdjust="spacing" textLength="130" x="725" y="352.7969">ListableBeanFactory</text><line style="stroke:#181818;stroke-width:0.5;" x1="697" x2="857" y1="363" y2="363"/><line style="stroke:#181818;stroke-width:0.5;" x1="697" x2="857" y1="371" y2="371"/></g><!--class ConfigurableBeanFactory--><g id="elem_ConfigurableBeanFactory"><rect codeLine="9" fill="#F1F1F1" height="48" id="ConfigurableBeanFactory" rx="2.5" ry="2.5" style="stroke:#181818;stroke-width:0.5;" width="194" x="215" y="223"/><ellipse cx="230" cy="239" fill="#B4A7E5" rx="11" ry="11" style="stroke:#181818;stroke-width:1.0;"/><path d="M226.5938,233.7813 L226.5938,232.8438 L232.4375,232.8438 L232.4375,233.7813 L230.6406,233.7813 Q230.4688,233.7813 230.3906,233.8438 Q230.3125,233.9063 230.3125,234.0469 L230.3125,243.5313 Q230.3125,243.6719 230.3906,243.7344 Q230.4688,243.7969 230.6406,243.7969 L232.4375,243.7969 L232.4375,244.7344 L226.5938,244.7344 L226.5938,243.7969 L228.3906,243.7969 Q228.6094,243.7969 228.6563,243.75 Q228.7188,243.6875 228.7188,243.5313 L228.7188,234.0469 Q228.7188,233.8906 228.6563,233.8438 Q228.6094,233.7813 228.3906,233.7813 L226.5938,233.7813 Z " fill="#000000"/><text fill="#000000" font-family="sans-serif" font-size="14" font-style="italic" lengthAdjust="spacing" textLength="162" x="244" y="244.7969">ConfigurableBeanFactory</text><line style="stroke:#181818;stroke-width:0.5;" x1="216" x2="408" y1="255" y2="255"/><line style="stroke:#181818;stroke-width:0.5;" x1="216" x2="408" y1="263" y2="263"/></g><!--class ConfigurableListableBeanFactory--><g id="elem_ConfigurableListableBeanFactory"><rect codeLine="10" fill="#F1F1F1" height="48" id="ConfigurableListableBeanFactory" rx="2.5" ry="2.5" style="stroke:#181818;stroke-width:0.5;" width="243" x="425.5" y="115"/><ellipse cx="440.5" cy="131" fill="#B4A7E5" rx="11" ry="11" style="stroke:#181818;stroke-width:1.0;"/><path d="M437.0938,125.7813 L437.0938,124.8438 L442.9375,124.8438 L442.9375,125.7813 L441.1406,125.7813 Q440.9688,125.7813 440.8906,125.8438 Q440.8125,125.9063 440.8125,126.0469 L440.8125,135.5313 Q440.8125,135.6719 440.8906,135.7344 Q440.9688,135.7969 441.1406,135.7969 L442.9375,135.7969 L442.9375,136.7344 L437.0938,136.7344 L437.0938,135.7969 L438.8906,135.7969 Q439.1094,135.7969 439.1563,135.75 Q439.2188,135.6875 439.2188,135.5313 L439.2188,126.0469 Q439.2188,125.8906 439.1563,125.8438 Q439.1094,125.7813 438.8906,125.7813 L437.0938,125.7813 Z " fill="#000000"/><text fill="#000000" font-family="sans-serif" font-size="14" font-style="italic" lengthAdjust="spacing" textLength="211" x="454.5" y="136.7969">ConfigurableListableBeanFactory</text><line style="stroke:#181818;stroke-width:0.5;" x1="426.5" x2="667.5" y1="147" y2="147"/><line style="stroke:#181818;stroke-width:0.5;" x1="426.5" x2="667.5" y1="155" y2="155"/></g><!--class DefaultListableBeanFactory--><g id="elem_DefaultListableBeanFactory"><rect codeLine="12" fill="#F1F1F1" height="48" id="DefaultListableBeanFactory" rx="2.5" ry="2.5" style="stroke:#181818;stroke-width:0.5;" width="207" x="442.5" y="7"/><ellipse cx="457.5" cy="23" fill="#ADD1B2" rx="11" ry="11" style="stroke:#181818;stroke-width:1.0;"/><path d="M456.8438,28.8594 Q454.8594,28.8594 453.6875,27.3906 Q452.5313,25.9063 452.5313,22.8281 Q452.5313,20.2188 453.75,18.4688 Q454.9844,16.7188 457.1094,16.7188 Q457.6094,16.7188 458.1406,16.8594 Q458.5781,17.0469 458.8438,17.0469 Q459.0625,17.0469 459.1563,17 Q459.2656,16.9531 459.7188,16.3594 L460.4844,20.0938 L459.5938,20.3594 Q459.1406,18.9063 458.5313,18.3125 Q457.9375,17.7031 456.9844,17.7031 Q455.7656,17.7031 455.0469,19.1406 Q454.3281,20.5625 454.3281,22.75 Q454.3281,25.1563 454.9375,26.4531 Q455.5625,27.7344 456.9219,27.7344 Q457.875,27.7344 458.5625,27.0469 Q459.25,26.3438 459.5781,24.8438 L460.4844,25.25 Q460.0781,26.9531 459.1094,27.9063 Q458.1563,28.8594 456.8438,28.8594 Z " fill="#000000"/><text fill="#000000" font-family="sans-serif" font-size="14" lengthAdjust="spacing" textLength="175" x="471.5" y="28.7969">DefaultListableBeanFactory</text><line style="stroke:#181818;stroke-width:0.5;" x1="443.5" x2="648.5" y1="39" y2="39"/><line style="stroke:#181818;stroke-width:0.5;" x1="443.5" x2="648.5" y1="47" y2="47"/></g><!--class StaticListableBeanFactory--><g id="elem_StaticListableBeanFactory"><rect codeLine="13" fill="#F1F1F1" height="48" id="StaticListableBeanFactory" rx="2.5" ry="2.5" style="stroke:#181818;stroke-width:0.5;" width="197" x="684.5" y="7"/><ellipse cx="699.5" cy="23" fill="#ADD1B2" rx="11" ry="11" style="stroke:#181818;stroke-width:1.0;"/><path d="M698.8438,28.8594 Q696.8594,28.8594 695.6875,27.3906 Q694.5313,25.9063 694.5313,22.8281 Q694.5313,20.2188 695.75,18.4688 Q696.9844,16.7188 699.1094,16.7188 Q699.6094,16.7188 700.1406,16.8594 Q700.5781,17.0469 700.8438,17.0469 Q701.0625,17.0469 701.1563,17 Q701.2656,16.9531 701.7188,16.3594 L702.4844,20.0938 L701.5938,20.3594 Q701.1406,18.9063 700.5313,18.3125 Q699.9375,17.7031 698.9844,17.7031 Q697.7656,17.7031 697.0469,19.1406 Q696.3281,20.5625 696.3281,22.75 Q696.3281,25.1563 696.9375,26.4531 Q697.5625,27.7344 698.9219,27.7344 Q699.875,27.7344 700.5625,27.0469 Q701.25,26.3438 701.5781,24.8438 L702.4844,25.25 Q702.0781,26.9531 701.1094,27.9063 Q700.1563,28.8594 698.8438,28.8594 Z " fill="#000000"/><text fill="#000000" font-family="sans-serif" font-size="14" lengthAdjust="spacing" textLength="165" x="713.5" y="28.7969">StaticListableBeanFactory</text><line style="stroke:#181818;stroke-width:0.5;" x1="685.5" x2="880.5" y1="39" y2="39"/><line style="stroke:#181818;stroke-width:0.5;" x1="685.5" x2="880.5" y1="47" y2="47"/></g><!--class SingletonBeanRegistry--><g id="elem_SingletonBeanRegistry"><rect fill="#F1F1F1" height="48" id="SingletonBeanRegistry" rx="2.5" ry="2.5" style="stroke:#181818;stroke-width:0.5;" width="176" x="7" y="331"/><ellipse cx="22" cy="347" fill="#ADD1B2" rx="11" ry="11" style="stroke:#181818;stroke-width:1.0;"/><path d="M21.3438,352.8594 Q19.3594,352.8594 18.1875,351.3906 Q17.0313,349.9063 17.0313,346.8281 Q17.0313,344.2188 18.25,342.4688 Q19.4844,340.7188 21.6094,340.7188 Q22.1094,340.7188 22.6406,340.8594 Q23.0781,341.0469 23.3438,341.0469 Q23.5625,341.0469 23.6563,341 Q23.7656,340.9531 24.2188,340.3594 L24.9844,344.0938 L24.0938,344.3594 Q23.6406,342.9063 23.0313,342.3125 Q22.4375,341.7031 21.4844,341.7031 Q20.2656,341.7031 19.5469,343.1406 Q18.8281,344.5625 18.8281,346.75 Q18.8281,349.1563 19.4375,350.4531 Q20.0625,351.7344 21.4219,351.7344 Q22.375,351.7344 23.0625,351.0469 Q23.75,350.3438 24.0781,348.8438 L24.9844,349.25 Q24.5781,350.9531 23.6094,351.9063 Q22.6563,352.8594 21.3438,352.8594 Z " fill="#000000"/><text fill="#000000" font-family="sans-serif" font-size="14" lengthAdjust="spacing" textLength="144" x="36" y="352.7969">SingletonBeanRegistry</text><line style="stroke:#181818;stroke-width:0.5;" x1="8" x2="182" y1="363" y2="363"/><line style="stroke:#181818;stroke-width:0.5;" x1="8" x2="182" y1="371" y2="371"/></g><!--link HierarchicalBeanFactory to BeanFactory--><g id="link_HierarchicalBeanFactory_BeanFactory"><path codeLine="18" d="M363.86,379 C397.96,394.12 443.01,414.11 480.37,430.67 " fill="none" id="HierarchicalBeanFactory-to-BeanFactory" style="stroke:#181818;stroke-width:1.0;"/><polygon fill="none" points="483.39,424.35,498.83,438.86,477.71,437.15,483.39,424.35" style="stroke:#181818;stroke-width:1.0;"/></g><!--link ListableBeanFactory to BeanFactory--><g id="link_ListableBeanFactory_BeanFactory"><path codeLine="19" d="M727.96,379 C695.94,394.02 653.7,413.83 618.52,430.33 " fill="none" id="ListableBeanFactory-to-BeanFactory" style="stroke:#181818;stroke-width:1.0;"/><polygon fill="none" points="621.41,436.71,600.33,438.86,615.47,424.03,621.41,436.71" style="stroke:#181818;stroke-width:1.0;"/></g><!--link AutowireCapableBeanFactory to BeanFactory--><g id="link_AutowireCapableBeanFactory_BeanFactory"><path codeLine="20" d="M551,379 C551,390.59 551,405.03 551,418.6 " fill="none" id="AutowireCapableBeanFactory-to-BeanFactory" style="stroke:#181818;stroke-width:1.0;"/><polygon fill="none" points="558,418.68,551,438.68,544,418.68,558,418.68" style="stroke:#181818;stroke-width:1.0;"/></g><!--link ConfigurableBeanFactory to HierarchicalBeanFactory--><g id="link_ConfigurableBeanFactory_HierarchicalBeanFactory"><path codeLine="21" d="M312,271 C312,282.59 312,297.03 312,310.6 " fill="none" id="ConfigurableBeanFactory-to-HierarchicalBeanFactory" style="stroke:#181818;stroke-width:1.0;"/><polygon fill="none" points="319,310.68,312,330.68,305,310.68,319,310.68" style="stroke:#181818;stroke-width:1.0;"/></g><!--link ConfigurableBeanFactory to SingletonBeanRegistry--><g id="link_ConfigurableBeanFactory_SingletonBeanRegistry"><path codeLine="22" d="M264.91,271 C234.45,285.88 194.35,305.47 160.76,321.88 " fill="none" id="ConfigurableBeanFactory-to-SingletonBeanRegistry" style="stroke:#181818;stroke-width:1.0;"/><polygon fill="none" points="163.41,328.37,142.37,330.86,157.27,315.79,163.41,328.37" style="stroke:#181818;stroke-width:1.0;"/></g><!--link ConfigurableListableBeanFactory to ListableBeanFactory--><g id="link_ConfigurableListableBeanFactory_ListableBeanFactory"><path codeLine="23" d="M572.05,163.31 C611.8,200.29 689.67,272.74 737.14,316.92 " fill="none" id="ConfigurableListableBeanFactory-to-ListableBeanFactory" style="stroke:#181818;stroke-width:1.0;"/><polygon fill="none" points="742.11,311.97,751.98,330.72,732.57,322.22,742.11,311.97" style="stroke:#181818;stroke-width:1.0;"/></g><!--link ConfigurableListableBeanFactory to AutowireCapableBeanFactory--><g id="link_ConfigurableListableBeanFactory_AutowireCapableBeanFactory"><path codeLine="24" d="M547.44,163.31 C548.1,198.6 549.36,266.2 550.19,310.69 " fill="none" id="ConfigurableListableBeanFactory-to-AutowireCapableBeanFactory" style="stroke:#181818;stroke-width:1.0;"/><polygon fill="none" points="557.19,310.59,550.56,330.72,543.19,310.85,557.19,310.59" style="stroke:#181818;stroke-width:1.0;"/></g><!--link ConfigurableListableBeanFactory to ConfigurableBeanFactory--><g id="link_ConfigurableListableBeanFactory_ConfigurableBeanFactory"><path codeLine="25" d="M496.01,163 C462.56,178.09 418.38,198.01 381.7,214.56 " fill="none" id="ConfigurableListableBeanFactory-to-ConfigurableBeanFactory" style="stroke:#181818;stroke-width:1.0;"/><polygon fill="none" points="384.41,221.02,363.3,222.86,378.65,208.26,384.41,221.02" style="stroke:#181818;stroke-width:1.0;"/></g><!--link DefaultListableBeanFactory to ConfigurableListableBeanFactory--><g id="link_DefaultListableBeanFactory_ConfigurableListableBeanFactory"><path codeLine="27" d="M546.22,55 C546.33,66.59 546.46,81.03 546.59,94.6 " fill="none" id="DefaultListableBeanFactory-to-ConfigurableListableBeanFactory" style="stroke:#181818;stroke-width:1.0;"/><polygon fill="none" points="553.59,94.61,546.78,114.68,539.59,94.75,553.59,94.61" style="stroke:#181818;stroke-width:1.0;"/></g><!--link StaticListableBeanFactory to ListableBeanFactory--><g id="link_StaticListableBeanFactory_ListableBeanFactory"><path codeLine="28" d="M782.57,55.16 C781.57,108.64 779.1,241.44 777.81,310.59 " fill="none" id="StaticListableBeanFactory-to-ListableBeanFactory" style="stroke:#181818;stroke-width:1.0;"/><polygon fill="none" points="784.81,310.75,777.44,330.62,770.81,310.49,784.81,310.75" style="stroke:#181818;stroke-width:1.0;"/></g><!--SRC=[ZP9H2i8m38RVUufUO5SGT28- -EHE44lQ1KehNOQ8UdSdWdDTCvRNV7z8_ZyK69C5Wtg740vWEAQxukYGMqpweVHGz8EEX0cIQSc0_nTCgMtFyKO9QxZ2nQCCdgZZd7YfiL_7OCdrAMVAH6bQTednq7LwZnPwpoL-X1e69bFUS2Z12LrLpyt4oyA4EIGxDcS5KxwW5D2YgA7WF78CdyuPtR1n9X6FAFcpIhZm8wlqqcieEToviBIzcBjyi7e3]--></g></svg>