<?xml version="1.0" encoding="us-ascii" standalone="no"?><svg xmlns="http://www.w3.org/2000/svg" xmlns:xlink="http://www.w3.org/1999/xlink" contentStyleType="text/css" height="710px" preserveAspectRatio="none" style="width:838px;height:710px;background:#FFFFFF;" version="1.1" viewBox="0 0 838 710" width="838px" zoomAndPan="magnify"><defs/><g><!--class DefaultListableBeanFactory--><g id="elem_DefaultListableBeanFactory"><rect codeLine="1" fill="#F1F1F1" height="48" id="DefaultListableBeanFactory" rx="2.5" ry="2.5" style="stroke:#181818;stroke-width:0.5;" width="207" x="464.5" y="7"/><ellipse cx="479.5" cy="23" fill="#ADD1B2" rx="11" ry="11" style="stroke:#181818;stroke-width:1.0;"/><path d="M478.8438,28.8594 Q476.8594,28.8594 475.6875,27.3906 Q474.5313,25.9063 474.5313,22.8281 Q474.5313,20.2188 475.75,18.4688 Q476.9844,16.7188 479.1094,16.7188 Q479.6094,16.7188 480.1406,16.8594 Q480.5781,17.0469 480.8438,17.0469 Q481.0625,17.0469 481.1563,17 Q481.2656,16.9531 481.7188,16.3594 L482.4844,20.0938 L481.5938,20.3594 Q481.1406,18.9063 480.5313,18.3125 Q479.9375,17.7031 478.9844,17.7031 Q477.7656,17.7031 477.0469,19.1406 Q476.3281,20.5625 476.3281,22.75 Q476.3281,25.1563 476.9375,26.4531 Q477.5625,27.7344 478.9219,27.7344 Q479.875,27.7344 480.5625,27.0469 Q481.25,26.3438 481.5781,24.8438 L482.4844,25.25 Q482.0781,26.9531 481.1094,27.9063 Q480.1563,28.8594 478.8438,28.8594 Z " fill="#000000"/><text fill="#000000" font-family="sans-serif" font-size="14" lengthAdjust="spacing" textLength="175" x="493.5" y="28.7969">DefaultListableBeanFactory</text><line style="stroke:#181818;stroke-width:0.5;" x1="465.5" x2="670.5" y1="39" y2="39"/><line style="stroke:#181818;stroke-width:0.5;" x1="465.5" x2="670.5" y1="47" y2="47"/></g><!--class AbstractAutowireCapableBeanFactory--><g id="elem_AbstractAutowireCapableBeanFactory"><rect codeLine="2" fill="#F1F1F1" height="48" id="AbstractAutowireCapableBeanFactory" rx="2.5" ry="2.5" style="stroke:#181818;stroke-width:0.5;" width="272" x="139" y="115"/><ellipse cx="154" cy="131" fill="#A9DCDF" rx="11" ry="11" style="stroke:#181818;stroke-width:1.0;"/><path d="M154.4219,131.4844 L151.8594,131.4844 L151.3281,133.7813 Q151.2656,134.1094 151.2656,134.2656 Q151.2656,134.4844 151.3125,134.6406 Q151.375,134.7969 151.6563,134.7969 L152.125,134.7969 L152.125,135.7344 L149.1406,135.7344 L149.1406,134.7969 L149.5938,134.7969 Q149.7656,134.7969 149.8906,134.7031 Q150.0156,134.5938 150.0625,134.2969 L152.7031,123.9688 L154.1094,123.5 L156.6875,134.2656 Q156.7969,134.5781 156.9219,134.6875 Q157.0625,134.7969 157.2344,134.7969 L157.7031,134.7969 L157.7031,135.7344 L154.3125,135.7344 L154.3125,134.7969 L154.8438,134.7969 Q155.0625,134.7969 155.0781,134.75 Q155.1094,134.6875 155.1094,134.6094 Q155.1094,134.3906 155.0625,134.2031 L154.4219,131.4844 Z M149.8594,135.3281 L149.8594,135.3281 Z M150.5313,135.3281 L150.5313,135.3281 Z M155.25,135.3281 L155.25,135.3281 Z M156.375,135.3281 L156.375,135.3281 Z M153.1875,125.3906 L153.25,125.3906 L152.1406,130.5469 L154.2344,130.5469 L153.1875,125.3906 Z " fill="#000000"/><text fill="#000000" font-family="sans-serif" font-size="14" font-style="italic" lengthAdjust="spacing" textLength="240" x="168" y="136.7969">AbstractAutowireCapableBeanFactory</text><line style="stroke:#181818;stroke-width:0.5;" x1="140" x2="410" y1="147" y2="147"/><line style="stroke:#181818;stroke-width:0.5;" x1="140" x2="410" y1="155" y2="155"/></g><!--class ConfigurableListableBeanFactory--><g id="elem_ConfigurableListableBeanFactory"><rect codeLine="3" fill="#F1F1F1" height="48" id="ConfigurableListableBeanFactory" rx="2.5" ry="2.5" style="stroke:#181818;stroke-width:0.5;" width="243" x="446.5" y="115"/><ellipse cx="461.5" cy="131" fill="#B4A7E5" rx="11" ry="11" style="stroke:#181818;stroke-width:1.0;"/><path d="M458.0938,125.7813 L458.0938,124.8438 L463.9375,124.8438 L463.9375,125.7813 L462.1406,125.7813 Q461.9688,125.7813 461.8906,125.8438 Q461.8125,125.9063 461.8125,126.0469 L461.8125,135.5313 Q461.8125,135.6719 461.8906,135.7344 Q461.9688,135.7969 462.1406,135.7969 L463.9375,135.7969 L463.9375,136.7344 L458.0938,136.7344 L458.0938,135.7969 L459.8906,135.7969 Q460.1094,135.7969 460.1563,135.75 Q460.2188,135.6875 460.2188,135.5313 L460.2188,126.0469 Q460.2188,125.8906 460.1563,125.8438 Q460.1094,125.7813 459.8906,125.7813 L458.0938,125.7813 Z " fill="#000000"/><text fill="#000000" font-family="sans-serif" font-size="14" font-style="italic" lengthAdjust="spacing" textLength="211" x="475.5" y="136.7969">ConfigurableListableBeanFactory</text><line style="stroke:#181818;stroke-width:0.5;" x1="447.5" x2="688.5" y1="147" y2="147"/><line style="stroke:#181818;stroke-width:0.5;" x1="447.5" x2="688.5" y1="155" y2="155"/></g><!--class BeanDefinitionRegistry--><g id="elem_BeanDefinitionRegistry"><rect codeLine="6" fill="#F1F1F1" height="48" id="BeanDefinitionRegistry" rx="2.5" ry="2.5" style="stroke:#181818;stroke-width:0.5;" width="176" x="655" y="439"/><ellipse cx="670" cy="455" fill="#B4A7E5" rx="11" ry="11" style="stroke:#181818;stroke-width:1.0;"/><path d="M666.5938,449.7813 L666.5938,448.8438 L672.4375,448.8438 L672.4375,449.7813 L670.6406,449.7813 Q670.4688,449.7813 670.3906,449.8438 Q670.3125,449.9063 670.3125,450.0469 L670.3125,459.5313 Q670.3125,459.6719 670.3906,459.7344 Q670.4688,459.7969 670.6406,459.7969 L672.4375,459.7969 L672.4375,460.7344 L666.5938,460.7344 L666.5938,459.7969 L668.3906,459.7969 Q668.6094,459.7969 668.6563,459.75 Q668.7188,459.6875 668.7188,459.5313 L668.7188,450.0469 Q668.7188,449.8906 668.6563,449.8438 Q668.6094,449.7813 668.3906,449.7813 L666.5938,449.7813 Z " fill="#000000"/><text fill="#000000" font-family="sans-serif" font-size="14" font-style="italic" lengthAdjust="spacing" textLength="144" x="684" y="460.7969">BeanDefinitionRegistry</text><line style="stroke:#181818;stroke-width:0.5;" x1="656" x2="830" y1="471" y2="471"/><line style="stroke:#181818;stroke-width:0.5;" x1="656" x2="830" y1="479" y2="479"/></g><!--class AliasRegistry--><g id="elem_AliasRegistry"><rect codeLine="5" fill="#F1F1F1" height="48" id="AliasRegistry" rx="2.5" ry="2.5" style="stroke:#181818;stroke-width:0.5;" width="114" x="603" y="655"/><ellipse cx="618" cy="671" fill="#B4A7E5" rx="11" ry="11" style="stroke:#181818;stroke-width:1.0;"/><path d="M614.5938,665.7813 L614.5938,664.8438 L620.4375,664.8438 L620.4375,665.7813 L618.6406,665.7813 Q618.4688,665.7813 618.3906,665.8438 Q618.3125,665.9063 618.3125,666.0469 L618.3125,675.5313 Q618.3125,675.6719 618.3906,675.7344 Q618.4688,675.7969 618.6406,675.7969 L620.4375,675.7969 L620.4375,676.7344 L614.5938,676.7344 L614.5938,675.7969 L616.3906,675.7969 Q616.6094,675.7969 616.6563,675.75 Q616.7188,675.6875 616.7188,675.5313 L616.7188,666.0469 Q616.7188,665.8906 616.6563,665.8438 Q616.6094,665.7813 616.3906,665.7813 L614.5938,665.7813 Z " fill="#000000"/><text fill="#000000" font-family="sans-serif" font-size="14" font-style="italic" lengthAdjust="spacing" textLength="82" x="632" y="676.7969">AliasRegistry</text><line style="stroke:#181818;stroke-width:0.5;" x1="604" x2="716" y1="687" y2="687"/><line style="stroke:#181818;stroke-width:0.5;" x1="604" x2="716" y1="695" y2="695"/></g><!--class HierarchicalBeanFactory--><g id="elem_HierarchicalBeanFactory"><rect codeLine="7" fill="#F1F1F1" height="48" id="HierarchicalBeanFactory" rx="2.5" ry="2.5" style="stroke:#181818;stroke-width:0.5;" width="188" x="104" y="331"/><ellipse cx="119" cy="347" fill="#B4A7E5" rx="11" ry="11" style="stroke:#181818;stroke-width:1.0;"/><path d="M115.5938,341.7813 L115.5938,340.8438 L121.4375,340.8438 L121.4375,341.7813 L119.6406,341.7813 Q119.4688,341.7813 119.3906,341.8438 Q119.3125,341.9063 119.3125,342.0469 L119.3125,351.5313 Q119.3125,351.6719 119.3906,351.7344 Q119.4688,351.7969 119.6406,351.7969 L121.4375,351.7969 L121.4375,352.7344 L115.5938,352.7344 L115.5938,351.7969 L117.3906,351.7969 Q117.6094,351.7969 117.6563,351.75 Q117.7188,351.6875 117.7188,351.5313 L117.7188,342.0469 Q117.7188,341.8906 117.6563,341.8438 Q117.6094,341.7813 117.3906,341.7813 L115.5938,341.7813 Z " fill="#000000"/><text fill="#000000" font-family="sans-serif" font-size="14" font-style="italic" lengthAdjust="spacing" textLength="156" x="133" y="352.7969">HierarchicalBeanFactory</text><line style="stroke:#181818;stroke-width:0.5;" x1="105" x2="291" y1="363" y2="363"/><line style="stroke:#181818;stroke-width:0.5;" x1="105" x2="291" y1="371" y2="371"/></g><!--class SingletonBeanRegistry--><g id="elem_SingletonBeanRegistry"><rect codeLine="8" fill="#F1F1F1" height="48" id="SingletonBeanRegistry" rx="2.5" ry="2.5" style="stroke:#181818;stroke-width:0.5;" width="176" x="290" y="547"/><ellipse cx="305" cy="563" fill="#B4A7E5" rx="11" ry="11" style="stroke:#181818;stroke-width:1.0;"/><path d="M301.5938,557.7813 L301.5938,556.8438 L307.4375,556.8438 L307.4375,557.7813 L305.6406,557.7813 Q305.4688,557.7813 305.3906,557.8438 Q305.3125,557.9063 305.3125,558.0469 L305.3125,567.5313 Q305.3125,567.6719 305.3906,567.7344 Q305.4688,567.7969 305.6406,567.7969 L307.4375,567.7969 L307.4375,568.7344 L301.5938,568.7344 L301.5938,567.7969 L303.3906,567.7969 Q303.6094,567.7969 303.6563,567.75 Q303.7188,567.6875 303.7188,567.5313 L303.7188,558.0469 Q303.7188,557.8906 303.6563,557.8438 Q303.6094,557.7813 303.3906,557.7813 L301.5938,557.7813 Z " fill="#000000"/><text fill="#000000" font-family="sans-serif" font-size="14" font-style="italic" lengthAdjust="spacing" textLength="144" x="319" y="568.7969">SingletonBeanRegistry</text><line style="stroke:#181818;stroke-width:0.5;" x1="291" x2="465" y1="579" y2="579"/><line style="stroke:#181818;stroke-width:0.5;" x1="291" x2="465" y1="587" y2="587"/></g><!--class AutowireCapableBeanFactory--><g id="elem_AutowireCapableBeanFactory"><rect codeLine="9" fill="#F1F1F1" height="48" id="AutowireCapableBeanFactory" rx="2.5" ry="2.5" style="stroke:#181818;stroke-width:0.5;" width="220" x="7" y="223"/><ellipse cx="22" cy="239" fill="#B4A7E5" rx="11" ry="11" style="stroke:#181818;stroke-width:1.0;"/><path d="M18.5938,233.7813 L18.5938,232.8438 L24.4375,232.8438 L24.4375,233.7813 L22.6406,233.7813 Q22.4688,233.7813 22.3906,233.8438 Q22.3125,233.9063 22.3125,234.0469 L22.3125,243.5313 Q22.3125,243.6719 22.3906,243.7344 Q22.4688,243.7969 22.6406,243.7969 L24.4375,243.7969 L24.4375,244.7344 L18.5938,244.7344 L18.5938,243.7969 L20.3906,243.7969 Q20.6094,243.7969 20.6563,243.75 Q20.7188,243.6875 20.7188,243.5313 L20.7188,234.0469 Q20.7188,233.8906 20.6563,233.8438 Q20.6094,233.7813 20.3906,233.7813 L18.5938,233.7813 Z " fill="#000000"/><text fill="#000000" font-family="sans-serif" font-size="14" font-style="italic" lengthAdjust="spacing" textLength="188" x="36" y="244.7969">AutowireCapableBeanFactory</text><line style="stroke:#181818;stroke-width:0.5;" x1="8" x2="226" y1="255" y2="255"/><line style="stroke:#181818;stroke-width:0.5;" x1="8" x2="226" y1="263" y2="263"/></g><!--class AbstractBeanFactory--><g id="elem_AbstractBeanFactory"><rect codeLine="10" fill="#F1F1F1" height="48" id="AbstractBeanFactory" rx="2.5" ry="2.5" style="stroke:#181818;stroke-width:0.5;" width="165" x="262.5" y="223"/><ellipse cx="277.5" cy="239" fill="#A9DCDF" rx="11" ry="11" style="stroke:#181818;stroke-width:1.0;"/><path d="M277.9219,239.4844 L275.3594,239.4844 L274.8281,241.7813 Q274.7656,242.1094 274.7656,242.2656 Q274.7656,242.4844 274.8125,242.6406 Q274.875,242.7969 275.1563,242.7969 L275.625,242.7969 L275.625,243.7344 L272.6406,243.7344 L272.6406,242.7969 L273.0938,242.7969 Q273.2656,242.7969 273.3906,242.7031 Q273.5156,242.5938 273.5625,242.2969 L276.2031,231.9688 L277.6094,231.5 L280.1875,242.2656 Q280.2969,242.5781 280.4219,242.6875 Q280.5625,242.7969 280.7344,242.7969 L281.2031,242.7969 L281.2031,243.7344 L277.8125,243.7344 L277.8125,242.7969 L278.3438,242.7969 Q278.5625,242.7969 278.5781,242.75 Q278.6094,242.6875 278.6094,242.6094 Q278.6094,242.3906 278.5625,242.2031 L277.9219,239.4844 Z M273.3594,243.3281 L273.3594,243.3281 Z M274.0313,243.3281 L274.0313,243.3281 Z M278.75,243.3281 L278.75,243.3281 Z M279.875,243.3281 L279.875,243.3281 Z M276.6875,233.3906 L276.75,233.3906 L275.6406,238.5469 L277.7344,238.5469 L276.6875,233.3906 Z " fill="#000000"/><text fill="#000000" font-family="sans-serif" font-size="14" font-style="italic" lengthAdjust="spacing" textLength="133" x="291.5" y="244.7969">AbstractBeanFactory</text><line style="stroke:#181818;stroke-width:0.5;" x1="263.5" x2="426.5" y1="255" y2="255"/><line style="stroke:#181818;stroke-width:0.5;" x1="263.5" x2="426.5" y1="263" y2="263"/></g><!--class FactoryBeanRegistrySupport--><g id="elem_FactoryBeanRegistrySupport"><rect codeLine="11" fill="#F1F1F1" height="48" id="FactoryBeanRegistrySupport" rx="2.5" ry="2.5" style="stroke:#181818;stroke-width:0.5;" width="215" x="400.5" y="331"/><ellipse cx="415.5" cy="347" fill="#A9DCDF" rx="11" ry="11" style="stroke:#181818;stroke-width:1.0;"/><path d="M415.9219,347.4844 L413.3594,347.4844 L412.8281,349.7813 Q412.7656,350.1094 412.7656,350.2656 Q412.7656,350.4844 412.8125,350.6406 Q412.875,350.7969 413.1563,350.7969 L413.625,350.7969 L413.625,351.7344 L410.6406,351.7344 L410.6406,350.7969 L411.0938,350.7969 Q411.2656,350.7969 411.3906,350.7031 Q411.5156,350.5938 411.5625,350.2969 L414.2031,339.9688 L415.6094,339.5 L418.1875,350.2656 Q418.2969,350.5781 418.4219,350.6875 Q418.5625,350.7969 418.7344,350.7969 L419.2031,350.7969 L419.2031,351.7344 L415.8125,351.7344 L415.8125,350.7969 L416.3438,350.7969 Q416.5625,350.7969 416.5781,350.75 Q416.6094,350.6875 416.6094,350.6094 Q416.6094,350.3906 416.5625,350.2031 L415.9219,347.4844 Z M411.3594,351.3281 L411.3594,351.3281 Z M412.0313,351.3281 L412.0313,351.3281 Z M416.75,351.3281 L416.75,351.3281 Z M417.875,351.3281 L417.875,351.3281 Z M414.6875,341.3906 L414.75,341.3906 L413.6406,346.5469 L415.7344,346.5469 L414.6875,341.3906 Z " fill="#000000"/><text fill="#000000" font-family="sans-serif" font-size="14" font-style="italic" lengthAdjust="spacing" textLength="183" x="429.5" y="352.7969">FactoryBeanRegistrySupport</text><line style="stroke:#181818;stroke-width:0.5;" x1="401.5" x2="614.5" y1="363" y2="363"/><line style="stroke:#181818;stroke-width:0.5;" x1="401.5" x2="614.5" y1="371" y2="371"/></g><!--class DefaultSingletonBeanRegistry--><g id="elem_DefaultSingletonBeanRegistry"><rect codeLine="12" fill="#F1F1F1" height="48" id="DefaultSingletonBeanRegistry" rx="2.5" ry="2.5" style="stroke:#181818;stroke-width:0.5;" width="221" x="398.5" y="439"/><ellipse cx="413.5" cy="455" fill="#ADD1B2" rx="11" ry="11" style="stroke:#181818;stroke-width:1.0;"/><path d="M412.8438,460.8594 Q410.8594,460.8594 409.6875,459.3906 Q408.5313,457.9063 408.5313,454.8281 Q408.5313,452.2188 409.75,450.4688 Q410.9844,448.7188 413.1094,448.7188 Q413.6094,448.7188 414.1406,448.8594 Q414.5781,449.0469 414.8438,449.0469 Q415.0625,449.0469 415.1563,449 Q415.2656,448.9531 415.7188,448.3594 L416.4844,452.0938 L415.5938,452.3594 Q415.1406,450.9063 414.5313,450.3125 Q413.9375,449.7031 412.9844,449.7031 Q411.7656,449.7031 411.0469,451.1406 Q410.3281,452.5625 410.3281,454.75 Q410.3281,457.1563 410.9375,458.4531 Q411.5625,459.7344 412.9219,459.7344 Q413.875,459.7344 414.5625,459.0469 Q415.25,458.3438 415.5781,456.8438 L416.4844,457.25 Q416.0781,458.9531 415.1094,459.9063 Q414.1563,460.8594 412.8438,460.8594 Z " fill="#000000"/><text fill="#000000" font-family="sans-serif" font-size="14" lengthAdjust="spacing" textLength="189" x="427.5" y="460.7969">DefaultSingletonBeanRegistry</text><line style="stroke:#181818;stroke-width:0.5;" x1="399.5" x2="618.5" y1="471" y2="471"/><line style="stroke:#181818;stroke-width:0.5;" x1="399.5" x2="618.5" y1="479" y2="479"/></g><!--class SimpleAliasRegistry--><g id="elem_SimpleAliasRegistry"><rect codeLine="13" fill="#F1F1F1" height="48" id="SimpleAliasRegistry" rx="2.5" ry="2.5" style="stroke:#181818;stroke-width:0.5;" width="156" x="517" y="547"/><ellipse cx="532" cy="563" fill="#ADD1B2" rx="11" ry="11" style="stroke:#181818;stroke-width:1.0;"/><path d="M531.3438,568.8594 Q529.3594,568.8594 528.1875,567.3906 Q527.0313,565.9063 527.0313,562.8281 Q527.0313,560.2188 528.25,558.4688 Q529.4844,556.7188 531.6094,556.7188 Q532.1094,556.7188 532.6406,556.8594 Q533.0781,557.0469 533.3438,557.0469 Q533.5625,557.0469 533.6563,557 Q533.7656,556.9531 534.2188,556.3594 L534.9844,560.0938 L534.0938,560.3594 Q533.6406,558.9063 533.0313,558.3125 Q532.4375,557.7031 531.4844,557.7031 Q530.2656,557.7031 529.5469,559.1406 Q528.8281,560.5625 528.8281,562.75 Q528.8281,565.1563 529.4375,566.4531 Q530.0625,567.7344 531.4219,567.7344 Q532.375,567.7344 533.0625,567.0469 Q533.75,566.3438 534.0781,564.8438 L534.9844,565.25 Q534.5781,566.9531 533.6094,567.9063 Q532.6563,568.8594 531.3438,568.8594 Z " fill="#000000"/><text fill="#000000" font-family="sans-serif" font-size="14" lengthAdjust="spacing" textLength="124" x="546" y="568.7969">SimpleAliasRegistry</text><line style="stroke:#181818;stroke-width:0.5;" x1="518" x2="672" y1="579" y2="579"/><line style="stroke:#181818;stroke-width:0.5;" x1="518" x2="672" y1="587" y2="587"/></g><!--link DefaultListableBeanFactory to AbstractAutowireCapableBeanFactory--><g id="link_DefaultListableBeanFactory_AbstractAutowireCapableBeanFactory"><path codeLine="15" d="M504.42,55 C461.4,70.57 404.15,91.28 357.6,108.12 " fill="none" id="DefaultListableBeanFactory-to-AbstractAutowireCapableBeanFactory" style="stroke:#181818;stroke-width:1.0;"/><polygon fill="none" points="359.89,114.73,338.71,114.95,355.13,101.57,359.89,114.73" style="stroke:#181818;stroke-width:1.0;"/></g><!--link DefaultListableBeanFactory to BeanDefinitionRegistry--><g id="link_DefaultListableBeanFactory_BeanDefinitionRegistry"><path codeLine="17" d="M632.23,55 C659.8,68.23 689.61,87.75 707,115 C767.26,209.45 759.23,348.58 750.14,418.51 " fill="none" id="DefaultListableBeanFactory-to-BeanDefinitionRegistry" style="stroke:#181818;stroke-width:1.0;"/><polygon fill="none" points="757.02,419.84,747.23,438.63,743.16,417.84,757.02,419.84" style="stroke:#181818;stroke-width:1.0;"/></g><!--link BeanDefinitionRegistry to AliasRegistry--><g id="link_BeanDefinitionRegistry_AliasRegistry"><path codeLine="18" d="M733.96,487.31 C720.15,522.93 693.57,591.44 676.33,635.91 " fill="none" id="BeanDefinitionRegistry-to-AliasRegistry" style="stroke:#181818;stroke-width:1.0;"/><polygon fill="none" points="682.79,638.6,669.03,654.72,669.74,633.54,682.79,638.6" style="stroke:#181818;stroke-width:1.0;"/></g><!--link DefaultListableBeanFactory to ConfigurableListableBeanFactory--><g id="link_DefaultListableBeanFactory_ConfigurableListableBeanFactory"><path codeLine="20" d="M568,55 C568,66.59 568,81.03 568,94.6 " fill="none" id="DefaultListableBeanFactory-to-ConfigurableListableBeanFactory" style="stroke:#181818;stroke-width:1.0;"/><polygon fill="none" points="575,94.68,568,114.68,561,94.68,575,94.68" style="stroke:#181818;stroke-width:1.0;"/></g><!--link AbstractAutowireCapableBeanFactory to AutowireCapableBeanFactory--><g id="link_AbstractAutowireCapableBeanFactory_AutowireCapableBeanFactory"><path codeLine="22" d="M240.72,163 C219.57,177.19 192.04,195.66 168.33,211.57 " fill="none" id="AbstractAutowireCapableBeanFactory-to-AutowireCapableBeanFactory" style="stroke:#181818;stroke-width:1.0;"/><polygon fill="none" points="172,217.53,151.49,222.86,164.2,205.91,172,217.53" style="stroke:#181818;stroke-width:1.0;"/></g><!--link AbstractAutowireCapableBeanFactory to AbstractBeanFactory--><g id="link_AbstractAutowireCapableBeanFactory_AbstractBeanFactory"><path codeLine="23" d="M290.19,163 C298.48,175.55 308.98,191.46 318.57,205.97 " fill="none" id="AbstractAutowireCapableBeanFactory-to-AbstractBeanFactory" style="stroke:#181818;stroke-width:1.0;"/><polygon fill="none" points="324.42,202.13,329.6,222.68,312.74,209.85,324.42,202.13" style="stroke:#181818;stroke-width:1.0;"/></g><!--link AbstractBeanFactory to FactoryBeanRegistrySupport--><g id="link_AbstractBeanFactory_FactoryBeanRegistrySupport"><path codeLine="24" d="M380.37,271 C402.29,285.26 430.86,303.84 455.41,319.8 " fill="none" id="AbstractBeanFactory-to-FactoryBeanRegistrySupport" style="stroke:#181818;stroke-width:1.0;"/><polygon fill="none" points="459.47,314.09,472.42,330.86,451.84,325.83,459.47,314.09" style="stroke:#181818;stroke-width:1.0;"/></g><!--link FactoryBeanRegistrySupport to DefaultSingletonBeanRegistry--><g id="link_FactoryBeanRegistrySupport_DefaultSingletonBeanRegistry"><path codeLine="25" d="M508.22,379 C508.33,390.59 508.46,405.03 508.59,418.6 " fill="none" id="FactoryBeanRegistrySupport-to-DefaultSingletonBeanRegistry" style="stroke:#181818;stroke-width:1.0;"/><polygon fill="none" points="515.59,418.61,508.78,438.68,501.59,418.75,515.59,418.61" style="stroke:#181818;stroke-width:1.0;"/></g><!--link DefaultSingletonBeanRegistry to SingletonBeanRegistry--><g id="link_DefaultSingletonBeanRegistry_SingletonBeanRegistry"><path codeLine="26" d="M480.57,487 C463.61,500.73 441.7,518.46 422.49,534 " fill="none" id="DefaultSingletonBeanRegistry-to-SingletonBeanRegistry" style="stroke:#181818;stroke-width:1.0;"/><polygon fill="none" points="426.77,539.54,406.82,546.68,417.97,528.66,426.77,539.54" style="stroke:#181818;stroke-width:1.0;"/></g><!--link DefaultSingletonBeanRegistry to SimpleAliasRegistry--><g id="link_DefaultSingletonBeanRegistry_SimpleAliasRegistry"><path codeLine="27" d="M527.66,487 C538.07,499.83 551.32,516.16 563.3,530.93 " fill="none" id="DefaultSingletonBeanRegistry-to-SimpleAliasRegistry" style="stroke:#181818;stroke-width:1.0;"/><polygon fill="none" points="568.91,526.74,576.08,546.68,558.04,535.56,568.91,526.74" style="stroke:#181818;stroke-width:1.0;"/></g><!--link SimpleAliasRegistry to AliasRegistry--><g id="link_SimpleAliasRegistry_AliasRegistry"><path codeLine="28" d="M609.1,595 C616.72,607.42 626.34,623.11 635.16,637.49 " fill="none" id="SimpleAliasRegistry-to-AliasRegistry" style="stroke:#181818;stroke-width:1.0;"/><polygon fill="none" points="641.21,633.97,645.7,654.68,629.28,641.29,641.21,633.97" style="stroke:#181818;stroke-width:1.0;"/></g><!--link AbstractBeanFactory to HierarchicalBeanFactory--><g id="link_AbstractBeanFactory_HierarchicalBeanFactory"><path codeLine="30" d="M313.1,271 C293.62,285.05 268.32,303.3 246.4,319.1 " fill="none" id="AbstractBeanFactory-to-HierarchicalBeanFactory" style="stroke:#181818;stroke-width:1.0;"/><polygon fill="none" points="250.4,324.84,230.09,330.86,242.22,313.49,250.4,324.84" style="stroke:#181818;stroke-width:1.0;"/></g><!--link AbstractBeanFactory to SingletonBeanRegistry--><g id="link_AbstractBeanFactory_SingletonBeanRegistry"><path codeLine="31" d="M347.37,271.16 C352.85,324.64 366.46,457.44 373.55,526.59 " fill="none" id="AbstractBeanFactory-to-SingletonBeanRegistry" style="stroke:#181818;stroke-width:1.0;"/><polygon fill="none" points="380.53,526.01,375.6,546.62,366.6,527.44,380.53,526.01" style="stroke:#181818;stroke-width:1.0;"/></g><!--SRC=[dLDB3e8m4Drp2YxW5KnGOrouaXECpO2Jr9QqGuo9XnU4HD0PG7Vjc_VczrfZ8SPqXmNKbeyK6SuMDmXk3uPzk2TmZXoQSsfUpAo_PZNx6mNSGlMf8CSO2Z2ORhqhgAn3ov1olvajsZH1ZfYyEs7Pi4U4p1940PyL7WW317CX0rQkdPChBR9tRLWghO-gB6U2qiF3KdbTLJvmOePMo4rrb9okbSNnHXBTmdIrUgoN63URGrcs3FTbV-joxiKaysFqTVKnbwOGxHImZZrXh1xgf9EMJmKx-V-wxsSaOAAFwXgqxwOAn0QV]--></g></svg>