<?xml version="1.0" encoding="us-ascii" standalone="no"?><svg xmlns="http://www.w3.org/2000/svg" xmlns:xlink="http://www.w3.org/1999/xlink" contentStyleType="text/css" height="386px" preserveAspectRatio="none" style="width:2034px;height:386px;background:#FFFFFF;" version="1.1" viewBox="0 0 2034 386" width="2034px" zoomAndPan="magnify"><defs/><g><!--class FilteringSpringBootCondition--><g id="elem_FilteringSpringBootCondition"><rect codeLine="3" fill="#F1F1F1" height="48" id="FilteringSpringBootCondition" rx="2.5" ry="2.5" style="stroke:#181818;stroke-width:0.5;" width="213" x="309" y="115"/><ellipse cx="324" cy="131" fill="#B4A7E5" rx="11" ry="11" style="stroke:#181818;stroke-width:1.0;"/><path d="M320.5938,125.7813 L320.5938,124.8438 L326.4375,124.8438 L326.4375,125.7813 L324.6406,125.7813 Q324.4688,125.7813 324.3906,125.8438 Q324.3125,125.9063 324.3125,126.0469 L324.3125,135.5313 Q324.3125,135.6719 324.3906,135.7344 Q324.4688,135.7969 324.6406,135.7969 L326.4375,135.7969 L326.4375,136.7344 L320.5938,136.7344 L320.5938,135.7969 L322.3906,135.7969 Q322.6094,135.7969 322.6563,135.75 Q322.7188,135.6875 322.7188,135.5313 L322.7188,126.0469 Q322.7188,125.8906 322.6563,125.8438 Q322.6094,125.7813 322.3906,125.7813 L320.5938,125.7813 Z " fill="#000000"/><text fill="#000000" font-family="sans-serif" font-size="14" font-style="italic" lengthAdjust="spacing" textLength="181" x="338" y="136.7969">FilteringSpringBootCondition</text><line style="stroke:#181818;stroke-width:0.5;" x1="310" x2="521" y1="147" y2="147"/><line style="stroke:#181818;stroke-width:0.5;" x1="310" x2="521" y1="155" y2="155"/></g><!--class SpringBootCondition--><g id="elem_SpringBootCondition"><rect codeLine="4" fill="#F1F1F1" height="48" id="SpringBootCondition" rx="2.5" ry="2.5" style="stroke:#181818;stroke-width:0.5;" width="162" x="959.5" y="223"/><ellipse cx="974.5" cy="239" fill="#B4A7E5" rx="11" ry="11" style="stroke:#181818;stroke-width:1.0;"/><path d="M971.0938,233.7813 L971.0938,232.8438 L976.9375,232.8438 L976.9375,233.7813 L975.1406,233.7813 Q974.9688,233.7813 974.8906,233.8438 Q974.8125,233.9063 974.8125,234.0469 L974.8125,243.5313 Q974.8125,243.6719 974.8906,243.7344 Q974.9688,243.7969 975.1406,243.7969 L976.9375,243.7969 L976.9375,244.7344 L971.0938,244.7344 L971.0938,243.7969 L972.8906,243.7969 Q973.1094,243.7969 973.1563,243.75 Q973.2188,243.6875 973.2188,243.5313 L973.2188,234.0469 Q973.2188,233.8906 973.1563,233.8438 Q973.1094,233.7813 972.8906,233.7813 L971.0938,233.7813 Z " fill="#000000"/><text fill="#000000" font-family="sans-serif" font-size="14" font-style="italic" lengthAdjust="spacing" textLength="130" x="988.5" y="244.7969">SpringBootCondition</text><line style="stroke:#181818;stroke-width:0.5;" x1="960.5" x2="1120.5" y1="255" y2="255"/><line style="stroke:#181818;stroke-width:0.5;" x1="960.5" x2="1120.5" y1="263" y2="263"/></g><!--class AutoConfigurationImportFilter--><g id="elem_AutoConfigurationImportFilter"><rect codeLine="5" fill="#F1F1F1" height="48" id="AutoConfigurationImportFilter" rx="2.5" ry="2.5" style="stroke:#181818;stroke-width:0.5;" width="218" x="306.5" y="223"/><ellipse cx="321.5" cy="239" fill="#B4A7E5" rx="11" ry="11" style="stroke:#181818;stroke-width:1.0;"/><path d="M318.0938,233.7813 L318.0938,232.8438 L323.9375,232.8438 L323.9375,233.7813 L322.1406,233.7813 Q321.9688,233.7813 321.8906,233.8438 Q321.8125,233.9063 321.8125,234.0469 L321.8125,243.5313 Q321.8125,243.6719 321.8906,243.7344 Q321.9688,243.7969 322.1406,243.7969 L323.9375,243.7969 L323.9375,244.7344 L318.0938,244.7344 L318.0938,243.7969 L319.8906,243.7969 Q320.1094,243.7969 320.1563,243.75 Q320.2188,243.6875 320.2188,243.5313 L320.2188,234.0469 Q320.2188,233.8906 320.1563,233.8438 Q320.1094,233.7813 319.8906,233.7813 L318.0938,233.7813 Z " fill="#000000"/><text fill="#000000" font-family="sans-serif" font-size="14" font-style="italic" lengthAdjust="spacing" textLength="186" x="335.5" y="244.7969">AutoConfigurationImportFilter</text><line style="stroke:#181818;stroke-width:0.5;" x1="307.5" x2="523.5" y1="255" y2="255"/><line style="stroke:#181818;stroke-width:0.5;" x1="307.5" x2="523.5" y1="263" y2="263"/></g><!--class BeanFactoryAware--><g id="elem_BeanFactoryAware"><rect codeLine="6" fill="#F1F1F1" height="48" id="BeanFactoryAware" rx="2.5" ry="2.5" style="stroke:#181818;stroke-width:0.5;" width="152" x="559.5" y="223"/><ellipse cx="574.5" cy="239" fill="#B4A7E5" rx="11" ry="11" style="stroke:#181818;stroke-width:1.0;"/><path d="M571.0938,233.7813 L571.0938,232.8438 L576.9375,232.8438 L576.9375,233.7813 L575.1406,233.7813 Q574.9688,233.7813 574.8906,233.8438 Q574.8125,233.9063 574.8125,234.0469 L574.8125,243.5313 Q574.8125,243.6719 574.8906,243.7344 Q574.9688,243.7969 575.1406,243.7969 L576.9375,243.7969 L576.9375,244.7344 L571.0938,244.7344 L571.0938,243.7969 L572.8906,243.7969 Q573.1094,243.7969 573.1563,243.75 Q573.2188,243.6875 573.2188,243.5313 L573.2188,234.0469 Q573.2188,233.8906 573.1563,233.8438 Q573.1094,233.7813 572.8906,233.7813 L571.0938,233.7813 Z " fill="#000000"/><text fill="#000000" font-family="sans-serif" font-size="14" font-style="italic" lengthAdjust="spacing" textLength="120" x="588.5" y="244.7969">BeanFactoryAware</text><line style="stroke:#181818;stroke-width:0.5;" x1="560.5" x2="710.5" y1="255" y2="255"/><line style="stroke:#181818;stroke-width:0.5;" x1="560.5" x2="710.5" y1="263" y2="263"/></g><!--class BeanClassLoaderAware--><g id="elem_BeanClassLoaderAware"><rect codeLine="7" fill="#F1F1F1" height="48" id="BeanClassLoaderAware" rx="2.5" ry="2.5" style="stroke:#181818;stroke-width:0.5;" width="184" x="87.5" y="223"/><ellipse cx="102.5" cy="239" fill="#B4A7E5" rx="11" ry="11" style="stroke:#181818;stroke-width:1.0;"/><path d="M99.0938,233.7813 L99.0938,232.8438 L104.9375,232.8438 L104.9375,233.7813 L103.1406,233.7813 Q102.9688,233.7813 102.8906,233.8438 Q102.8125,233.9063 102.8125,234.0469 L102.8125,243.5313 Q102.8125,243.6719 102.8906,243.7344 Q102.9688,243.7969 103.1406,243.7969 L104.9375,243.7969 L104.9375,244.7344 L99.0938,244.7344 L99.0938,243.7969 L100.8906,243.7969 Q101.1094,243.7969 101.1563,243.75 Q101.2188,243.6875 101.2188,243.5313 L101.2188,234.0469 Q101.2188,233.8906 101.1563,233.8438 Q101.1094,233.7813 100.8906,233.7813 L99.0938,233.7813 Z " fill="#000000"/><text fill="#000000" font-family="sans-serif" font-size="14" font-style="italic" lengthAdjust="spacing" textLength="152" x="116.5" y="244.7969">BeanClassLoaderAware</text><line style="stroke:#181818;stroke-width:0.5;" x1="88.5" x2="270.5" y1="255" y2="255"/><line style="stroke:#181818;stroke-width:0.5;" x1="88.5" x2="270.5" y1="263" y2="263"/></g><!--class ConfigurationCondition--><g id="elem_ConfigurationCondition"><rect codeLine="8" fill="#F1F1F1" height="48" id="ConfigurationCondition" rx="2.5" ry="2.5" style="stroke:#181818;stroke-width:0.5;" width="177" x="747" y="223"/><ellipse cx="762" cy="239" fill="#B4A7E5" rx="11" ry="11" style="stroke:#181818;stroke-width:1.0;"/><path d="M758.5938,233.7813 L758.5938,232.8438 L764.4375,232.8438 L764.4375,233.7813 L762.6406,233.7813 Q762.4688,233.7813 762.3906,233.8438 Q762.3125,233.9063 762.3125,234.0469 L762.3125,243.5313 Q762.3125,243.6719 762.3906,243.7344 Q762.4688,243.7969 762.6406,243.7969 L764.4375,243.7969 L764.4375,244.7344 L758.5938,244.7344 L758.5938,243.7969 L760.3906,243.7969 Q760.6094,243.7969 760.6563,243.75 Q760.7188,243.6875 760.7188,243.5313 L760.7188,234.0469 Q760.7188,233.8906 760.6563,233.8438 Q760.6094,233.7813 760.3906,233.7813 L758.5938,233.7813 Z " fill="#000000"/><text fill="#000000" font-family="sans-serif" font-size="14" font-style="italic" lengthAdjust="spacing" textLength="145" x="776" y="244.7969">ConfigurationCondition</text><line style="stroke:#181818;stroke-width:0.5;" x1="748" x2="923" y1="255" y2="255"/><line style="stroke:#181818;stroke-width:0.5;" x1="748" x2="923" y1="263" y2="263"/></g><!--class Condition--><g id="elem_Condition"><rect codeLine="9" fill="#F1F1F1" height="48" id="Condition" rx="2.5" ry="2.5" style="stroke:#181818;stroke-width:0.5;" width="92" x="891.5" y="331"/><ellipse cx="906.5" cy="347" fill="#B4A7E5" rx="11" ry="11" style="stroke:#181818;stroke-width:1.0;"/><path d="M903.0938,341.7813 L903.0938,340.8438 L908.9375,340.8438 L908.9375,341.7813 L907.1406,341.7813 Q906.9688,341.7813 906.8906,341.8438 Q906.8125,341.9063 906.8125,342.0469 L906.8125,351.5313 Q906.8125,351.6719 906.8906,351.7344 Q906.9688,351.7969 907.1406,351.7969 L908.9375,351.7969 L908.9375,352.7344 L903.0938,352.7344 L903.0938,351.7969 L904.8906,351.7969 Q905.1094,351.7969 905.1563,351.75 Q905.2188,351.6875 905.2188,351.5313 L905.2188,342.0469 Q905.2188,341.8906 905.1563,341.8438 Q905.1094,341.7813 904.8906,341.7813 L903.0938,341.7813 Z " fill="#000000"/><text fill="#000000" font-family="sans-serif" font-size="14" font-style="italic" lengthAdjust="spacing" textLength="60" x="920.5" y="352.7969">Condition</text><line style="stroke:#181818;stroke-width:0.5;" x1="892.5" x2="982.5" y1="363" y2="363"/><line style="stroke:#181818;stroke-width:0.5;" x1="892.5" x2="982.5" y1="371" y2="371"/></g><!--class OnClassCondition--><g id="elem_OnClassCondition"><rect codeLine="13" fill="#F1F1F1" height="48" id="OnClassCondition" rx="2.5" ry="2.5" style="stroke:#181818;stroke-width:0.5;" width="146" x="251.5" y="7"/><ellipse cx="266.5" cy="23" fill="#ADD1B2" rx="11" ry="11" style="stroke:#181818;stroke-width:1.0;"/><path d="M265.8438,28.8594 Q263.8594,28.8594 262.6875,27.3906 Q261.5313,25.9063 261.5313,22.8281 Q261.5313,20.2188 262.75,18.4688 Q263.9844,16.7188 266.1094,16.7188 Q266.6094,16.7188 267.1406,16.8594 Q267.5781,17.0469 267.8438,17.0469 Q268.0625,17.0469 268.1563,17 Q268.2656,16.9531 268.7188,16.3594 L269.4844,20.0938 L268.5938,20.3594 Q268.1406,18.9063 267.5313,18.3125 Q266.9375,17.7031 265.9844,17.7031 Q264.7656,17.7031 264.0469,19.1406 Q263.3281,20.5625 263.3281,22.75 Q263.3281,25.1563 263.9375,26.4531 Q264.5625,27.7344 265.9219,27.7344 Q266.875,27.7344 267.5625,27.0469 Q268.25,26.3438 268.5781,24.8438 L269.4844,25.25 Q269.0781,26.9531 268.1094,27.9063 Q267.1563,28.8594 265.8438,28.8594 Z " fill="#000000"/><text fill="#000000" font-family="sans-serif" font-size="14" lengthAdjust="spacing" textLength="114" x="280.5" y="28.7969">OnClassCondition</text><line style="stroke:#181818;stroke-width:0.5;" x1="252.5" x2="396.5" y1="39" y2="39"/><line style="stroke:#181818;stroke-width:0.5;" x1="252.5" x2="396.5" y1="47" y2="47"/></g><!--class OnBeanCondition--><g id="elem_OnBeanCondition"><rect codeLine="14" fill="#F1F1F1" height="48" id="OnBeanCondition" rx="2.5" ry="2.5" style="stroke:#181818;stroke-width:0.5;" width="144" x="432.5" y="7"/><ellipse cx="447.5" cy="23" fill="#ADD1B2" rx="11" ry="11" style="stroke:#181818;stroke-width:1.0;"/><path d="M446.8438,28.8594 Q444.8594,28.8594 443.6875,27.3906 Q442.5313,25.9063 442.5313,22.8281 Q442.5313,20.2188 443.75,18.4688 Q444.9844,16.7188 447.1094,16.7188 Q447.6094,16.7188 448.1406,16.8594 Q448.5781,17.0469 448.8438,17.0469 Q449.0625,17.0469 449.1563,17 Q449.2656,16.9531 449.7188,16.3594 L450.4844,20.0938 L449.5938,20.3594 Q449.1406,18.9063 448.5313,18.3125 Q447.9375,17.7031 446.9844,17.7031 Q445.7656,17.7031 445.0469,19.1406 Q444.3281,20.5625 444.3281,22.75 Q444.3281,25.1563 444.9375,26.4531 Q445.5625,27.7344 446.9219,27.7344 Q447.875,27.7344 448.5625,27.0469 Q449.25,26.3438 449.5781,24.8438 L450.4844,25.25 Q450.0781,26.9531 449.1094,27.9063 Q448.1563,28.8594 446.8438,28.8594 Z " fill="#000000"/><text fill="#000000" font-family="sans-serif" font-size="14" lengthAdjust="spacing" textLength="112" x="461.5" y="28.7969">OnBeanCondition</text><line style="stroke:#181818;stroke-width:0.5;" x1="433.5" x2="575.5" y1="39" y2="39"/><line style="stroke:#181818;stroke-width:0.5;" x1="433.5" x2="575.5" y1="47" y2="47"/></g><!--class OnCloudPlatformCondition--><g id="elem_OnCloudPlatformCondition"><rect codeLine="15" fill="#F1F1F1" height="48" id="OnCloudPlatformCondition" rx="2.5" ry="2.5" style="stroke:#181818;stroke-width:0.5;" width="200" x="1612.5" y="7"/><ellipse cx="1627.5" cy="23" fill="#ADD1B2" rx="11" ry="11" style="stroke:#181818;stroke-width:1.0;"/><path d="M1626.8438,28.8594 Q1624.8594,28.8594 1623.6875,27.3906 Q1622.5313,25.9063 1622.5313,22.8281 Q1622.5313,20.2188 1623.75,18.4688 Q1624.9844,16.7188 1627.1094,16.7188 Q1627.6094,16.7188 1628.1406,16.8594 Q1628.5781,17.0469 1628.8438,17.0469 Q1629.0625,17.0469 1629.1563,17 Q1629.2656,16.9531 1629.7188,16.3594 L1630.4844,20.0938 L1629.5938,20.3594 Q1629.1406,18.9063 1628.5313,18.3125 Q1627.9375,17.7031 1626.9844,17.7031 Q1625.7656,17.7031 1625.0469,19.1406 Q1624.3281,20.5625 1624.3281,22.75 Q1624.3281,25.1563 1624.9375,26.4531 Q1625.5625,27.7344 1626.9219,27.7344 Q1627.875,27.7344 1628.5625,27.0469 Q1629.25,26.3438 1629.5781,24.8438 L1630.4844,25.25 Q1630.0781,26.9531 1629.1094,27.9063 Q1628.1563,28.8594 1626.8438,28.8594 Z " fill="#000000"/><text fill="#000000" font-family="sans-serif" font-size="14" lengthAdjust="spacing" textLength="168" x="1641.5" y="28.7969">OnCloudPlatformCondition</text><line style="stroke:#181818;stroke-width:0.5;" x1="1613.5" x2="1811.5" y1="39" y2="39"/><line style="stroke:#181818;stroke-width:0.5;" x1="1613.5" x2="1811.5" y1="47" y2="47"/></g><!--class OnExpressionCondition--><g id="elem_OnExpressionCondition"><rect codeLine="16" fill="#F1F1F1" height="48" id="OnExpressionCondition" rx="2.5" ry="2.5" style="stroke:#181818;stroke-width:0.5;" width="180" x="1847.5" y="7"/><ellipse cx="1862.5" cy="23" fill="#ADD1B2" rx="11" ry="11" style="stroke:#181818;stroke-width:1.0;"/><path d="M1861.8438,28.8594 Q1859.8594,28.8594 1858.6875,27.3906 Q1857.5313,25.9063 1857.5313,22.8281 Q1857.5313,20.2188 1858.75,18.4688 Q1859.9844,16.7188 1862.1094,16.7188 Q1862.6094,16.7188 1863.1406,16.8594 Q1863.5781,17.0469 1863.8438,17.0469 Q1864.0625,17.0469 1864.1563,17 Q1864.2656,16.9531 1864.7188,16.3594 L1865.4844,20.0938 L1864.5938,20.3594 Q1864.1406,18.9063 1863.5313,18.3125 Q1862.9375,17.7031 1861.9844,17.7031 Q1860.7656,17.7031 1860.0469,19.1406 Q1859.3281,20.5625 1859.3281,22.75 Q1859.3281,25.1563 1859.9375,26.4531 Q1860.5625,27.7344 1861.9219,27.7344 Q1862.875,27.7344 1863.5625,27.0469 Q1864.25,26.3438 1864.5781,24.8438 L1865.4844,25.25 Q1865.0781,26.9531 1864.1094,27.9063 Q1863.1563,28.8594 1861.8438,28.8594 Z " fill="#000000"/><text fill="#000000" font-family="sans-serif" font-size="14" lengthAdjust="spacing" textLength="148" x="1876.5" y="28.7969">OnExpressionCondition</text><line style="stroke:#181818;stroke-width:0.5;" x1="1848.5" x2="2026.5" y1="39" y2="39"/><line style="stroke:#181818;stroke-width:0.5;" x1="1848.5" x2="2026.5" y1="47" y2="47"/></g><!--class OnJavaCondition--><g id="elem_OnJavaCondition"><rect codeLine="17" fill="#F1F1F1" height="48" id="OnJavaCondition" rx="2.5" ry="2.5" style="stroke:#181818;stroke-width:0.5;" width="140" x="611.5" y="7"/><ellipse cx="626.5" cy="23" fill="#ADD1B2" rx="11" ry="11" style="stroke:#181818;stroke-width:1.0;"/><path d="M625.8438,28.8594 Q623.8594,28.8594 622.6875,27.3906 Q621.5313,25.9063 621.5313,22.8281 Q621.5313,20.2188 622.75,18.4688 Q623.9844,16.7188 626.1094,16.7188 Q626.6094,16.7188 627.1406,16.8594 Q627.5781,17.0469 627.8438,17.0469 Q628.0625,17.0469 628.1563,17 Q628.2656,16.9531 628.7188,16.3594 L629.4844,20.0938 L628.5938,20.3594 Q628.1406,18.9063 627.5313,18.3125 Q626.9375,17.7031 625.9844,17.7031 Q624.7656,17.7031 624.0469,19.1406 Q623.3281,20.5625 623.3281,22.75 Q623.3281,25.1563 623.9375,26.4531 Q624.5625,27.7344 625.9219,27.7344 Q626.875,27.7344 627.5625,27.0469 Q628.25,26.3438 628.5781,24.8438 L629.4844,25.25 Q629.0781,26.9531 628.1094,27.9063 Q627.1563,28.8594 625.8438,28.8594 Z " fill="#000000"/><text fill="#000000" font-family="sans-serif" font-size="14" lengthAdjust="spacing" textLength="108" x="640.5" y="28.7969">OnJavaCondition</text><line style="stroke:#181818;stroke-width:0.5;" x1="612.5" x2="750.5" y1="39" y2="39"/><line style="stroke:#181818;stroke-width:0.5;" x1="612.5" x2="750.5" y1="47" y2="47"/></g><!--class OnJndiCondition--><g id="elem_OnJndiCondition"><rect codeLine="18" fill="#F1F1F1" height="48" id="OnJndiCondition" rx="2.5" ry="2.5" style="stroke:#181818;stroke-width:0.5;" width="136" x="786.5" y="7"/><ellipse cx="801.5" cy="23" fill="#ADD1B2" rx="11" ry="11" style="stroke:#181818;stroke-width:1.0;"/><path d="M800.8438,28.8594 Q798.8594,28.8594 797.6875,27.3906 Q796.5313,25.9063 796.5313,22.8281 Q796.5313,20.2188 797.75,18.4688 Q798.9844,16.7188 801.1094,16.7188 Q801.6094,16.7188 802.1406,16.8594 Q802.5781,17.0469 802.8438,17.0469 Q803.0625,17.0469 803.1563,17 Q803.2656,16.9531 803.7188,16.3594 L804.4844,20.0938 L803.5938,20.3594 Q803.1406,18.9063 802.5313,18.3125 Q801.9375,17.7031 800.9844,17.7031 Q799.7656,17.7031 799.0469,19.1406 Q798.3281,20.5625 798.3281,22.75 Q798.3281,25.1563 798.9375,26.4531 Q799.5625,27.7344 800.9219,27.7344 Q801.875,27.7344 802.5625,27.0469 Q803.25,26.3438 803.5781,24.8438 L804.4844,25.25 Q804.0781,26.9531 803.1094,27.9063 Q802.1563,28.8594 800.8438,28.8594 Z " fill="#000000"/><text fill="#000000" font-family="sans-serif" font-size="14" lengthAdjust="spacing" textLength="104" x="815.5" y="28.7969">OnJndiCondition</text><line style="stroke:#181818;stroke-width:0.5;" x1="787.5" x2="921.5" y1="39" y2="39"/><line style="stroke:#181818;stroke-width:0.5;" x1="787.5" x2="921.5" y1="47" y2="47"/></g><!--class OnWebApplicationCondition--><g id="elem_OnWebApplicationCondition"><rect codeLine="19" fill="#F1F1F1" height="48" id="OnWebApplicationCondition" rx="2.5" ry="2.5" style="stroke:#181818;stroke-width:0.5;" width="209" x="7" y="7"/><ellipse cx="22" cy="23" fill="#ADD1B2" rx="11" ry="11" style="stroke:#181818;stroke-width:1.0;"/><path d="M21.3438,28.8594 Q19.3594,28.8594 18.1875,27.3906 Q17.0313,25.9063 17.0313,22.8281 Q17.0313,20.2188 18.25,18.4688 Q19.4844,16.7188 21.6094,16.7188 Q22.1094,16.7188 22.6406,16.8594 Q23.0781,17.0469 23.3438,17.0469 Q23.5625,17.0469 23.6563,17 Q23.7656,16.9531 24.2188,16.3594 L24.9844,20.0938 L24.0938,20.3594 Q23.6406,18.9063 23.0313,18.3125 Q22.4375,17.7031 21.4844,17.7031 Q20.2656,17.7031 19.5469,19.1406 Q18.8281,20.5625 18.8281,22.75 Q18.8281,25.1563 19.4375,26.4531 Q20.0625,27.7344 21.4219,27.7344 Q22.375,27.7344 23.0625,27.0469 Q23.75,26.3438 24.0781,24.8438 L24.9844,25.25 Q24.5781,26.9531 23.6094,27.9063 Q22.6563,28.8594 21.3438,28.8594 Z " fill="#000000"/><text fill="#000000" font-family="sans-serif" font-size="14" lengthAdjust="spacing" textLength="177" x="36" y="28.7969">OnWebApplicationCondition</text><line style="stroke:#181818;stroke-width:0.5;" x1="8" x2="215" y1="39" y2="39"/><line style="stroke:#181818;stroke-width:0.5;" x1="8" x2="215" y1="47" y2="47"/></g><!--class OnPropertyCondition--><g id="elem_OnPropertyCondition"><rect codeLine="20" fill="#F1F1F1" height="48" id="OnPropertyCondition" rx="2.5" ry="2.5" style="stroke:#181818;stroke-width:0.5;" width="165" x="958" y="7"/><ellipse cx="973" cy="23" fill="#ADD1B2" rx="11" ry="11" style="stroke:#181818;stroke-width:1.0;"/><path d="M972.3438,28.8594 Q970.3594,28.8594 969.1875,27.3906 Q968.0313,25.9063 968.0313,22.8281 Q968.0313,20.2188 969.25,18.4688 Q970.4844,16.7188 972.6094,16.7188 Q973.1094,16.7188 973.6406,16.8594 Q974.0781,17.0469 974.3438,17.0469 Q974.5625,17.0469 974.6563,17 Q974.7656,16.9531 975.2188,16.3594 L975.9844,20.0938 L975.0938,20.3594 Q974.6406,18.9063 974.0313,18.3125 Q973.4375,17.7031 972.4844,17.7031 Q971.2656,17.7031 970.5469,19.1406 Q969.8281,20.5625 969.8281,22.75 Q969.8281,25.1563 970.4375,26.4531 Q971.0625,27.7344 972.4219,27.7344 Q973.375,27.7344 974.0625,27.0469 Q974.75,26.3438 975.0781,24.8438 L975.9844,25.25 Q975.5781,26.9531 974.6094,27.9063 Q973.6563,28.8594 972.3438,28.8594 Z " fill="#000000"/><text fill="#000000" font-family="sans-serif" font-size="14" lengthAdjust="spacing" textLength="133" x="987" y="28.7969">OnPropertyCondition</text><line style="stroke:#181818;stroke-width:0.5;" x1="959" x2="1122" y1="39" y2="39"/><line style="stroke:#181818;stroke-width:0.5;" x1="959" x2="1122" y1="47" y2="47"/></g><!--class OnResourceCondition--><g id="elem_OnResourceCondition"><rect codeLine="21" fill="#F1F1F1" height="48" id="OnResourceCondition" rx="2.5" ry="2.5" style="stroke:#181818;stroke-width:0.5;" width="172" x="1158.5" y="7"/><ellipse cx="1173.5" cy="23" fill="#ADD1B2" rx="11" ry="11" style="stroke:#181818;stroke-width:1.0;"/><path d="M1172.8438,28.8594 Q1170.8594,28.8594 1169.6875,27.3906 Q1168.5313,25.9063 1168.5313,22.8281 Q1168.5313,20.2188 1169.75,18.4688 Q1170.9844,16.7188 1173.1094,16.7188 Q1173.6094,16.7188 1174.1406,16.8594 Q1174.5781,17.0469 1174.8438,17.0469 Q1175.0625,17.0469 1175.1563,17 Q1175.2656,16.9531 1175.7188,16.3594 L1176.4844,20.0938 L1175.5938,20.3594 Q1175.1406,18.9063 1174.5313,18.3125 Q1173.9375,17.7031 1172.9844,17.7031 Q1171.7656,17.7031 1171.0469,19.1406 Q1170.3281,20.5625 1170.3281,22.75 Q1170.3281,25.1563 1170.9375,26.4531 Q1171.5625,27.7344 1172.9219,27.7344 Q1173.875,27.7344 1174.5625,27.0469 Q1175.25,26.3438 1175.5781,24.8438 L1176.4844,25.25 Q1176.0781,26.9531 1175.1094,27.9063 Q1174.1563,28.8594 1172.8438,28.8594 Z " fill="#000000"/><text fill="#000000" font-family="sans-serif" font-size="14" lengthAdjust="spacing" textLength="140" x="1187.5" y="28.7969">OnResourceCondition</text><line style="stroke:#181818;stroke-width:0.5;" x1="1159.5" x2="1329.5" y1="39" y2="39"/><line style="stroke:#181818;stroke-width:0.5;" x1="1159.5" x2="1329.5" y1="47" y2="47"/></g><!--class OnWarDeploymentCondition--><g id="elem_OnWarDeploymentCondition"><rect codeLine="22" fill="#F1F1F1" height="48" id="OnWarDeploymentCondition" rx="2.5" ry="2.5" style="stroke:#181818;stroke-width:0.5;" width="212" x="1365.5" y="7"/><ellipse cx="1380.5" cy="23" fill="#ADD1B2" rx="11" ry="11" style="stroke:#181818;stroke-width:1.0;"/><path d="M1379.8438,28.8594 Q1377.8594,28.8594 1376.6875,27.3906 Q1375.5313,25.9063 1375.5313,22.8281 Q1375.5313,20.2188 1376.75,18.4688 Q1377.9844,16.7188 1380.1094,16.7188 Q1380.6094,16.7188 1381.1406,16.8594 Q1381.5781,17.0469 1381.8438,17.0469 Q1382.0625,17.0469 1382.1563,17 Q1382.2656,16.9531 1382.7188,16.3594 L1383.4844,20.0938 L1382.5938,20.3594 Q1382.1406,18.9063 1381.5313,18.3125 Q1380.9375,17.7031 1379.9844,17.7031 Q1378.7656,17.7031 1378.0469,19.1406 Q1377.3281,20.5625 1377.3281,22.75 Q1377.3281,25.1563 1377.9375,26.4531 Q1378.5625,27.7344 1379.9219,27.7344 Q1380.875,27.7344 1381.5625,27.0469 Q1382.25,26.3438 1382.5781,24.8438 L1383.4844,25.25 Q1383.0781,26.9531 1382.1094,27.9063 Q1381.1563,28.8594 1379.8438,28.8594 Z " fill="#000000"/><text fill="#000000" font-family="sans-serif" font-size="14" lengthAdjust="spacing" textLength="180" x="1394.5" y="28.7969">OnWarDeploymentCondition</text><line style="stroke:#181818;stroke-width:0.5;" x1="1366.5" x2="1576.5" y1="39" y2="39"/><line style="stroke:#181818;stroke-width:0.5;" x1="1366.5" x2="1576.5" y1="47" y2="47"/></g><!--link OnClassCondition to FilteringSpringBootCondition--><g id="link_OnClassCondition_FilteringSpringBootCondition"><path codeLine="24" d="M344.25,55 C355.38,67.97 369.58,84.51 382.37,99.41 " fill="none" id="OnClassCondition-to-FilteringSpringBootCondition" style="stroke:#181818;stroke-width:1.0;"/><polygon fill="none" points="387.76,94.94,395.48,114.68,377.14,104.06,387.76,94.94" style="stroke:#181818;stroke-width:1.0;"/></g><!--link OnWebApplicationCondition to FilteringSpringBootCondition--><g id="link_OnWebApplicationCondition_FilteringSpringBootCondition"><path codeLine="25" d="M177.46,55 C222.3,70.64 282.04,91.46 330.45,108.34 " fill="none" id="OnWebApplicationCondition-to-FilteringSpringBootCondition" style="stroke:#181818;stroke-width:1.0;"/><polygon fill="none" points="332.82,101.76,349.4,114.95,328.21,114.98,332.82,101.76" style="stroke:#181818;stroke-width:1.0;"/></g><!--link OnBeanCondition to FilteringSpringBootCondition--><g id="link_OnBeanCondition_FilteringSpringBootCondition"><path codeLine="26" d="M485.19,55 C474.42,67.83 460.71,84.16 448.3,98.93 " fill="none" id="OnBeanCondition-to-FilteringSpringBootCondition" style="stroke:#181818;stroke-width:1.0;"/><polygon fill="none" points="453.3,103.86,435.08,114.68,442.58,94.86,453.3,103.86" style="stroke:#181818;stroke-width:1.0;"/></g><!--link OnBeanCondition to ConfigurationCondition--><g id="link_OnBeanCondition_ConfigurationCondition"><path codeLine="27" d="M540.23,55.23 C580.58,81.45 648.22,125.35 706.5,163 C731.55,179.18 759.36,197.08 782.73,212.11 " fill="none" id="OnBeanCondition-to-ConfigurationCondition" style="stroke:#181818;stroke-width:1.0;"/><polygon fill="none" points="786.57,206.26,799.61,222.96,779,218.03,786.57,206.26" style="stroke:#181818;stroke-width:1.0;"/></g><!--link ConfigurationCondition to Condition--><g id="link_ConfigurationCondition_Condition"><path codeLine="28" d="M857.63,271 C870.24,284.11 886.37,300.86 900.82,315.88 " fill="none" id="ConfigurationCondition-to-Condition" style="stroke:#181818;stroke-width:1.0;"/><polygon fill="none" points="906.23,311.41,915.06,330.68,896.15,321.12,906.23,311.41" style="stroke:#181818;stroke-width:1.0;"/></g><!--link OnCloudPlatformCondition to SpringBootCondition--><g id="link_OnCloudPlatformCondition_SpringBootCondition"><path codeLine="30" d="M1640.27,55 C1517.17,94.2 1266.97,173.88 1131.9,216.89 " fill="none" id="OnCloudPlatformCondition-to-SpringBootCondition" style="stroke:#181818;stroke-width:1.0;"/><polygon fill="none" points="1134.01,223.57,1112.83,222.97,1129.77,210.23,1134.01,223.57" style="stroke:#181818;stroke-width:1.0;"/></g><!--link OnExpressionCondition to SpringBootCondition--><g id="link_OnExpressionCondition_SpringBootCondition"><path codeLine="31" d="M1859.3,55.07 C1849.62,57.8 1839.84,60.51 1830.5,63 C1584.72,128.62 1292.32,192.78 1141.56,224.84 " fill="none" id="OnExpressionCondition-to-SpringBootCondition" style="stroke:#181818;stroke-width:1.0;"/><polygon fill="none" points="1142.7,231.76,1121.69,229.06,1139.8,218.06,1142.7,231.76" style="stroke:#181818;stroke-width:1.0;"/></g><!--link OnJavaCondition to SpringBootCondition--><g id="link_OnJavaCondition_SpringBootCondition"><path codeLine="32" d="M720.26,55.11 C783.94,93.07 910.96,168.78 984.44,212.58 " fill="none" id="OnJavaCondition-to-SpringBootCondition" style="stroke:#181818;stroke-width:1.0;"/><polygon fill="none" points="988.31,206.74,1001.9,222.99,981.14,218.76,988.31,206.74" style="stroke:#181818;stroke-width:1.0;"/></g><!--link OnJndiCondition to SpringBootCondition--><g id="link_OnJndiCondition_SpringBootCondition"><path codeLine="33" d="M874.76,55.31 C906.55,91.89 968.51,163.17 1007.01,207.46 " fill="none" id="OnJndiCondition-to-SpringBootCondition" style="stroke:#181818;stroke-width:1.0;"/><polygon fill="none" points="1012.43,203.03,1020.27,222.72,1001.86,212.22,1012.43,203.03" style="stroke:#181818;stroke-width:1.0;"/></g><!--link OnPropertyCondition to SpringBootCondition--><g id="link_OnPropertyCondition_SpringBootCondition"><path codeLine="35" d="M1040.5,55.31 C1040.5,90.6 1040.5,158.2 1040.5,202.69 " fill="none" id="OnPropertyCondition-to-SpringBootCondition" style="stroke:#181818;stroke-width:1.0;"/><polygon fill="none" points="1047.5,202.72,1040.5,222.72,1033.5,202.72,1047.5,202.72" style="stroke:#181818;stroke-width:1.0;"/></g><!--link OnResourceCondition to SpringBootCondition--><g id="link_OnResourceCondition_SpringBootCondition"><path codeLine="36" d="M1222.28,55.31 C1187.25,92.05 1118.86,163.8 1076.68,208.05 " fill="none" id="OnResourceCondition-to-SpringBootCondition" style="stroke:#181818;stroke-width:1.0;"/><polygon fill="none" points="1081.56,213.07,1062.69,222.72,1071.43,203.41,1081.56,213.07" style="stroke:#181818;stroke-width:1.0;"/></g><!--link OnWarDeploymentCondition to SpringBootCondition--><g id="link_OnWarDeploymentCondition_SpringBootCondition"><path codeLine="37" d="M1424.97,55.11 C1347.7,93.47 1192.78,170.39 1105.02,213.97 " fill="none" id="OnWarDeploymentCondition-to-SpringBootCondition" style="stroke:#181818;stroke-width:1.0;"/><polygon fill="none" points="1107.87,220.37,1086.84,222.99,1101.64,207.83,1107.87,220.37" style="stroke:#181818;stroke-width:1.0;"/></g><!--link FilteringSpringBootCondition to SpringBootCondition--><g id="link_FilteringSpringBootCondition_SpringBootCondition"><path codeLine="39" d="M522.18,154.54 C624.35,168.99 783.29,192.8 939.3,222.76 " fill="none" id="FilteringSpringBootCondition-to-SpringBootCondition" style="stroke:#181818;stroke-width:1.0;"/><polygon fill="none" points="940.99,215.96,959.29,226.64,938.32,229.7,940.99,215.96" style="stroke:#181818;stroke-width:1.0;"/></g><!--link FilteringSpringBootCondition to AutoConfigurationImportFilter--><g id="link_FilteringSpringBootCondition_AutoConfigurationImportFilter"><path codeLine="40" d="M415.5,163 C415.5,174.59 415.5,189.03 415.5,202.6 " fill="none" id="FilteringSpringBootCondition-to-AutoConfigurationImportFilter" style="stroke:#181818;stroke-width:1.0;"/><polygon fill="none" points="422.5,202.68,415.5,222.68,408.5,202.68,422.5,202.68" style="stroke:#181818;stroke-width:1.0;"/></g><!--link FilteringSpringBootCondition to BeanFactoryAware--><g id="link_FilteringSpringBootCondition_BeanFactoryAware"><path codeLine="41" d="M463.24,163 C494.27,177.95 535.15,197.65 569.3,214.1 " fill="none" id="FilteringSpringBootCondition-to-BeanFactoryAware" style="stroke:#181818;stroke-width:1.0;"/><polygon fill="none" points="572.5,207.87,587.48,222.86,566.42,220.49,572.5,207.87" style="stroke:#181818;stroke-width:1.0;"/></g><!--link FilteringSpringBootCondition to BeanClassLoaderAware--><g id="link_FilteringSpringBootCondition_BeanClassLoaderAware"><path codeLine="42" d="M364.29,163 C330.7,178.09 286.33,198.01 249.5,214.56 " fill="none" id="FilteringSpringBootCondition-to-BeanClassLoaderAware" style="stroke:#181818;stroke-width:1.0;"/><polygon fill="none" points="252.13,221.05,231.02,222.86,246.39,208.28,252.13,221.05" style="stroke:#181818;stroke-width:1.0;"/></g><!--link SpringBootCondition to Condition--><g id="link_SpringBootCondition_Condition"><path codeLine="44" d="M1018.15,271 C1005.42,284.11 989.14,300.86 974.54,315.88 " fill="none" id="SpringBootCondition-to-Condition" style="stroke:#181818;stroke-width:1.0;"/><polygon fill="none" points="979.12,321.21,960.16,330.68,969.08,311.46,979.12,321.21" style="stroke:#181818;stroke-width:1.0;"/></g><!--SRC=[dPJTReCm38NlynIyG5zX4cMhj6dIgkvYrnaO5Yd4aJ5hqRPt7unIDSrFgt61ICvtOcDROMo0Fu2-H3O-oZ1GBKl8DagFdyeqhtPwhn6vG5CfLcWkq1ZXKddFEEgrQdgI4_FOMYIUumJuDKYpaIKZ3VbU4aIGGikkUqPP0RcOGpg1_Imz-AZ_2C5EVSefMlOoHtNFMQI_f89AeR6ljbfoZTI6aOU39UWwByb5VvAVCgACcs7b3TvpQxKg0p-_C5j22yH3MDr1XpsL43bVqZrOZKCBXizhTrccRBNwlaiFLZJRcxnEwV_hY8nAUFjaEL8YrkKP32SHQ7eATsOW2PwFH1mKWVQdZlMc8GM7XoEHJAfXSTjrL_hwkUxthgFRBDxr9ABuQVaB]--></g></svg>