<?xml version="1.0" encoding="us-ascii" standalone="no"?><svg xmlns="http://www.w3.org/2000/svg" xmlns:xlink="http://www.w3.org/1999/xlink" contentStyleType="text/css" height="278px" preserveAspectRatio="none" style="width:1430px;height:278px;background:#FFFFFF;" version="1.1" viewBox="0 0 1430 278" width="1430px" zoomAndPan="magnify"><defs/><g><!--class SpringBootCondition--><g id="elem_SpringBootCondition"><rect codeLine="2" fill="#F1F1F1" height="48" id="SpringBootCondition" rx="2.5" ry="2.5" style="stroke:#181818;stroke-width:0.5;" width="162" x="649" y="115"/><ellipse cx="664" cy="131" fill="#A9DCDF" rx="11" ry="11" style="stroke:#181818;stroke-width:1.0;"/><path d="M664.4219,131.4844 L661.8594,131.4844 L661.3281,133.7813 Q661.2656,134.1094 661.2656,134.2656 Q661.2656,134.4844 661.3125,134.6406 Q661.375,134.7969 661.6563,134.7969 L662.125,134.7969 L662.125,135.7344 L659.1406,135.7344 L659.1406,134.7969 L659.5938,134.7969 Q659.7656,134.7969 659.8906,134.7031 Q660.0156,134.5938 660.0625,134.2969 L662.7031,123.9688 L664.1094,123.5 L666.6875,134.2656 Q666.7969,134.5781 666.9219,134.6875 Q667.0625,134.7969 667.2344,134.7969 L667.7031,134.7969 L667.7031,135.7344 L664.3125,135.7344 L664.3125,134.7969 L664.8438,134.7969 Q665.0625,134.7969 665.0781,134.75 Q665.1094,134.6875 665.1094,134.6094 Q665.1094,134.3906 665.0625,134.2031 L664.4219,131.4844 Z M659.8594,135.3281 L659.8594,135.3281 Z M660.5313,135.3281 L660.5313,135.3281 Z M665.25,135.3281 L665.25,135.3281 Z M666.375,135.3281 L666.375,135.3281 Z M663.1875,125.3906 L663.25,125.3906 L662.1406,130.5469 L664.2344,130.5469 L663.1875,125.3906 Z " fill="#000000"/><text fill="#000000" font-family="sans-serif" font-size="14" font-style="italic" lengthAdjust="spacing" textLength="130" x="678" y="136.7969">SpringBootCondition</text><line style="stroke:#181818;stroke-width:0.5;" x1="650" x2="810" y1="147" y2="147"/><line style="stroke:#181818;stroke-width:0.5;" x1="650" x2="810" y1="155" y2="155"/></g><!--class Condition--><g id="elem_Condition"><rect codeLine="3" fill="#F1F1F1" height="48" id="Condition" rx="2.5" ry="2.5" style="stroke:#181818;stroke-width:0.5;" width="92" x="684" y="223"/><ellipse cx="699" cy="239" fill="#B4A7E5" rx="11" ry="11" style="stroke:#181818;stroke-width:1.0;"/><path d="M695.5938,233.7813 L695.5938,232.8438 L701.4375,232.8438 L701.4375,233.7813 L699.6406,233.7813 Q699.4688,233.7813 699.3906,233.8438 Q699.3125,233.9063 699.3125,234.0469 L699.3125,243.5313 Q699.3125,243.6719 699.3906,243.7344 Q699.4688,243.7969 699.6406,243.7969 L701.4375,243.7969 L701.4375,244.7344 L695.5938,244.7344 L695.5938,243.7969 L697.3906,243.7969 Q697.6094,243.7969 697.6563,243.75 Q697.7188,243.6875 697.7188,243.5313 L697.7188,234.0469 Q697.7188,233.8906 697.6563,233.8438 Q697.6094,233.7813 697.3906,233.7813 L695.5938,233.7813 Z " fill="#000000"/><text fill="#000000" font-family="sans-serif" font-size="14" font-style="italic" lengthAdjust="spacing" textLength="60" x="713" y="244.7969">Condition</text><line style="stroke:#181818;stroke-width:0.5;" x1="685" x2="775" y1="255" y2="255"/><line style="stroke:#181818;stroke-width:0.5;" x1="685" x2="775" y1="263" y2="263"/></g><!--class OnCloudPlatformCondition--><g id="elem_OnCloudPlatformCondition"><rect codeLine="7" fill="#F1F1F1" height="48" id="OnCloudPlatformCondition" rx="2.5" ry="2.5" style="stroke:#181818;stroke-width:0.5;" width="200" x="1223" y="7"/><ellipse cx="1238" cy="23" fill="#ADD1B2" rx="11" ry="11" style="stroke:#181818;stroke-width:1.0;"/><path d="M1237.3438,28.8594 Q1235.3594,28.8594 1234.1875,27.3906 Q1233.0313,25.9063 1233.0313,22.8281 Q1233.0313,20.2188 1234.25,18.4688 Q1235.4844,16.7188 1237.6094,16.7188 Q1238.1094,16.7188 1238.6406,16.8594 Q1239.0781,17.0469 1239.3438,17.0469 Q1239.5625,17.0469 1239.6563,17 Q1239.7656,16.9531 1240.2188,16.3594 L1240.9844,20.0938 L1240.0938,20.3594 Q1239.6406,18.9063 1239.0313,18.3125 Q1238.4375,17.7031 1237.4844,17.7031 Q1236.2656,17.7031 1235.5469,19.1406 Q1234.8281,20.5625 1234.8281,22.75 Q1234.8281,25.1563 1235.4375,26.4531 Q1236.0625,27.7344 1237.4219,27.7344 Q1238.375,27.7344 1239.0625,27.0469 Q1239.75,26.3438 1240.0781,24.8438 L1240.9844,25.25 Q1240.5781,26.9531 1239.6094,27.9063 Q1238.6563,28.8594 1237.3438,28.8594 Z " fill="#000000"/><text fill="#000000" font-family="sans-serif" font-size="14" lengthAdjust="spacing" textLength="168" x="1252" y="28.7969">OnCloudPlatformCondition</text><line style="stroke:#181818;stroke-width:0.5;" x1="1224" x2="1422" y1="39" y2="39"/><line style="stroke:#181818;stroke-width:0.5;" x1="1224" x2="1422" y1="47" y2="47"/></g><!--class OnExpressionCondition--><g id="elem_OnExpressionCondition"><rect codeLine="8" fill="#F1F1F1" height="48" id="OnExpressionCondition" rx="2.5" ry="2.5" style="stroke:#181818;stroke-width:0.5;" width="180" x="1008" y="7"/><ellipse cx="1023" cy="23" fill="#ADD1B2" rx="11" ry="11" style="stroke:#181818;stroke-width:1.0;"/><path d="M1022.3438,28.8594 Q1020.3594,28.8594 1019.1875,27.3906 Q1018.0313,25.9063 1018.0313,22.8281 Q1018.0313,20.2188 1019.25,18.4688 Q1020.4844,16.7188 1022.6094,16.7188 Q1023.1094,16.7188 1023.6406,16.8594 Q1024.0781,17.0469 1024.3438,17.0469 Q1024.5625,17.0469 1024.6563,17 Q1024.7656,16.9531 1025.2188,16.3594 L1025.9844,20.0938 L1025.0938,20.3594 Q1024.6406,18.9063 1024.0313,18.3125 Q1023.4375,17.7031 1022.4844,17.7031 Q1021.2656,17.7031 1020.5469,19.1406 Q1019.8281,20.5625 1019.8281,22.75 Q1019.8281,25.1563 1020.4375,26.4531 Q1021.0625,27.7344 1022.4219,27.7344 Q1023.375,27.7344 1024.0625,27.0469 Q1024.75,26.3438 1025.0781,24.8438 L1025.9844,25.25 Q1025.5781,26.9531 1024.6094,27.9063 Q1023.6563,28.8594 1022.3438,28.8594 Z " fill="#000000"/><text fill="#000000" font-family="sans-serif" font-size="14" lengthAdjust="spacing" textLength="148" x="1037" y="28.7969">OnExpressionCondition</text><line style="stroke:#181818;stroke-width:0.5;" x1="1009" x2="1187" y1="39" y2="39"/><line style="stroke:#181818;stroke-width:0.5;" x1="1009" x2="1187" y1="47" y2="47"/></g><!--class OnJavaCondition--><g id="elem_OnJavaCondition"><rect codeLine="9" fill="#F1F1F1" height="48" id="OnJavaCondition" rx="2.5" ry="2.5" style="stroke:#181818;stroke-width:0.5;" width="140" x="833" y="7"/><ellipse cx="848" cy="23" fill="#ADD1B2" rx="11" ry="11" style="stroke:#181818;stroke-width:1.0;"/><path d="M847.3438,28.8594 Q845.3594,28.8594 844.1875,27.3906 Q843.0313,25.9063 843.0313,22.8281 Q843.0313,20.2188 844.25,18.4688 Q845.4844,16.7188 847.6094,16.7188 Q848.1094,16.7188 848.6406,16.8594 Q849.0781,17.0469 849.3438,17.0469 Q849.5625,17.0469 849.6563,17 Q849.7656,16.9531 850.2188,16.3594 L850.9844,20.0938 L850.0938,20.3594 Q849.6406,18.9063 849.0313,18.3125 Q848.4375,17.7031 847.4844,17.7031 Q846.2656,17.7031 845.5469,19.1406 Q844.8281,20.5625 844.8281,22.75 Q844.8281,25.1563 845.4375,26.4531 Q846.0625,27.7344 847.4219,27.7344 Q848.375,27.7344 849.0625,27.0469 Q849.75,26.3438 850.0781,24.8438 L850.9844,25.25 Q850.5781,26.9531 849.6094,27.9063 Q848.6563,28.8594 847.3438,28.8594 Z " fill="#000000"/><text fill="#000000" font-family="sans-serif" font-size="14" lengthAdjust="spacing" textLength="108" x="862" y="28.7969">OnJavaCondition</text><line style="stroke:#181818;stroke-width:0.5;" x1="834" x2="972" y1="39" y2="39"/><line style="stroke:#181818;stroke-width:0.5;" x1="834" x2="972" y1="47" y2="47"/></g><!--class OnJndiCondition--><g id="elem_OnJndiCondition"><rect codeLine="10" fill="#F1F1F1" height="48" id="OnJndiCondition" rx="2.5" ry="2.5" style="stroke:#181818;stroke-width:0.5;" width="136" x="662" y="7"/><ellipse cx="677" cy="23" fill="#ADD1B2" rx="11" ry="11" style="stroke:#181818;stroke-width:1.0;"/><path d="M676.3438,28.8594 Q674.3594,28.8594 673.1875,27.3906 Q672.0313,25.9063 672.0313,22.8281 Q672.0313,20.2188 673.25,18.4688 Q674.4844,16.7188 676.6094,16.7188 Q677.1094,16.7188 677.6406,16.8594 Q678.0781,17.0469 678.3438,17.0469 Q678.5625,17.0469 678.6563,17 Q678.7656,16.9531 679.2188,16.3594 L679.9844,20.0938 L679.0938,20.3594 Q678.6406,18.9063 678.0313,18.3125 Q677.4375,17.7031 676.4844,17.7031 Q675.2656,17.7031 674.5469,19.1406 Q673.8281,20.5625 673.8281,22.75 Q673.8281,25.1563 674.4375,26.4531 Q675.0625,27.7344 676.4219,27.7344 Q677.375,27.7344 678.0625,27.0469 Q678.75,26.3438 679.0781,24.8438 L679.9844,25.25 Q679.5781,26.9531 678.6094,27.9063 Q677.6563,28.8594 676.3438,28.8594 Z " fill="#000000"/><text fill="#000000" font-family="sans-serif" font-size="14" lengthAdjust="spacing" textLength="104" x="691" y="28.7969">OnJndiCondition</text><line style="stroke:#181818;stroke-width:0.5;" x1="663" x2="797" y1="39" y2="39"/><line style="stroke:#181818;stroke-width:0.5;" x1="663" x2="797" y1="47" y2="47"/></g><!--class OnPropertyCondition--><g id="elem_OnPropertyCondition"><rect codeLine="11" fill="#F1F1F1" height="48" id="OnPropertyCondition" rx="2.5" ry="2.5" style="stroke:#181818;stroke-width:0.5;" width="165" x="461.5" y="7"/><ellipse cx="476.5" cy="23" fill="#ADD1B2" rx="11" ry="11" style="stroke:#181818;stroke-width:1.0;"/><path d="M475.8438,28.8594 Q473.8594,28.8594 472.6875,27.3906 Q471.5313,25.9063 471.5313,22.8281 Q471.5313,20.2188 472.75,18.4688 Q473.9844,16.7188 476.1094,16.7188 Q476.6094,16.7188 477.1406,16.8594 Q477.5781,17.0469 477.8438,17.0469 Q478.0625,17.0469 478.1563,17 Q478.2656,16.9531 478.7188,16.3594 L479.4844,20.0938 L478.5938,20.3594 Q478.1406,18.9063 477.5313,18.3125 Q476.9375,17.7031 475.9844,17.7031 Q474.7656,17.7031 474.0469,19.1406 Q473.3281,20.5625 473.3281,22.75 Q473.3281,25.1563 473.9375,26.4531 Q474.5625,27.7344 475.9219,27.7344 Q476.875,27.7344 477.5625,27.0469 Q478.25,26.3438 478.5781,24.8438 L479.4844,25.25 Q479.0781,26.9531 478.1094,27.9063 Q477.1563,28.8594 475.8438,28.8594 Z " fill="#000000"/><text fill="#000000" font-family="sans-serif" font-size="14" lengthAdjust="spacing" textLength="133" x="490.5" y="28.7969">OnPropertyCondition</text><line style="stroke:#181818;stroke-width:0.5;" x1="462.5" x2="625.5" y1="39" y2="39"/><line style="stroke:#181818;stroke-width:0.5;" x1="462.5" x2="625.5" y1="47" y2="47"/></g><!--class OnResourceCondition--><g id="elem_OnResourceCondition"><rect codeLine="12" fill="#F1F1F1" height="48" id="OnResourceCondition" rx="2.5" ry="2.5" style="stroke:#181818;stroke-width:0.5;" width="172" x="254" y="7"/><ellipse cx="269" cy="23" fill="#ADD1B2" rx="11" ry="11" style="stroke:#181818;stroke-width:1.0;"/><path d="M268.3438,28.8594 Q266.3594,28.8594 265.1875,27.3906 Q264.0313,25.9063 264.0313,22.8281 Q264.0313,20.2188 265.25,18.4688 Q266.4844,16.7188 268.6094,16.7188 Q269.1094,16.7188 269.6406,16.8594 Q270.0781,17.0469 270.3438,17.0469 Q270.5625,17.0469 270.6563,17 Q270.7656,16.9531 271.2188,16.3594 L271.9844,20.0938 L271.0938,20.3594 Q270.6406,18.9063 270.0313,18.3125 Q269.4375,17.7031 268.4844,17.7031 Q267.2656,17.7031 266.5469,19.1406 Q265.8281,20.5625 265.8281,22.75 Q265.8281,25.1563 266.4375,26.4531 Q267.0625,27.7344 268.4219,27.7344 Q269.375,27.7344 270.0625,27.0469 Q270.75,26.3438 271.0781,24.8438 L271.9844,25.25 Q271.5781,26.9531 270.6094,27.9063 Q269.6563,28.8594 268.3438,28.8594 Z " fill="#000000"/><text fill="#000000" font-family="sans-serif" font-size="14" lengthAdjust="spacing" textLength="140" x="283" y="28.7969">OnResourceCondition</text><line style="stroke:#181818;stroke-width:0.5;" x1="255" x2="425" y1="39" y2="39"/><line style="stroke:#181818;stroke-width:0.5;" x1="255" x2="425" y1="47" y2="47"/></g><!--class OnWarDeploymentCondition--><g id="elem_OnWarDeploymentCondition"><rect codeLine="13" fill="#F1F1F1" height="48" id="OnWarDeploymentCondition" rx="2.5" ry="2.5" style="stroke:#181818;stroke-width:0.5;" width="212" x="7" y="7"/><ellipse cx="22" cy="23" fill="#ADD1B2" rx="11" ry="11" style="stroke:#181818;stroke-width:1.0;"/><path d="M21.3438,28.8594 Q19.3594,28.8594 18.1875,27.3906 Q17.0313,25.9063 17.0313,22.8281 Q17.0313,20.2188 18.25,18.4688 Q19.4844,16.7188 21.6094,16.7188 Q22.1094,16.7188 22.6406,16.8594 Q23.0781,17.0469 23.3438,17.0469 Q23.5625,17.0469 23.6563,17 Q23.7656,16.9531 24.2188,16.3594 L24.9844,20.0938 L24.0938,20.3594 Q23.6406,18.9063 23.0313,18.3125 Q22.4375,17.7031 21.4844,17.7031 Q20.2656,17.7031 19.5469,19.1406 Q18.8281,20.5625 18.8281,22.75 Q18.8281,25.1563 19.4375,26.4531 Q20.0625,27.7344 21.4219,27.7344 Q22.375,27.7344 23.0625,27.0469 Q23.75,26.3438 24.0781,24.8438 L24.9844,25.25 Q24.5781,26.9531 23.6094,27.9063 Q22.6563,28.8594 21.3438,28.8594 Z " fill="#000000"/><text fill="#000000" font-family="sans-serif" font-size="14" lengthAdjust="spacing" textLength="180" x="36" y="28.7969">OnWarDeploymentCondition</text><line style="stroke:#181818;stroke-width:0.5;" x1="8" x2="218" y1="39" y2="39"/><line style="stroke:#181818;stroke-width:0.5;" x1="8" x2="218" y1="47" y2="47"/></g><!--link OnCloudPlatformCondition to SpringBootCondition--><g id="link_OnCloudPlatformCondition_SpringBootCondition"><path codeLine="16" d="M1240.16,55.07 C1228.73,57.93 1217.1,60.66 1206,63 C1077.74,90.02 928.18,112.06 831.43,125.09 " fill="none" id="OnCloudPlatformCondition-to-SpringBootCondition" style="stroke:#181818;stroke-width:1.0;"/><polygon fill="none" points="832.07,132.07,811.32,127.78,830.22,118.19,832.07,132.07" style="stroke:#181818;stroke-width:1.0;"/></g><!--link OnExpressionCondition to SpringBootCondition--><g id="link_OnExpressionCondition_SpringBootCondition"><path codeLine="17" d="M1018.54,55.04 C1009.26,57.73 999.92,60.43 991,63 C937.75,78.36 878.37,95.43 829.72,109.4 " fill="none" id="OnExpressionCondition-to-SpringBootCondition" style="stroke:#181818;stroke-width:1.0;"/><polygon fill="none" points="831.42,116.2,810.26,114.98,827.56,102.74,831.42,116.2" style="stroke:#181818;stroke-width:1.0;"/></g><!--link OnJavaCondition to SpringBootCondition--><g id="link_OnJavaCondition_SpringBootCondition"><path codeLine="18" d="M865.46,55 C841.97,69.4 811.28,88.2 785.06,104.26 " fill="none" id="OnJavaCondition-to-SpringBootCondition" style="stroke:#181818;stroke-width:1.0;"/><polygon fill="none" points="788.47,110.38,767.76,114.86,781.16,98.44,788.47,110.38" style="stroke:#181818;stroke-width:1.0;"/></g><!--link OnJndiCondition to SpringBootCondition--><g id="link_OnJndiCondition_SpringBootCondition"><path codeLine="19" d="M730,55 C730,66.59 730,81.03 730,94.6 " fill="none" id="OnJndiCondition-to-SpringBootCondition" style="stroke:#181818;stroke-width:1.0;"/><polygon fill="none" points="737,94.68,730,114.68,723,94.68,737,94.68" style="stroke:#181818;stroke-width:1.0;"/></g><!--link OnPropertyCondition to SpringBootCondition--><g id="link_OnPropertyCondition_SpringBootCondition"><path codeLine="21" d="M584.36,55 C609.99,69.6 643.56,88.74 672.02,104.96 " fill="none" id="OnPropertyCondition-to-SpringBootCondition" style="stroke:#181818;stroke-width:1.0;"/><polygon fill="none" points="675.49,98.88,689.4,114.86,668.56,111.04,675.49,98.88" style="stroke:#181818;stroke-width:1.0;"/></g><!--link OnResourceCondition to SpringBootCondition--><g id="link_OnResourceCondition_SpringBootCondition"><path codeLine="22" d="M416.31,55.06 C425.62,57.78 435.02,60.48 444,63 C505.3,80.17 574.33,98.31 629.21,112.44 " fill="none" id="OnResourceCondition-to-SpringBootCondition" style="stroke:#181818;stroke-width:1.0;"/><polygon fill="none" points="631.12,105.7,648.75,117.46,627.64,119.26,631.12,105.7" style="stroke:#181818;stroke-width:1.0;"/></g><!--link OnWarDeploymentCondition to SpringBootCondition--><g id="link_OnWarDeploymentCondition_SpringBootCondition"><path codeLine="23" d="M200.83,55.04 C212.94,57.9 225.25,60.64 237,63 C371.66,90.01 528.75,112.35 628.76,125.43 " fill="none" id="OnWarDeploymentCondition-to-SpringBootCondition" style="stroke:#181818;stroke-width:1.0;"/><polygon fill="none" points="629.96,118.53,648.89,128.04,628.16,132.41,629.96,118.53" style="stroke:#181818;stroke-width:1.0;"/></g><!--link SpringBootCondition to Condition--><g id="link_SpringBootCondition_Condition"><path codeLine="25" d="M730,163 C730,174.59 730,189.03 730,202.6 " fill="none" id="SpringBootCondition-to-Condition" style="stroke:#181818;stroke-width:1.0;"/><polygon fill="none" points="737,202.68,730,222.68,723,202.68,737,202.68" style="stroke:#181818;stroke-width:1.0;"/></g><!--SRC=[VP0x3i8m44JxdC8Nu0eK11eQ8YYeZRC9bXoljTuW8k3kH4HyB3PsjpDF8yymji1d87KhrFZqAJ9fmyeu7QCw1BA-NI5oYRwsRD6_CEiPgD46r5T_50MdOLF6pfSE-xfocXkaBWrw8vjh88Xnb6L_gozwnXb5sQa80n0Fihk7Y3qPaDsZfZK4XqC7dfEEStNKOd5VYeE9xN9uKZOB_dQV1mjXYrpitpGvM5ugynb1dEZF-GG0]--></g></svg>