<?xml version="1.0" encoding="us-ascii" standalone="no"?><svg xmlns="http://www.w3.org/2000/svg" xmlns:xlink="http://www.w3.org/1999/xlink" contentStyleType="text/css" height="386px" preserveAspectRatio="none" style="width:1047px;height:386px;background:#FFFFFF;" version="1.1" viewBox="0 0 1047 386" width="1047px" zoomAndPan="magnify"><defs/><g><!--class AutoConfigurationImportFilter--><g id="elem_AutoConfigurationImportFilter"><rect codeLine="3" fill="#F1F1F1" height="48" id="AutoConfigurationImportFilter" rx="2.5" ry="2.5" style="stroke:#181818;stroke-width:0.5;" width="218" x="7" y="223"/><ellipse cx="22" cy="239" fill="#B4A7E5" rx="11" ry="11" style="stroke:#181818;stroke-width:1.0;"/><path d="M18.5938,233.7813 L18.5938,232.8438 L24.4375,232.8438 L24.4375,233.7813 L22.6406,233.7813 Q22.4688,233.7813 22.3906,233.8438 Q22.3125,233.9063 22.3125,234.0469 L22.3125,243.5313 Q22.3125,243.6719 22.3906,243.7344 Q22.4688,243.7969 22.6406,243.7969 L24.4375,243.7969 L24.4375,244.7344 L18.5938,244.7344 L18.5938,243.7969 L20.3906,243.7969 Q20.6094,243.7969 20.6563,243.75 Q20.7188,243.6875 20.7188,243.5313 L20.7188,234.0469 Q20.7188,233.8906 20.6563,233.8438 Q20.6094,233.7813 20.3906,233.7813 L18.5938,233.7813 Z " fill="#000000"/><text fill="#000000" font-family="sans-serif" font-size="14" font-style="italic" lengthAdjust="spacing" textLength="186" x="36" y="244.7969">AutoConfigurationImportFilter</text><line style="stroke:#181818;stroke-width:0.5;" x1="8" x2="224" y1="255" y2="255"/><line style="stroke:#181818;stroke-width:0.5;" x1="8" x2="224" y1="263" y2="263"/></g><!--class BeanFactoryAware--><g id="elem_BeanFactoryAware"><rect codeLine="4" fill="#F1F1F1" height="48" id="BeanFactoryAware" rx="2.5" ry="2.5" style="stroke:#181818;stroke-width:0.5;" width="152" x="260" y="223"/><ellipse cx="275" cy="239" fill="#B4A7E5" rx="11" ry="11" style="stroke:#181818;stroke-width:1.0;"/><path d="M271.5938,233.7813 L271.5938,232.8438 L277.4375,232.8438 L277.4375,233.7813 L275.6406,233.7813 Q275.4688,233.7813 275.3906,233.8438 Q275.3125,233.9063 275.3125,234.0469 L275.3125,243.5313 Q275.3125,243.6719 275.3906,243.7344 Q275.4688,243.7969 275.6406,243.7969 L277.4375,243.7969 L277.4375,244.7344 L271.5938,244.7344 L271.5938,243.7969 L273.3906,243.7969 Q273.6094,243.7969 273.6563,243.75 Q273.7188,243.6875 273.7188,243.5313 L273.7188,234.0469 Q273.7188,233.8906 273.6563,233.8438 Q273.6094,233.7813 273.3906,233.7813 L271.5938,233.7813 Z " fill="#000000"/><text fill="#000000" font-family="sans-serif" font-size="14" font-style="italic" lengthAdjust="spacing" textLength="120" x="289" y="244.7969">BeanFactoryAware</text><line style="stroke:#181818;stroke-width:0.5;" x1="261" x2="411" y1="255" y2="255"/><line style="stroke:#181818;stroke-width:0.5;" x1="261" x2="411" y1="263" y2="263"/></g><!--class BeanClassLoaderAware--><g id="elem_BeanClassLoaderAware"><rect codeLine="5" fill="#F1F1F1" height="48" id="BeanClassLoaderAware" rx="2.5" ry="2.5" style="stroke:#181818;stroke-width:0.5;" width="184" x="447" y="223"/><ellipse cx="462" cy="239" fill="#B4A7E5" rx="11" ry="11" style="stroke:#181818;stroke-width:1.0;"/><path d="M458.5938,233.7813 L458.5938,232.8438 L464.4375,232.8438 L464.4375,233.7813 L462.6406,233.7813 Q462.4688,233.7813 462.3906,233.8438 Q462.3125,233.9063 462.3125,234.0469 L462.3125,243.5313 Q462.3125,243.6719 462.3906,243.7344 Q462.4688,243.7969 462.6406,243.7969 L464.4375,243.7969 L464.4375,244.7344 L458.5938,244.7344 L458.5938,243.7969 L460.3906,243.7969 Q460.6094,243.7969 460.6563,243.75 Q460.7188,243.6875 460.7188,243.5313 L460.7188,234.0469 Q460.7188,233.8906 460.6563,233.8438 Q460.6094,233.7813 460.3906,233.7813 L458.5938,233.7813 Z " fill="#000000"/><text fill="#000000" font-family="sans-serif" font-size="14" font-style="italic" lengthAdjust="spacing" textLength="152" x="476" y="244.7969">BeanClassLoaderAware</text><line style="stroke:#181818;stroke-width:0.5;" x1="448" x2="630" y1="255" y2="255"/><line style="stroke:#181818;stroke-width:0.5;" x1="448" x2="630" y1="263" y2="263"/></g><!--class FilteringSpringBootCondition--><g id="elem_FilteringSpringBootCondition"><rect codeLine="6" fill="#F1F1F1" height="48" id="FilteringSpringBootCondition" rx="2.5" ry="2.5" style="stroke:#181818;stroke-width:0.5;" width="213" x="432.5" y="115"/><ellipse cx="447.5" cy="131" fill="#A9DCDF" rx="11" ry="11" style="stroke:#181818;stroke-width:1.0;"/><path d="M447.9219,131.4844 L445.3594,131.4844 L444.8281,133.7813 Q444.7656,134.1094 444.7656,134.2656 Q444.7656,134.4844 444.8125,134.6406 Q444.875,134.7969 445.1563,134.7969 L445.625,134.7969 L445.625,135.7344 L442.6406,135.7344 L442.6406,134.7969 L443.0938,134.7969 Q443.2656,134.7969 443.3906,134.7031 Q443.5156,134.5938 443.5625,134.2969 L446.2031,123.9688 L447.6094,123.5 L450.1875,134.2656 Q450.2969,134.5781 450.4219,134.6875 Q450.5625,134.7969 450.7344,134.7969 L451.2031,134.7969 L451.2031,135.7344 L447.8125,135.7344 L447.8125,134.7969 L448.3438,134.7969 Q448.5625,134.7969 448.5781,134.75 Q448.6094,134.6875 448.6094,134.6094 Q448.6094,134.3906 448.5625,134.2031 L447.9219,131.4844 Z M443.3594,135.3281 L443.3594,135.3281 Z M444.0313,135.3281 L444.0313,135.3281 Z M448.75,135.3281 L448.75,135.3281 Z M449.875,135.3281 L449.875,135.3281 Z M446.6875,125.3906 L446.75,125.3906 L445.6406,130.5469 L447.7344,130.5469 L446.6875,125.3906 Z " fill="#000000"/><text fill="#000000" font-family="sans-serif" font-size="14" font-style="italic" lengthAdjust="spacing" textLength="181" x="461.5" y="136.7969">FilteringSpringBootCondition</text><line style="stroke:#181818;stroke-width:0.5;" x1="433.5" x2="644.5" y1="147" y2="147"/><line style="stroke:#181818;stroke-width:0.5;" x1="433.5" x2="644.5" y1="155" y2="155"/></g><!--class SpringBootCondition--><g id="elem_SpringBootCondition"><rect codeLine="7" fill="#F1F1F1" height="48" id="SpringBootCondition" rx="2.5" ry="2.5" style="stroke:#181818;stroke-width:0.5;" width="162" x="666" y="223"/><ellipse cx="681" cy="239" fill="#A9DCDF" rx="11" ry="11" style="stroke:#181818;stroke-width:1.0;"/><path d="M681.4219,239.4844 L678.8594,239.4844 L678.3281,241.7813 Q678.2656,242.1094 678.2656,242.2656 Q678.2656,242.4844 678.3125,242.6406 Q678.375,242.7969 678.6563,242.7969 L679.125,242.7969 L679.125,243.7344 L676.1406,243.7344 L676.1406,242.7969 L676.5938,242.7969 Q676.7656,242.7969 676.8906,242.7031 Q677.0156,242.5938 677.0625,242.2969 L679.7031,231.9688 L681.1094,231.5 L683.6875,242.2656 Q683.7969,242.5781 683.9219,242.6875 Q684.0625,242.7969 684.2344,242.7969 L684.7031,242.7969 L684.7031,243.7344 L681.3125,243.7344 L681.3125,242.7969 L681.8438,242.7969 Q682.0625,242.7969 682.0781,242.75 Q682.1094,242.6875 682.1094,242.6094 Q682.1094,242.3906 682.0625,242.2031 L681.4219,239.4844 Z M676.8594,243.3281 L676.8594,243.3281 Z M677.5313,243.3281 L677.5313,243.3281 Z M682.25,243.3281 L682.25,243.3281 Z M683.375,243.3281 L683.375,243.3281 Z M680.1875,233.3906 L680.25,233.3906 L679.1406,238.5469 L681.2344,238.5469 L680.1875,233.3906 Z " fill="#000000"/><text fill="#000000" font-family="sans-serif" font-size="14" font-style="italic" lengthAdjust="spacing" textLength="130" x="695" y="244.7969">SpringBootCondition</text><line style="stroke:#181818;stroke-width:0.5;" x1="667" x2="827" y1="255" y2="255"/><line style="stroke:#181818;stroke-width:0.5;" x1="667" x2="827" y1="263" y2="263"/></g><!--class ConfigurationCondition--><g id="elem_ConfigurationCondition"><rect codeLine="8" fill="#F1F1F1" height="48" id="ConfigurationCondition" rx="2.5" ry="2.5" style="stroke:#181818;stroke-width:0.5;" width="177" x="863.5" y="223"/><ellipse cx="878.5" cy="239" fill="#B4A7E5" rx="11" ry="11" style="stroke:#181818;stroke-width:1.0;"/><path d="M875.0938,233.7813 L875.0938,232.8438 L880.9375,232.8438 L880.9375,233.7813 L879.1406,233.7813 Q878.9688,233.7813 878.8906,233.8438 Q878.8125,233.9063 878.8125,234.0469 L878.8125,243.5313 Q878.8125,243.6719 878.8906,243.7344 Q878.9688,243.7969 879.1406,243.7969 L880.9375,243.7969 L880.9375,244.7344 L875.0938,244.7344 L875.0938,243.7969 L876.8906,243.7969 Q877.1094,243.7969 877.1563,243.75 Q877.2188,243.6875 877.2188,243.5313 L877.2188,234.0469 Q877.2188,233.8906 877.1563,233.8438 Q877.1094,233.7813 876.8906,233.7813 L875.0938,233.7813 Z " fill="#000000"/><text fill="#000000" font-family="sans-serif" font-size="14" font-style="italic" lengthAdjust="spacing" textLength="145" x="892.5" y="244.7969">ConfigurationCondition</text><line style="stroke:#181818;stroke-width:0.5;" x1="864.5" x2="1039.5" y1="255" y2="255"/><line style="stroke:#181818;stroke-width:0.5;" x1="864.5" x2="1039.5" y1="263" y2="263"/></g><!--class Condition--><g id="elem_Condition"><rect codeLine="9" fill="#F1F1F1" height="48" id="Condition" rx="2.5" ry="2.5" style="stroke:#181818;stroke-width:0.5;" width="92" x="803" y="331"/><ellipse cx="818" cy="347" fill="#B4A7E5" rx="11" ry="11" style="stroke:#181818;stroke-width:1.0;"/><path d="M814.5938,341.7813 L814.5938,340.8438 L820.4375,340.8438 L820.4375,341.7813 L818.6406,341.7813 Q818.4688,341.7813 818.3906,341.8438 Q818.3125,341.9063 818.3125,342.0469 L818.3125,351.5313 Q818.3125,351.6719 818.3906,351.7344 Q818.4688,351.7969 818.6406,351.7969 L820.4375,351.7969 L820.4375,352.7344 L814.5938,352.7344 L814.5938,351.7969 L816.3906,351.7969 Q816.6094,351.7969 816.6563,351.75 Q816.7188,351.6875 816.7188,351.5313 L816.7188,342.0469 Q816.7188,341.8906 816.6563,341.8438 Q816.6094,341.7813 816.3906,341.7813 L814.5938,341.7813 Z " fill="#000000"/><text fill="#000000" font-family="sans-serif" font-size="14" font-style="italic" lengthAdjust="spacing" textLength="60" x="832" y="352.7969">Condition</text><line style="stroke:#181818;stroke-width:0.5;" x1="804" x2="894" y1="363" y2="363"/><line style="stroke:#181818;stroke-width:0.5;" x1="804" x2="894" y1="371" y2="371"/></g><!--class OnClassCondition--><g id="elem_OnClassCondition"><rect codeLine="13" fill="#F1F1F1" height="48" id="OnClassCondition" rx="2.5" ry="2.5" style="stroke:#181818;stroke-width:0.5;" width="146" x="524" y="7"/><ellipse cx="539" cy="23" fill="#ADD1B2" rx="11" ry="11" style="stroke:#181818;stroke-width:1.0;"/><path d="M538.3438,28.8594 Q536.3594,28.8594 535.1875,27.3906 Q534.0313,25.9063 534.0313,22.8281 Q534.0313,20.2188 535.25,18.4688 Q536.4844,16.7188 538.6094,16.7188 Q539.1094,16.7188 539.6406,16.8594 Q540.0781,17.0469 540.3438,17.0469 Q540.5625,17.0469 540.6563,17 Q540.7656,16.9531 541.2188,16.3594 L541.9844,20.0938 L541.0938,20.3594 Q540.6406,18.9063 540.0313,18.3125 Q539.4375,17.7031 538.4844,17.7031 Q537.2656,17.7031 536.5469,19.1406 Q535.8281,20.5625 535.8281,22.75 Q535.8281,25.1563 536.4375,26.4531 Q537.0625,27.7344 538.4219,27.7344 Q539.375,27.7344 540.0625,27.0469 Q540.75,26.3438 541.0781,24.8438 L541.9844,25.25 Q541.5781,26.9531 540.6094,27.9063 Q539.6563,28.8594 538.3438,28.8594 Z " fill="#000000"/><text fill="#000000" font-family="sans-serif" font-size="14" lengthAdjust="spacing" textLength="114" x="553" y="28.7969">OnClassCondition</text><line style="stroke:#181818;stroke-width:0.5;" x1="525" x2="669" y1="39" y2="39"/><line style="stroke:#181818;stroke-width:0.5;" x1="525" x2="669" y1="47" y2="47"/></g><!--class OnBeanCondition--><g id="elem_OnBeanCondition"><rect codeLine="14" fill="#F1F1F1" height="48" id="OnBeanCondition" rx="2.5" ry="2.5" style="stroke:#181818;stroke-width:0.5;" width="144" x="705" y="7"/><ellipse cx="720" cy="23" fill="#ADD1B2" rx="11" ry="11" style="stroke:#181818;stroke-width:1.0;"/><path d="M719.3438,28.8594 Q717.3594,28.8594 716.1875,27.3906 Q715.0313,25.9063 715.0313,22.8281 Q715.0313,20.2188 716.25,18.4688 Q717.4844,16.7188 719.6094,16.7188 Q720.1094,16.7188 720.6406,16.8594 Q721.0781,17.0469 721.3438,17.0469 Q721.5625,17.0469 721.6563,17 Q721.7656,16.9531 722.2188,16.3594 L722.9844,20.0938 L722.0938,20.3594 Q721.6406,18.9063 721.0313,18.3125 Q720.4375,17.7031 719.4844,17.7031 Q718.2656,17.7031 717.5469,19.1406 Q716.8281,20.5625 716.8281,22.75 Q716.8281,25.1563 717.4375,26.4531 Q718.0625,27.7344 719.4219,27.7344 Q720.375,27.7344 721.0625,27.0469 Q721.75,26.3438 722.0781,24.8438 L722.9844,25.25 Q722.5781,26.9531 721.6094,27.9063 Q720.6563,28.8594 719.3438,28.8594 Z " fill="#000000"/><text fill="#000000" font-family="sans-serif" font-size="14" lengthAdjust="spacing" textLength="112" x="734" y="28.7969">OnBeanCondition</text><line style="stroke:#181818;stroke-width:0.5;" x1="706" x2="848" y1="39" y2="39"/><line style="stroke:#181818;stroke-width:0.5;" x1="706" x2="848" y1="47" y2="47"/></g><!--class OnWebApplicationCondition--><g id="elem_OnWebApplicationCondition"><rect codeLine="15" fill="#F1F1F1" height="48" id="OnWebApplicationCondition" rx="2.5" ry="2.5" style="stroke:#181818;stroke-width:0.5;" width="209" x="279.5" y="7"/><ellipse cx="294.5" cy="23" fill="#ADD1B2" rx="11" ry="11" style="stroke:#181818;stroke-width:1.0;"/><path d="M293.8438,28.8594 Q291.8594,28.8594 290.6875,27.3906 Q289.5313,25.9063 289.5313,22.8281 Q289.5313,20.2188 290.75,18.4688 Q291.9844,16.7188 294.1094,16.7188 Q294.6094,16.7188 295.1406,16.8594 Q295.5781,17.0469 295.8438,17.0469 Q296.0625,17.0469 296.1563,17 Q296.2656,16.9531 296.7188,16.3594 L297.4844,20.0938 L296.5938,20.3594 Q296.1406,18.9063 295.5313,18.3125 Q294.9375,17.7031 293.9844,17.7031 Q292.7656,17.7031 292.0469,19.1406 Q291.3281,20.5625 291.3281,22.75 Q291.3281,25.1563 291.9375,26.4531 Q292.5625,27.7344 293.9219,27.7344 Q294.875,27.7344 295.5625,27.0469 Q296.25,26.3438 296.5781,24.8438 L297.4844,25.25 Q297.0781,26.9531 296.1094,27.9063 Q295.1563,28.8594 293.8438,28.8594 Z " fill="#000000"/><text fill="#000000" font-family="sans-serif" font-size="14" lengthAdjust="spacing" textLength="177" x="308.5" y="28.7969">OnWebApplicationCondition</text><line style="stroke:#181818;stroke-width:0.5;" x1="280.5" x2="487.5" y1="39" y2="39"/><line style="stroke:#181818;stroke-width:0.5;" x1="280.5" x2="487.5" y1="47" y2="47"/></g><!--link OnClassCondition to FilteringSpringBootCondition--><g id="link_OnClassCondition_FilteringSpringBootCondition"><path codeLine="17" d="M584.41,55 C577.7,67.28 569.23,82.76 561.43,97.01 " fill="none" id="OnClassCondition-to-FilteringSpringBootCondition" style="stroke:#181818;stroke-width:1.0;"/><polygon fill="none" points="567.5,100.49,551.76,114.68,555.22,93.77,567.5,100.49" style="stroke:#181818;stroke-width:1.0;"/></g><!--link OnWebApplicationCondition to FilteringSpringBootCondition--><g id="link_OnWebApplicationCondition_FilteringSpringBootCondition"><path codeLine="18" d="M417.63,55 C438.38,69.19 465.38,87.66 488.65,103.57 " fill="none" id="OnWebApplicationCondition-to-FilteringSpringBootCondition" style="stroke:#181818;stroke-width:1.0;"/><polygon fill="none" points="492.61,97.79,505.17,114.86,484.71,109.35,492.61,97.79" style="stroke:#181818;stroke-width:1.0;"/></g><!--link OnBeanCondition to FilteringSpringBootCondition--><g id="link_OnBeanCondition_FilteringSpringBootCondition"><path codeLine="19" d="M725.36,55 C691.4,70.12 646.54,90.11 609.33,106.67 " fill="none" id="OnBeanCondition-to-FilteringSpringBootCondition" style="stroke:#181818;stroke-width:1.0;"/><polygon fill="none" points="612.07,113.12,590.95,114.86,606.37,100.33,612.07,113.12" style="stroke:#181818;stroke-width:1.0;"/></g><!--link OnBeanCondition to ConfigurationCondition--><g id="link_OnBeanCondition_ConfigurationCondition"><path codeLine="20" d="M796.06,55.31 C825.91,91.81 884.01,162.86 920.25,207.17 " fill="none" id="OnBeanCondition-to-ConfigurationCondition" style="stroke:#181818;stroke-width:1.0;"/><polygon fill="none" points="925.72,202.81,932.96,222.72,914.88,211.67,925.72,202.81" style="stroke:#181818;stroke-width:1.0;"/></g><!--link ConfigurationCondition to Condition--><g id="link_ConfigurationCondition_Condition"><path codeLine="21" d="M929.65,271 C916.92,284.11 900.64,300.86 886.04,315.88 " fill="none" id="ConfigurationCondition-to-Condition" style="stroke:#181818;stroke-width:1.0;"/><polygon fill="none" points="890.62,321.21,871.66,330.68,880.58,311.46,890.62,321.21" style="stroke:#181818;stroke-width:1.0;"/></g><!--link FilteringSpringBootCondition to AutoConfigurationImportFilter--><g id="link_FilteringSpringBootCondition_AutoConfigurationImportFilter"><path codeLine="23" d="M447.22,163 C382.75,179.16 296.16,200.85 227.68,218.01 " fill="none" id="FilteringSpringBootCondition-to-AutoConfigurationImportFilter" style="stroke:#181818;stroke-width:1.0;"/><polygon fill="none" points="229.07,224.88,207.97,222.95,225.67,211.3,229.07,224.88" style="stroke:#181818;stroke-width:1.0;"/></g><!--link FilteringSpringBootCondition to BeanFactoryAware--><g id="link_FilteringSpringBootCondition_BeanFactoryAware"><path codeLine="24" d="M494.95,163 C466.72,177.74 429.64,197.1 398.4,213.42 " fill="none" id="FilteringSpringBootCondition-to-BeanFactoryAware" style="stroke:#181818;stroke-width:1.0;"/><polygon fill="none" points="401.28,219.81,380.31,222.86,394.8,207.4,401.28,219.81" style="stroke:#181818;stroke-width:1.0;"/></g><!--link FilteringSpringBootCondition to SpringBootCondition--><g id="link_FilteringSpringBootCondition_SpringBootCondition"><path codeLine="25" d="M584.13,163 C613.2,177.81 651.41,197.29 683.51,213.65 " fill="none" id="FilteringSpringBootCondition-to-SpringBootCondition" style="stroke:#181818;stroke-width:1.0;"/><polygon fill="none" points="686.96,207.54,701.6,222.86,680.6,220.02,686.96,207.54" style="stroke:#181818;stroke-width:1.0;"/></g><!--link FilteringSpringBootCondition to BeanClassLoaderAware--><g id="link_FilteringSpringBootCondition_BeanClassLoaderAware"><path codeLine="26" d="M539,163 C539,174.59 539,189.03 539,202.6 " fill="none" id="FilteringSpringBootCondition-to-BeanClassLoaderAware" style="stroke:#181818;stroke-width:1.0;"/><polygon fill="none" points="546,202.68,539,222.68,532,202.68,546,202.68" style="stroke:#181818;stroke-width:1.0;"/></g><!--link SpringBootCondition to Condition--><g id="link_SpringBootCondition_Condition"><path codeLine="28" d="M769.13,271 C781.74,284.11 797.87,300.86 812.32,315.88 " fill="none" id="SpringBootCondition-to-Condition" style="stroke:#181818;stroke-width:1.0;"/><polygon fill="none" points="817.73,311.41,826.56,330.68,807.65,321.12,817.73,311.41" style="stroke:#181818;stroke-width:1.0;"/></g><!--SRC=[dPB12eCm38RlVOg-WAymK44O37ROOUUgrHLS8pKonkQxpqvdKTigww7GvFlp9oK89SSRL_H5X4Ik2fPn6hO8CSX2bArYA40UxpKeJ4JL4uJsnx0HPp9X6O9wXW-ck2KTLwnfJi1ohWp2qWPLhwEPpjAXjf3bfTPt181z1xdGxZRUXHddsG0UQ8ntXA3v2qqDHkUX_Nc1N-exdJLpvMbOrvN85lOTMHQaGV0- -ETtbjkbdJNvhyBnc_Rm91afulCROF_ARUjNQxWjiSs-psYrqCI9JyyF]--></g></svg>