<?xml version="1.0" encoding="us-ascii" standalone="no"?><svg xmlns="http://www.w3.org/2000/svg" xmlns:xlink="http://www.w3.org/1999/xlink" contentStyleType="text/css" height="494px" preserveAspectRatio="none" style="width:705px;height:494px;background:#FFFFFF;" version="1.1" viewBox="0 0 705 494" width="705px" zoomAndPan="magnify"><defs/><g><!--class AsyncAnnotationBeanPostProcessor--><g id="elem_AsyncAnnotationBeanPostProcessor"><rect codeLine="1" fill="#F1F1F1" height="48" id="AsyncAnnotationBeanPostProcessor" rx="2.5" ry="2.5" style="stroke:#181818;stroke-width:0.5;" width="263" x="369.5" y="7"/><ellipse cx="384.5" cy="23" fill="#ADD1B2" rx="11" ry="11" style="stroke:#181818;stroke-width:1.0;"/><path d="M383.8438,28.8594 Q381.8594,28.8594 380.6875,27.3906 Q379.5313,25.9063 379.5313,22.8281 Q379.5313,20.2188 380.75,18.4688 Q381.9844,16.7188 384.1094,16.7188 Q384.6094,16.7188 385.1406,16.8594 Q385.5781,17.0469 385.8438,17.0469 Q386.0625,17.0469 386.1563,17 Q386.2656,16.9531 386.7188,16.3594 L387.4844,20.0938 L386.5938,20.3594 Q386.1406,18.9063 385.5313,18.3125 Q384.9375,17.7031 383.9844,17.7031 Q382.7656,17.7031 382.0469,19.1406 Q381.3281,20.5625 381.3281,22.75 Q381.3281,25.1563 381.9375,26.4531 Q382.5625,27.7344 383.9219,27.7344 Q384.875,27.7344 385.5625,27.0469 Q386.25,26.3438 386.5781,24.8438 L387.4844,25.25 Q387.0781,26.9531 386.1094,27.9063 Q385.1563,28.8594 383.8438,28.8594 Z " fill="#000000"/><text fill="#000000" font-family="sans-serif" font-size="14" lengthAdjust="spacing" textLength="231" x="398.5" y="28.7969">AsyncAnnotationBeanPostProcessor</text><line style="stroke:#181818;stroke-width:0.5;" x1="370.5" x2="631.5" y1="39" y2="39"/><line style="stroke:#181818;stroke-width:0.5;" x1="370.5" x2="631.5" y1="47" y2="47"/></g><!--class AbstractBeanFactoryAwareAdvisingPostProcessor--><g id="elem_AbstractBeanFactoryAwareAdvisingPostProcessor"><rect codeLine="2" fill="#F1F1F1" height="48" id="AbstractBeanFactoryAwareAdvisingPostProcessor" rx="2.5" ry="2.5" style="stroke:#181818;stroke-width:0.5;" width="348" x="327" y="115"/><ellipse cx="342" cy="131" fill="#A9DCDF" rx="11" ry="11" style="stroke:#181818;stroke-width:1.0;"/><path d="M342.4219,131.4844 L339.8594,131.4844 L339.3281,133.7813 Q339.2656,134.1094 339.2656,134.2656 Q339.2656,134.4844 339.3125,134.6406 Q339.375,134.7969 339.6563,134.7969 L340.125,134.7969 L340.125,135.7344 L337.1406,135.7344 L337.1406,134.7969 L337.5938,134.7969 Q337.7656,134.7969 337.8906,134.7031 Q338.0156,134.5938 338.0625,134.2969 L340.7031,123.9688 L342.1094,123.5 L344.6875,134.2656 Q344.7969,134.5781 344.9219,134.6875 Q345.0625,134.7969 345.2344,134.7969 L345.7031,134.7969 L345.7031,135.7344 L342.3125,135.7344 L342.3125,134.7969 L342.8438,134.7969 Q343.0625,134.7969 343.0781,134.75 Q343.1094,134.6875 343.1094,134.6094 Q343.1094,134.3906 343.0625,134.2031 L342.4219,131.4844 Z M337.8594,135.3281 L337.8594,135.3281 Z M338.5313,135.3281 L338.5313,135.3281 Z M343.25,135.3281 L343.25,135.3281 Z M344.375,135.3281 L344.375,135.3281 Z M341.1875,125.3906 L341.25,125.3906 L340.1406,130.5469 L342.2344,130.5469 L341.1875,125.3906 Z " fill="#000000"/><text fill="#000000" font-family="sans-serif" font-size="14" font-style="italic" lengthAdjust="spacing" textLength="316" x="356" y="136.7969">AbstractBeanFactoryAwareAdvisingPostProcessor</text><line style="stroke:#181818;stroke-width:0.5;" x1="328" x2="674" y1="147" y2="147"/><line style="stroke:#181818;stroke-width:0.5;" x1="328" x2="674" y1="155" y2="155"/></g><!--class AbstractAdvisingBeanPostProcessor--><g id="elem_AbstractAdvisingBeanPostProcessor"><rect codeLine="3" fill="#F1F1F1" height="48" id="AbstractAdvisingBeanPostProcessor" rx="2.5" ry="2.5" style="stroke:#181818;stroke-width:0.5;" width="262" x="249" y="223"/><ellipse cx="264" cy="239" fill="#ADD1B2" rx="11" ry="11" style="stroke:#181818;stroke-width:1.0;"/><path d="M263.3438,244.8594 Q261.3594,244.8594 260.1875,243.3906 Q259.0313,241.9063 259.0313,238.8281 Q259.0313,236.2188 260.25,234.4688 Q261.4844,232.7188 263.6094,232.7188 Q264.1094,232.7188 264.6406,232.8594 Q265.0781,233.0469 265.3438,233.0469 Q265.5625,233.0469 265.6563,233 Q265.7656,232.9531 266.2188,232.3594 L266.9844,236.0938 L266.0938,236.3594 Q265.6406,234.9063 265.0313,234.3125 Q264.4375,233.7031 263.4844,233.7031 Q262.2656,233.7031 261.5469,235.1406 Q260.8281,236.5625 260.8281,238.75 Q260.8281,241.1563 261.4375,242.4531 Q262.0625,243.7344 263.4219,243.7344 Q264.375,243.7344 265.0625,243.0469 Q265.75,242.3438 266.0781,240.8438 L266.9844,241.25 Q266.5781,242.9531 265.6094,243.9063 Q264.6563,244.8594 263.3438,244.8594 Z " fill="#000000"/><text fill="#000000" font-family="sans-serif" font-size="14" lengthAdjust="spacing" textLength="230" x="278" y="244.7969">AbstractAdvisingBeanPostProcessor</text><line style="stroke:#181818;stroke-width:0.5;" x1="250" x2="510" y1="255" y2="255"/><line style="stroke:#181818;stroke-width:0.5;" x1="250" x2="510" y1="263" y2="263"/></g><!--class ProxyProcessorSupport--><g id="elem_ProxyProcessorSupport"><rect codeLine="4" fill="#F1F1F1" height="48" id="ProxyProcessorSupport" rx="2.5" ry="2.5" style="stroke:#181818;stroke-width:0.5;" width="181" x="187.5" y="331"/><ellipse cx="202.5" cy="347" fill="#ADD1B2" rx="11" ry="11" style="stroke:#181818;stroke-width:1.0;"/><path d="M201.8438,352.8594 Q199.8594,352.8594 198.6875,351.3906 Q197.5313,349.9063 197.5313,346.8281 Q197.5313,344.2188 198.75,342.4688 Q199.9844,340.7188 202.1094,340.7188 Q202.6094,340.7188 203.1406,340.8594 Q203.5781,341.0469 203.8438,341.0469 Q204.0625,341.0469 204.1563,341 Q204.2656,340.9531 204.7188,340.3594 L205.4844,344.0938 L204.5938,344.3594 Q204.1406,342.9063 203.5313,342.3125 Q202.9375,341.7031 201.9844,341.7031 Q200.7656,341.7031 200.0469,343.1406 Q199.3281,344.5625 199.3281,346.75 Q199.3281,349.1563 199.9375,350.4531 Q200.5625,351.7344 201.9219,351.7344 Q202.875,351.7344 203.5625,351.0469 Q204.25,350.3438 204.5781,348.8438 L205.4844,349.25 Q205.0781,350.9531 204.1094,351.9063 Q203.1563,352.8594 201.8438,352.8594 Z " fill="#000000"/><text fill="#000000" font-family="sans-serif" font-size="14" lengthAdjust="spacing" textLength="149" x="216.5" y="352.7969">ProxyProcessorSupport</text><line style="stroke:#181818;stroke-width:0.5;" x1="188.5" x2="367.5" y1="363" y2="363"/><line style="stroke:#181818;stroke-width:0.5;" x1="188.5" x2="367.5" y1="371" y2="371"/></g><!--class ProxyConfig--><g id="elem_ProxyConfig"><rect codeLine="5" fill="#F1F1F1" height="48" id="ProxyConfig" rx="2.5" ry="2.5" style="stroke:#181818;stroke-width:0.5;" width="108" x="7" y="439"/><ellipse cx="22" cy="455" fill="#ADD1B2" rx="11" ry="11" style="stroke:#181818;stroke-width:1.0;"/><path d="M21.3438,460.8594 Q19.3594,460.8594 18.1875,459.3906 Q17.0313,457.9063 17.0313,454.8281 Q17.0313,452.2188 18.25,450.4688 Q19.4844,448.7188 21.6094,448.7188 Q22.1094,448.7188 22.6406,448.8594 Q23.0781,449.0469 23.3438,449.0469 Q23.5625,449.0469 23.6563,449 Q23.7656,448.9531 24.2188,448.3594 L24.9844,452.0938 L24.0938,452.3594 Q23.6406,450.9063 23.0313,450.3125 Q22.4375,449.7031 21.4844,449.7031 Q20.2656,449.7031 19.5469,451.1406 Q18.8281,452.5625 18.8281,454.75 Q18.8281,457.1563 19.4375,458.4531 Q20.0625,459.7344 21.4219,459.7344 Q22.375,459.7344 23.0625,459.0469 Q23.75,458.3438 24.0781,456.8438 L24.9844,457.25 Q24.5781,458.9531 23.6094,459.9063 Q22.6563,460.8594 21.3438,460.8594 Z " fill="#000000"/><text fill="#000000" font-family="sans-serif" font-size="14" lengthAdjust="spacing" textLength="76" x="36" y="460.7969">ProxyConfig</text><line style="stroke:#181818;stroke-width:0.5;" x1="8" x2="114" y1="471" y2="471"/><line style="stroke:#181818;stroke-width:0.5;" x1="8" x2="114" y1="479" y2="479"/></g><!--class BeanFactoryAware--><g id="elem_BeanFactoryAware"><rect codeLine="7" fill="#F1F1F1" height="48" id="BeanFactoryAware" rx="2.5" ry="2.5" style="stroke:#181818;stroke-width:0.5;" width="152" x="546" y="223"/><ellipse cx="561" cy="239" fill="#B4A7E5" rx="11" ry="11" style="stroke:#181818;stroke-width:1.0;"/><path d="M557.5938,233.7813 L557.5938,232.8438 L563.4375,232.8438 L563.4375,233.7813 L561.6406,233.7813 Q561.4688,233.7813 561.3906,233.8438 Q561.3125,233.9063 561.3125,234.0469 L561.3125,243.5313 Q561.3125,243.6719 561.3906,243.7344 Q561.4688,243.7969 561.6406,243.7969 L563.4375,243.7969 L563.4375,244.7344 L557.5938,244.7344 L557.5938,243.7969 L559.3906,243.7969 Q559.6094,243.7969 559.6563,243.75 Q559.7188,243.6875 559.7188,243.5313 L559.7188,234.0469 Q559.7188,233.8906 559.6563,233.8438 Q559.6094,233.7813 559.3906,233.7813 L557.5938,233.7813 Z " fill="#000000"/><text fill="#000000" font-family="sans-serif" font-size="14" font-style="italic" lengthAdjust="spacing" textLength="120" x="575" y="244.7969">BeanFactoryAware</text><line style="stroke:#181818;stroke-width:0.5;" x1="547" x2="697" y1="255" y2="255"/><line style="stroke:#181818;stroke-width:0.5;" x1="547" x2="697" y1="263" y2="263"/></g><!--class BeanPostProcessor--><g id="elem_BeanPostProcessor"><rect codeLine="8" fill="#F1F1F1" height="48" id="BeanPostProcessor" rx="2.5" ry="2.5" style="stroke:#181818;stroke-width:0.5;" width="157" x="403.5" y="331"/><ellipse cx="418.5" cy="347" fill="#B4A7E5" rx="11" ry="11" style="stroke:#181818;stroke-width:1.0;"/><path d="M415.0938,341.7813 L415.0938,340.8438 L420.9375,340.8438 L420.9375,341.7813 L419.1406,341.7813 Q418.9688,341.7813 418.8906,341.8438 Q418.8125,341.9063 418.8125,342.0469 L418.8125,351.5313 Q418.8125,351.6719 418.8906,351.7344 Q418.9688,351.7969 419.1406,351.7969 L420.9375,351.7969 L420.9375,352.7344 L415.0938,352.7344 L415.0938,351.7969 L416.8906,351.7969 Q417.1094,351.7969 417.1563,351.75 Q417.2188,351.6875 417.2188,351.5313 L417.2188,342.0469 Q417.2188,341.8906 417.1563,341.8438 Q417.1094,341.7813 416.8906,341.7813 L415.0938,341.7813 Z " fill="#000000"/><text fill="#000000" font-family="sans-serif" font-size="14" font-style="italic" lengthAdjust="spacing" textLength="125" x="432.5" y="352.7969">BeanPostProcessor</text><line style="stroke:#181818;stroke-width:0.5;" x1="404.5" x2="559.5" y1="363" y2="363"/><line style="stroke:#181818;stroke-width:0.5;" x1="404.5" x2="559.5" y1="371" y2="371"/></g><!--class Ordered--><g id="elem_Ordered"><rect codeLine="9" fill="#F1F1F1" height="48" id="Ordered" rx="2.5" ry="2.5" style="stroke:#181818;stroke-width:0.5;" width="85" x="150.5" y="439"/><ellipse cx="165.5" cy="455" fill="#B4A7E5" rx="11" ry="11" style="stroke:#181818;stroke-width:1.0;"/><path d="M162.0938,449.7813 L162.0938,448.8438 L167.9375,448.8438 L167.9375,449.7813 L166.1406,449.7813 Q165.9688,449.7813 165.8906,449.8438 Q165.8125,449.9063 165.8125,450.0469 L165.8125,459.5313 Q165.8125,459.6719 165.8906,459.7344 Q165.9688,459.7969 166.1406,459.7969 L167.9375,459.7969 L167.9375,460.7344 L162.0938,460.7344 L162.0938,459.7969 L163.8906,459.7969 Q164.1094,459.7969 164.1563,459.75 Q164.2188,459.6875 164.2188,459.5313 L164.2188,450.0469 Q164.2188,449.8906 164.1563,449.8438 Q164.1094,449.7813 163.8906,449.7813 L162.0938,449.7813 Z " fill="#000000"/><text fill="#000000" font-family="sans-serif" font-size="14" font-style="italic" lengthAdjust="spacing" textLength="53" x="179.5" y="460.7969">Ordered</text><line style="stroke:#181818;stroke-width:0.5;" x1="151.5" x2="234.5" y1="471" y2="471"/><line style="stroke:#181818;stroke-width:0.5;" x1="151.5" x2="234.5" y1="479" y2="479"/></g><!--class BeanClassLoaderAware--><g id="elem_BeanClassLoaderAware"><rect codeLine="10" fill="#F1F1F1" height="48" id="BeanClassLoaderAware" rx="2.5" ry="2.5" style="stroke:#181818;stroke-width:0.5;" width="184" x="271" y="439"/><ellipse cx="286" cy="455" fill="#B4A7E5" rx="11" ry="11" style="stroke:#181818;stroke-width:1.0;"/><path d="M282.5938,449.7813 L282.5938,448.8438 L288.4375,448.8438 L288.4375,449.7813 L286.6406,449.7813 Q286.4688,449.7813 286.3906,449.8438 Q286.3125,449.9063 286.3125,450.0469 L286.3125,459.5313 Q286.3125,459.6719 286.3906,459.7344 Q286.4688,459.7969 286.6406,459.7969 L288.4375,459.7969 L288.4375,460.7344 L282.5938,460.7344 L282.5938,459.7969 L284.3906,459.7969 Q284.6094,459.7969 284.6563,459.75 Q284.7188,459.6875 284.7188,459.5313 L284.7188,450.0469 Q284.7188,449.8906 284.6563,449.8438 Q284.6094,449.7813 284.3906,449.7813 L282.5938,449.7813 Z " fill="#000000"/><text fill="#000000" font-family="sans-serif" font-size="14" font-style="italic" lengthAdjust="spacing" textLength="152" x="300" y="460.7969">BeanClassLoaderAware</text><line style="stroke:#181818;stroke-width:0.5;" x1="272" x2="454" y1="471" y2="471"/><line style="stroke:#181818;stroke-width:0.5;" x1="272" x2="454" y1="479" y2="479"/></g><!--class AopInfrastructureBean--><g id="elem_AopInfrastructureBean"><rect codeLine="11" fill="#F1F1F1" height="48" id="AopInfrastructureBean" rx="2.5" ry="2.5" style="stroke:#181818;stroke-width:0.5;" width="175" x="490.5" y="439"/><ellipse cx="505.5" cy="455" fill="#B4A7E5" rx="11" ry="11" style="stroke:#181818;stroke-width:1.0;"/><path d="M502.0938,449.7813 L502.0938,448.8438 L507.9375,448.8438 L507.9375,449.7813 L506.1406,449.7813 Q505.9688,449.7813 505.8906,449.8438 Q505.8125,449.9063 505.8125,450.0469 L505.8125,459.5313 Q505.8125,459.6719 505.8906,459.7344 Q505.9688,459.7969 506.1406,459.7969 L507.9375,459.7969 L507.9375,460.7344 L502.0938,460.7344 L502.0938,459.7969 L503.8906,459.7969 Q504.1094,459.7969 504.1563,459.75 Q504.2188,459.6875 504.2188,459.5313 L504.2188,450.0469 Q504.2188,449.8906 504.1563,449.8438 Q504.1094,449.7813 503.8906,449.7813 L502.0938,449.7813 Z " fill="#000000"/><text fill="#000000" font-family="sans-serif" font-size="14" font-style="italic" lengthAdjust="spacing" textLength="143" x="519.5" y="460.7969">AopInfrastructureBean</text><line style="stroke:#181818;stroke-width:0.5;" x1="491.5" x2="664.5" y1="471" y2="471"/><line style="stroke:#181818;stroke-width:0.5;" x1="491.5" x2="664.5" y1="479" y2="479"/></g><!--link AsyncAnnotationBeanPostProcessor to AbstractBeanFactoryAwareAdvisingPostProcessor--><g id="link_AsyncAnnotationBeanPostProcessor_AbstractBeanFactoryAwareAdvisingPostProcessor"><path codeLine="13" d="M501,55 C501,66.59 501,81.03 501,94.6 " fill="none" id="AsyncAnnotationBeanPostProcessor-to-AbstractBeanFactoryAwareAdvisingPostProcessor" style="stroke:#181818;stroke-width:1.0;"/><polygon fill="none" points="508,94.68,501,114.68,494,94.68,508,94.68" style="stroke:#181818;stroke-width:1.0;"/></g><!--link AbstractBeanFactoryAwareAdvisingPostProcessor to AbstractAdvisingBeanPostProcessor--><g id="link_AbstractBeanFactoryAwareAdvisingPostProcessor_AbstractAdvisingBeanPostProcessor"><path codeLine="15" d="M474.74,163 C459.31,176.52 439.45,193.92 421.9,209.3 " fill="none" id="AbstractBeanFactoryAwareAdvisingPostProcessor-to-AbstractAdvisingBeanPostProcessor" style="stroke:#181818;stroke-width:1.0;"/><polygon fill="none" points="426.28,214.76,406.62,222.68,417.05,204.23,426.28,214.76" style="stroke:#181818;stroke-width:1.0;"/></g><!--link AbstractBeanFactoryAwareAdvisingPostProcessor to BeanFactoryAware--><g id="link_AbstractBeanFactoryAwareAdvisingPostProcessor_BeanFactoryAware"><path codeLine="16" d="M527.26,163 C542.69,176.52 562.55,193.92 580.1,209.3 " fill="none" id="AbstractBeanFactoryAwareAdvisingPostProcessor-to-BeanFactoryAware" style="stroke:#181818;stroke-width:1.0;"/><polygon fill="none" points="584.95,204.23,595.38,222.68,575.72,214.76,584.95,204.23" style="stroke:#181818;stroke-width:1.0;"/></g><!--link AbstractAdvisingBeanPostProcessor to ProxyProcessorSupport--><g id="link_AbstractAdvisingBeanPostProcessor_ProxyProcessorSupport"><path codeLine="18" d="M357.87,271 C345.26,284.11 329.13,300.86 314.68,315.88 " fill="none" id="AbstractAdvisingBeanPostProcessor-to-ProxyProcessorSupport" style="stroke:#181818;stroke-width:1.0;"/><polygon fill="none" points="319.35,321.12,300.44,330.68,309.27,311.41,319.35,321.12" style="stroke:#181818;stroke-width:1.0;"/></g><!--link AbstractAdvisingBeanPostProcessor to BeanPostProcessor--><g id="link_AbstractAdvisingBeanPostProcessor_BeanPostProcessor"><path codeLine="19" d="M402.13,271 C414.74,284.11 430.87,300.86 445.32,315.88 " fill="none" id="AbstractAdvisingBeanPostProcessor-to-BeanPostProcessor" style="stroke:#181818;stroke-width:1.0;"/><polygon fill="none" points="450.73,311.41,459.56,330.68,440.65,321.12,450.73,311.41" style="stroke:#181818;stroke-width:1.0;"/></g><!--link ProxyProcessorSupport to ProxyConfig--><g id="link_ProxyProcessorSupport_ProxyConfig"><path codeLine="21" d="M230.91,379 C200.45,393.88 160.35,413.47 126.76,429.88 " fill="none" id="ProxyProcessorSupport-to-ProxyConfig" style="stroke:#181818;stroke-width:1.0;"/><polygon fill="none" points="129.41,436.37,108.37,438.86,123.27,423.79,129.41,436.37" style="stroke:#181818;stroke-width:1.0;"/></g><!--link ProxyProcessorSupport to Ordered--><g id="link_ProxyProcessorSupport_Ordered"><path codeLine="22" d="M259.56,379 C249.27,391.83 236.18,408.16 224.33,422.93 " fill="none" id="ProxyProcessorSupport-to-Ordered" style="stroke:#181818;stroke-width:1.0;"/><polygon fill="none" points="229.67,427.45,211.7,438.68,218.75,418.7,229.67,427.45" style="stroke:#181818;stroke-width:1.0;"/></g><!--link ProxyProcessorSupport to BeanClassLoaderAware--><g id="link_ProxyProcessorSupport_BeanClassLoaderAware"><path codeLine="23" d="M296.44,379 C306.73,391.83 319.82,408.16 331.67,422.93 " fill="none" id="ProxyProcessorSupport-to-BeanClassLoaderAware" style="stroke:#181818;stroke-width:1.0;"/><polygon fill="none" points="337.25,418.7,344.3,438.68,326.33,427.45,337.25,418.7" style="stroke:#181818;stroke-width:1.0;"/></g><!--link ProxyProcessorSupport to AopInfrastructureBean--><g id="link_ProxyProcessorSupport_AopInfrastructureBean"><path codeLine="24" d="M343.1,379 C387.25,394.6 446.03,415.37 493.75,432.23 " fill="none" id="ProxyProcessorSupport-to-AopInfrastructureBean" style="stroke:#181818;stroke-width:1.0;"/><polygon fill="none" points="496.25,425.69,512.77,438.95,491.58,438.89,496.25,425.69" style="stroke:#181818;stroke-width:1.0;"/></g><!--SRC=[dP9j2i8m38R_znIzmAuWr84W20uyGUowKP1af9qwyF1kRjDzkJb_bJJFcpTDeo_Wd5IkGAqGoOEtX5i3697p4PCspX4BE3lFeBtKBrwg9gx8NNaI5-e6R5HyjSvYsbVNebRJCcENcYlZU_6-FELPHkoxkP0miQaG5htX1BIHmpO6gRxB9tVasB291tHOEHq8ojomcA9iZmb3-P1S-vnDnGknD3uP18_Dofc9LNZVuVk4_oWwcgrOjAc5q__uetZSkfYirx5grc86Q_zx1fbSW1b-UYEU]--></g></svg>