<?xml version="1.0" encoding="us-ascii" standalone="no"?><svg xmlns="http://www.w3.org/2000/svg" xmlns:xlink="http://www.w3.org/1999/xlink" contentStyleType="text/css" height="580px" preserveAspectRatio="none" style="width:602px;height:580px;background:#FFFFFF;" version="1.1" viewBox="0 0 602 580" width="602px" zoomAndPan="magnify"><defs/><g><!--class AttributeAccessor--><g id="elem_AttributeAccessor"><rect codeLine="2" fill="#F1F1F1" height="48" id="AttributeAccessor" rx="2.5" ry="2.5" style="stroke:#181818;stroke-width:0.5;" width="143" x="142" y="525"/><ellipse cx="157" cy="541" fill="#B4A7E5" rx="11" ry="11" style="stroke:#181818;stroke-width:1.0;"/><path d="M153.5938,535.7813 L153.5938,534.8438 L159.4375,534.8438 L159.4375,535.7813 L157.6406,535.7813 Q157.4688,535.7813 157.3906,535.8438 Q157.3125,535.9063 157.3125,536.0469 L157.3125,545.5313 Q157.3125,545.6719 157.3906,545.7344 Q157.4688,545.7969 157.6406,545.7969 L159.4375,545.7969 L159.4375,546.7344 L153.5938,546.7344 L153.5938,545.7969 L155.3906,545.7969 Q155.6094,545.7969 155.6563,545.75 Q155.7188,545.6875 155.7188,545.5313 L155.7188,536.0469 Q155.7188,535.8906 155.6563,535.8438 Q155.6094,535.7813 155.3906,535.7813 L153.5938,535.7813 Z " fill="#000000"/><text fill="#000000" font-family="sans-serif" font-size="14" font-style="italic" lengthAdjust="spacing" textLength="111" x="171" y="546.7969">AttributeAccessor</text><line style="stroke:#181818;stroke-width:0.5;" x1="143" x2="284" y1="557" y2="557"/><line style="stroke:#181818;stroke-width:0.5;" x1="143" x2="284" y1="565" y2="565"/></g><!--class AttributeAccessorSupport--><g id="elem_AttributeAccessorSupport"><rect codeLine="3" fill="#F1F1F1" height="48" id="AttributeAccessorSupport" rx="2.5" ry="2.5" style="stroke:#181818;stroke-width:0.5;" width="193" x="298" y="417"/><ellipse cx="313" cy="433" fill="#ADD1B2" rx="11" ry="11" style="stroke:#181818;stroke-width:1.0;"/><path d="M312.3438,438.8594 Q310.3594,438.8594 309.1875,437.3906 Q308.0313,435.9063 308.0313,432.8281 Q308.0313,430.2188 309.25,428.4688 Q310.4844,426.7188 312.6094,426.7188 Q313.1094,426.7188 313.6406,426.8594 Q314.0781,427.0469 314.3438,427.0469 Q314.5625,427.0469 314.6563,427 Q314.7656,426.9531 315.2188,426.3594 L315.9844,430.0938 L315.0938,430.3594 Q314.6406,428.9063 314.0313,428.3125 Q313.4375,427.7031 312.4844,427.7031 Q311.2656,427.7031 310.5469,429.1406 Q309.8281,430.5625 309.8281,432.75 Q309.8281,435.1563 310.4375,436.4531 Q311.0625,437.7344 312.4219,437.7344 Q313.375,437.7344 314.0625,437.0469 Q314.75,436.3438 315.0781,434.8438 L315.9844,435.25 Q315.5781,436.9531 314.6094,437.9063 Q313.6563,438.8594 312.3438,438.8594 Z " fill="#000000"/><text fill="#000000" font-family="sans-serif" font-size="14" lengthAdjust="spacing" textLength="161" x="327" y="438.7969">AttributeAccessorSupport</text><line style="stroke:#181818;stroke-width:0.5;" x1="299" x2="490" y1="449" y2="449"/><line style="stroke:#181818;stroke-width:0.5;" x1="299" x2="490" y1="457" y2="457"/></g><!--class BeanMetadataElement--><g id="elem_BeanMetadataElement"><rect codeLine="11" fill="#F1F1F1" height="48" id="BeanMetadataElement" rx="2.5" ry="2.5" style="stroke:#181818;stroke-width:0.5;" width="176" x="86.5" y="417"/><ellipse cx="101.5" cy="433" fill="#B4A7E5" rx="11" ry="11" style="stroke:#181818;stroke-width:1.0;"/><path d="M98.0938,427.7813 L98.0938,426.8438 L103.9375,426.8438 L103.9375,427.7813 L102.1406,427.7813 Q101.9688,427.7813 101.8906,427.8438 Q101.8125,427.9063 101.8125,428.0469 L101.8125,437.5313 Q101.8125,437.6719 101.8906,437.7344 Q101.9688,437.7969 102.1406,437.7969 L103.9375,437.7969 L103.9375,438.7344 L98.0938,438.7344 L98.0938,437.7969 L99.8906,437.7969 Q100.1094,437.7969 100.1563,437.75 Q100.2188,437.6875 100.2188,437.5313 L100.2188,428.0469 Q100.2188,427.8906 100.1563,427.8438 Q100.1094,427.7813 99.8906,427.7813 L98.0938,427.7813 Z " fill="#000000"/><text fill="#000000" font-family="sans-serif" font-size="14" font-style="italic" lengthAdjust="spacing" textLength="144" x="115.5" y="438.7969">BeanMetadataElement</text><line style="stroke:#181818;stroke-width:0.5;" x1="87.5" x2="261.5" y1="449" y2="449"/><line style="stroke:#181818;stroke-width:0.5;" x1="87.5" x2="261.5" y1="457" y2="457"/></g><!--class BeanDefinition--><g id="elem_BeanDefinition"><rect codeLine="6" fill="#F1F1F1" height="48" id="BeanDefinition" rx="2.5" ry="2.5" style="stroke:#181818;stroke-width:0.5;" width="124" x="41.5" y="309"/><ellipse cx="56.5" cy="325" fill="#B4A7E5" rx="11" ry="11" style="stroke:#181818;stroke-width:1.0;"/><path d="M53.0938,319.7813 L53.0938,318.8438 L58.9375,318.8438 L58.9375,319.7813 L57.1406,319.7813 Q56.9688,319.7813 56.8906,319.8438 Q56.8125,319.9063 56.8125,320.0469 L56.8125,329.5313 Q56.8125,329.6719 56.8906,329.7344 Q56.9688,329.7969 57.1406,329.7969 L58.9375,329.7969 L58.9375,330.7344 L53.0938,330.7344 L53.0938,329.7969 L54.8906,329.7969 Q55.1094,329.7969 55.1563,329.75 Q55.2188,329.6875 55.2188,329.5313 L55.2188,320.0469 Q55.2188,319.8906 55.1563,319.8438 Q55.1094,319.7813 54.8906,319.7813 L53.0938,319.7813 Z " fill="#000000"/><text fill="#000000" font-family="sans-serif" font-size="14" font-style="italic" lengthAdjust="spacing" textLength="92" x="70.5" y="330.7969">BeanDefinition</text><line style="stroke:#181818;stroke-width:0.5;" x1="42.5" x2="164.5" y1="341" y2="341"/><line style="stroke:#181818;stroke-width:0.5;" x1="42.5" x2="164.5" y1="349" y2="349"/></g><!--class AnnotatedBeanDefinition--><g id="elem_AnnotatedBeanDefinition"><rect codeLine="7" fill="#F1F1F1" height="48" id="AnnotatedBeanDefinition" rx="2.5" ry="2.5" style="stroke:#181818;stroke-width:0.5;" width="189" x="7" y="201"/><ellipse cx="22" cy="217" fill="#B4A7E5" rx="11" ry="11" style="stroke:#181818;stroke-width:1.0;"/><path d="M18.5938,211.7813 L18.5938,210.8438 L24.4375,210.8438 L24.4375,211.7813 L22.6406,211.7813 Q22.4688,211.7813 22.3906,211.8438 Q22.3125,211.9063 22.3125,212.0469 L22.3125,221.5313 Q22.3125,221.6719 22.3906,221.7344 Q22.4688,221.7969 22.6406,221.7969 L24.4375,221.7969 L24.4375,222.7344 L18.5938,222.7344 L18.5938,221.7969 L20.3906,221.7969 Q20.6094,221.7969 20.6563,221.75 Q20.7188,221.6875 20.7188,221.5313 L20.7188,212.0469 Q20.7188,211.8906 20.6563,211.8438 Q20.6094,211.7813 20.3906,211.7813 L18.5938,211.7813 Z " fill="#000000"/><text fill="#000000" font-family="sans-serif" font-size="14" font-style="italic" lengthAdjust="spacing" textLength="157" x="36" y="222.7969">AnnotatedBeanDefinition</text><line style="stroke:#181818;stroke-width:0.5;" x1="8" x2="195" y1="233" y2="233"/><line style="stroke:#181818;stroke-width:0.5;" x1="8" x2="195" y1="241" y2="241"/></g><!--class AbstractBeanDefinition--><g id="elem_AbstractBeanDefinition"><rect codeLine="8" fill="#F1F1F1" height="48" id="AbstractBeanDefinition" rx="2.5" ry="2.5" style="stroke:#181818;stroke-width:0.5;" width="176" x="231.5" y="201"/><ellipse cx="246.5" cy="217" fill="#A9DCDF" rx="11" ry="11" style="stroke:#181818;stroke-width:1.0;"/><path d="M246.9219,217.4844 L244.3594,217.4844 L243.8281,219.7813 Q243.7656,220.1094 243.7656,220.2656 Q243.7656,220.4844 243.8125,220.6406 Q243.875,220.7969 244.1563,220.7969 L244.625,220.7969 L244.625,221.7344 L241.6406,221.7344 L241.6406,220.7969 L242.0938,220.7969 Q242.2656,220.7969 242.3906,220.7031 Q242.5156,220.5938 242.5625,220.2969 L245.2031,209.9688 L246.6094,209.5 L249.1875,220.2656 Q249.2969,220.5781 249.4219,220.6875 Q249.5625,220.7969 249.7344,220.7969 L250.2031,220.7969 L250.2031,221.7344 L246.8125,221.7344 L246.8125,220.7969 L247.3438,220.7969 Q247.5625,220.7969 247.5781,220.75 Q247.6094,220.6875 247.6094,220.6094 Q247.6094,220.3906 247.5625,220.2031 L246.9219,217.4844 Z M242.3594,221.3281 L242.3594,221.3281 Z M243.0313,221.3281 L243.0313,221.3281 Z M247.75,221.3281 L247.75,221.3281 Z M248.875,221.3281 L248.875,221.3281 Z M245.6875,211.3906 L245.75,211.3906 L244.6406,216.5469 L246.7344,216.5469 L245.6875,211.3906 Z " fill="#000000"/><text fill="#000000" font-family="sans-serif" font-size="14" font-style="italic" lengthAdjust="spacing" textLength="144" x="260.5" y="222.7969">AbstractBeanDefinition</text><line style="stroke:#181818;stroke-width:0.5;" x1="232.5" x2="406.5" y1="233" y2="233"/><line style="stroke:#181818;stroke-width:0.5;" x1="232.5" x2="406.5" y1="241" y2="241"/></g><!--class BeanMetadataAttributeAccessor--><g id="elem_BeanMetadataAttributeAccessor"><rect codeLine="9" fill="#F1F1F1" height="48" id="BeanMetadataAttributeAccessor" rx="2.5" ry="2.5" style="stroke:#181818;stroke-width:0.5;" width="235" x="202" y="309"/><ellipse cx="217" cy="325" fill="#ADD1B2" rx="11" ry="11" style="stroke:#181818;stroke-width:1.0;"/><path d="M216.3438,330.8594 Q214.3594,330.8594 213.1875,329.3906 Q212.0313,327.9063 212.0313,324.8281 Q212.0313,322.2188 213.25,320.4688 Q214.4844,318.7188 216.6094,318.7188 Q217.1094,318.7188 217.6406,318.8594 Q218.0781,319.0469 218.3438,319.0469 Q218.5625,319.0469 218.6563,319 Q218.7656,318.9531 219.2188,318.3594 L219.9844,322.0938 L219.0938,322.3594 Q218.6406,320.9063 218.0313,320.3125 Q217.4375,319.7031 216.4844,319.7031 Q215.2656,319.7031 214.5469,321.1406 Q213.8281,322.5625 213.8281,324.75 Q213.8281,327.1563 214.4375,328.4531 Q215.0625,329.7344 216.4219,329.7344 Q217.375,329.7344 218.0625,329.0469 Q218.75,328.3438 219.0781,326.8438 L219.9844,327.25 Q219.5781,328.9531 218.6094,329.9063 Q217.6563,330.8594 216.3438,330.8594 Z " fill="#000000"/><text fill="#000000" font-family="sans-serif" font-size="14" lengthAdjust="spacing" textLength="203" x="231" y="330.7969">BeanMetadataAttributeAccessor</text><line style="stroke:#181818;stroke-width:0.5;" x1="203" x2="436" y1="341" y2="341"/><line style="stroke:#181818;stroke-width:0.5;" x1="203" x2="436" y1="349" y2="349"/></g><!--class ChildBeanDefinition--><g id="elem_ChildBeanDefinition"><rect fill="#F1F1F1" height="48" id="ChildBeanDefinition" rx="2.5" ry="2.5" style="stroke:#181818;stroke-width:0.5;" width="156" x="41.5" y="93"/><ellipse cx="56.5" cy="109" fill="#ADD1B2" rx="11" ry="11" style="stroke:#181818;stroke-width:1.0;"/><path d="M55.8438,114.8594 Q53.8594,114.8594 52.6875,113.3906 Q51.5313,111.9063 51.5313,108.8281 Q51.5313,106.2188 52.75,104.4688 Q53.9844,102.7188 56.1094,102.7188 Q56.6094,102.7188 57.1406,102.8594 Q57.5781,103.0469 57.8438,103.0469 Q58.0625,103.0469 58.1563,103 Q58.2656,102.9531 58.7188,102.3594 L59.4844,106.0938 L58.5938,106.3594 Q58.1406,104.9063 57.5313,104.3125 Q56.9375,103.7031 55.9844,103.7031 Q54.7656,103.7031 54.0469,105.1406 Q53.3281,106.5625 53.3281,108.75 Q53.3281,111.1563 53.9375,112.4531 Q54.5625,113.7344 55.9219,113.7344 Q56.875,113.7344 57.5625,113.0469 Q58.25,112.3438 58.5781,110.8438 L59.4844,111.25 Q59.0781,112.9531 58.1094,113.9063 Q57.1563,114.8594 55.8438,114.8594 Z " fill="#000000"/><text fill="#000000" font-family="sans-serif" font-size="14" lengthAdjust="spacing" textLength="124" x="70.5" y="114.7969">ChildBeanDefinition</text><line style="stroke:#181818;stroke-width:0.5;" x1="42.5" x2="196.5" y1="125" y2="125"/><line style="stroke:#181818;stroke-width:0.5;" x1="42.5" x2="196.5" y1="133" y2="133"/></g><g id="elem_GMN19"><path d="M69.5,6 L69.5,33.291 A0,0 0 0 0 69.5,33.291 L115.5,33.291 L119.5,92.72 L123.5,33.291 L169.5,33.291 A0,0 0 0 0 169.5,33.291 L169.5,16 L159.5,6 L69.5,6 A0,0 0 0 0 69.5,6 " fill="#FEFFDD" style="stroke:#181818;stroke-width:0.5;"/><path d="M159.5,6 L159.5,16 L169.5,16 L159.5,6 " fill="#FEFFDD" style="stroke:#181818;stroke-width:0.5;"/><text fill="#000000" font-family="sans-serif" font-size="13" lengthAdjust="spacing" textLength="79" x="75.5" y="25.0283">@Deprecated</text></g><!--class GenericBeanDefinition--><g id="elem_GenericBeanDefinition"><rect codeLine="28" fill="#F1F1F1" height="48" id="GenericBeanDefinition" rx="2.5" ry="2.5" style="stroke:#181818;stroke-width:0.5;" width="174" x="232.5" y="93"/><ellipse cx="247.5" cy="109" fill="#ADD1B2" rx="11" ry="11" style="stroke:#181818;stroke-width:1.0;"/><path d="M246.8438,114.8594 Q244.8594,114.8594 243.6875,113.3906 Q242.5313,111.9063 242.5313,108.8281 Q242.5313,106.2188 243.75,104.4688 Q244.9844,102.7188 247.1094,102.7188 Q247.6094,102.7188 248.1406,102.8594 Q248.5781,103.0469 248.8438,103.0469 Q249.0625,103.0469 249.1563,103 Q249.2656,102.9531 249.7188,102.3594 L250.4844,106.0938 L249.5938,106.3594 Q249.1406,104.9063 248.5313,104.3125 Q247.9375,103.7031 246.9844,103.7031 Q245.7656,103.7031 245.0469,105.1406 Q244.3281,106.5625 244.3281,108.75 Q244.3281,111.1563 244.9375,112.4531 Q245.5625,113.7344 246.9219,113.7344 Q247.875,113.7344 248.5625,113.0469 Q249.25,112.3438 249.5781,110.8438 L250.4844,111.25 Q250.0781,112.9531 249.1094,113.9063 Q248.1563,114.8594 246.8438,114.8594 Z " fill="#000000"/><text fill="#000000" font-family="sans-serif" font-size="14" lengthAdjust="spacing" textLength="142" x="261.5" y="114.7969">GenericBeanDefinition</text><line style="stroke:#181818;stroke-width:0.5;" x1="233.5" x2="405.5" y1="125" y2="125"/><line style="stroke:#181818;stroke-width:0.5;" x1="233.5" x2="405.5" y1="133" y2="133"/></g><!--class RootBeanDefinition--><g id="elem_RootBeanDefinition"><rect codeLine="31" fill="#F1F1F1" height="48" id="RootBeanDefinition" rx="2.5" ry="2.5" style="stroke:#181818;stroke-width:0.5;" width="154" x="441.5" y="93"/><ellipse cx="456.5" cy="109" fill="#ADD1B2" rx="11" ry="11" style="stroke:#181818;stroke-width:1.0;"/><path d="M455.8438,114.8594 Q453.8594,114.8594 452.6875,113.3906 Q451.5313,111.9063 451.5313,108.8281 Q451.5313,106.2188 452.75,104.4688 Q453.9844,102.7188 456.1094,102.7188 Q456.6094,102.7188 457.1406,102.8594 Q457.5781,103.0469 457.8438,103.0469 Q458.0625,103.0469 458.1563,103 Q458.2656,102.9531 458.7188,102.3594 L459.4844,106.0938 L458.5938,106.3594 Q458.1406,104.9063 457.5313,104.3125 Q456.9375,103.7031 455.9844,103.7031 Q454.7656,103.7031 454.0469,105.1406 Q453.3281,106.5625 453.3281,108.75 Q453.3281,111.1563 453.9375,112.4531 Q454.5625,113.7344 455.9219,113.7344 Q456.875,113.7344 457.5625,113.0469 Q458.25,112.3438 458.5781,110.8438 L459.4844,111.25 Q459.0781,112.9531 458.1094,113.9063 Q457.1563,114.8594 455.8438,114.8594 Z " fill="#000000"/><text fill="#000000" font-family="sans-serif" font-size="14" lengthAdjust="spacing" textLength="122" x="470.5" y="114.7969">RootBeanDefinition</text><line style="stroke:#181818;stroke-width:0.5;" x1="442.5" x2="594.5" y1="125" y2="125"/><line style="stroke:#181818;stroke-width:0.5;" x1="442.5" x2="594.5" y1="133" y2="133"/></g><!--link AbstractBeanDefinition to BeanMetadataAttributeAccessor--><g id="link_AbstractBeanDefinition_BeanMetadataAttributeAccessor"><path codeLine="13" d="M319.5,249 C319.5,260.59 319.5,275.03 319.5,288.6 " fill="none" id="AbstractBeanDefinition-to-BeanMetadataAttributeAccessor" style="stroke:#181818;stroke-width:1.0;"/><polygon fill="none" points="326.5,288.68,319.5,308.68,312.5,288.68,326.5,288.68" style="stroke:#181818;stroke-width:1.0;"/></g><!--link AbstractBeanDefinition to BeanDefinition--><g id="link_AbstractBeanDefinition_BeanDefinition"><path codeLine="14" d="M272.63,249 C242.31,263.88 202.4,283.47 168.96,299.88 " fill="none" id="AbstractBeanDefinition-to-BeanDefinition" style="stroke:#181818;stroke-width:1.0;"/><polygon fill="none" points="171.69,306.33,150.65,308.86,165.52,293.77,171.69,306.33" style="stroke:#181818;stroke-width:1.0;"/></g><!--link BeanMetadataAttributeAccessor to BeanMetadataElement--><g id="link_BeanMetadataAttributeAccessor_BeanMetadataElement"><path codeLine="16" d="M288.04,357 C268.91,370.98 244.11,389.12 222.56,404.87 " fill="none" id="BeanMetadataAttributeAccessor-to-BeanMetadataElement" style="stroke:#181818;stroke-width:1.0;"/><polygon fill="none" points="226.43,410.71,206.15,416.86,218.17,399.41,226.43,410.71" style="stroke:#181818;stroke-width:1.0;"/></g><!--link BeanMetadataAttributeAccessor to AttributeAccessorSupport--><g id="link_BeanMetadataAttributeAccessor_AttributeAccessorSupport"><path codeLine="17" d="M335.77,357 C344.66,369.55 355.91,385.46 366.18,399.97 " fill="none" id="BeanMetadataAttributeAccessor-to-AttributeAccessorSupport" style="stroke:#181818;stroke-width:1.0;"/><polygon fill="none" points="372.16,396.31,378,416.68,360.73,404.4,372.16,396.31" style="stroke:#181818;stroke-width:1.0;"/></g><!--link AttributeAccessorSupport to AttributeAccessor--><g id="link_AttributeAccessorSupport_AttributeAccessor"><path codeLine="19" d="M355.23,465 C330.41,479.54 297.92,498.56 270.32,514.73 " fill="none" id="AttributeAccessorSupport-to-AttributeAccessor" style="stroke:#181818;stroke-width:1.0;"/><polygon fill="none" points="273.81,520.79,253.01,524.86,266.73,508.71,273.81,520.79" style="stroke:#181818;stroke-width:1.0;"/></g><!--link BeanDefinition to BeanMetadataElement--><g id="link_BeanDefinition_BeanMetadataElement"><path codeLine="21" d="M118.91,357 C127.31,369.55 137.97,385.46 147.69,399.97 " fill="none" id="BeanDefinition-to-BeanMetadataElement" style="stroke:#181818;stroke-width:1.0;"/><polygon fill="none" points="153.56,396.17,158.88,416.68,141.93,403.96,153.56,396.17" style="stroke:#181818;stroke-width:1.0;"/></g><!--link BeanDefinition to AttributeAccessor--><g id="link_BeanDefinition_AttributeAccessor"><path codeLine="22" d="M87.21,357.18 C70.19,384.52 48.54,430.58 68.5,465 C81.12,486.77 101.84,503.32 123.73,515.68 " fill="none" id="BeanDefinition-to-AttributeAccessor" style="stroke:#181818;stroke-width:1.0;"/><polygon fill="none" points="127.18,509.58,141.8,524.91,120.81,522.05,127.18,509.58" style="stroke:#181818;stroke-width:1.0;"/></g><!--link AnnotatedBeanDefinition to BeanDefinition--><g id="link_AnnotatedBeanDefinition_BeanDefinition"><path codeLine="23" d="M101.93,249 C102.15,260.59 102.43,275.03 102.68,288.6 " fill="none" id="AnnotatedBeanDefinition-to-BeanDefinition" style="stroke:#181818;stroke-width:1.0;"/><polygon fill="none" points="109.68,288.55,103.06,308.68,95.68,288.81,109.68,288.55" style="stroke:#181818;stroke-width:1.0;"/></g><!--link ChildBeanDefinition to AbstractBeanDefinition--><g id="link_ChildBeanDefinition_AbstractBeanDefinition"><path codeLine="25" d="M162.9,141 C190.71,155.74 227.24,175.1 258.02,191.42 " fill="none" id="ChildBeanDefinition-to-AbstractBeanDefinition" style="stroke:#181818;stroke-width:1.0;"/><polygon fill="none" points="261.45,185.31,275.84,200.86,254.89,197.68,261.45,185.31" style="stroke:#181818;stroke-width:1.0;"/></g><!--link GenericBeanDefinition to AbstractBeanDefinition--><g id="link_GenericBeanDefinition_AbstractBeanDefinition"><path codeLine="29" d="M319.5,141 C319.5,152.59 319.5,167.03 319.5,180.6 " fill="none" id="GenericBeanDefinition-to-AbstractBeanDefinition" style="stroke:#181818;stroke-width:1.0;"/><polygon fill="none" points="326.5,180.68,319.5,200.68,312.5,180.68,326.5,180.68" style="stroke:#181818;stroke-width:1.0;"/></g><!--link RootBeanDefinition to AbstractBeanDefinition--><g id="link_RootBeanDefinition_AbstractBeanDefinition"><path codeLine="32" d="M475.32,141 C447.64,155.74 411.3,175.1 380.67,191.42 " fill="none" id="RootBeanDefinition-to-AbstractBeanDefinition" style="stroke:#181818;stroke-width:1.0;"/><polygon fill="none" points="383.88,197.64,362.94,200.86,377.3,185.28,383.88,197.64" style="stroke:#181818;stroke-width:1.0;"/></g><!--SRC=[ZL8x3i8m3DrpYbo02p0W2aLCB702DtL5f19NYRjnU40DACglZF7x-DcEDens08MoORQwcnaRfT0viaADu5nQlytJH9Q5_aaF2EQ233qmd4Pye64HmIqEscZMP0AWCOOO6Fk80PrZ2ugbJ-2V4Mi1mzxf26iXyzPoitdkLfpNb45GKNLActtJ_I4h7aUKa89k2LbRGPWgvcNMapzjVZ_7knwpnCBbtzOecIP9WynfjrBkMvmigay2uN_A6GrQhIAlRBNQtTjTYM8aBLMDNW00]--></g></svg>